<?xml version="1.0" encoding="UTF-8" standalone="no"?>
<!-- Generated by CodeCogs Fri Mar  1 01:11:17 2013 -->

<svg
   xmlns:dc="http://purl.org/dc/elements/1.1/"
   xmlns:cc="http://creativecommons.org/ns#"
   xmlns:rdf="http://www.w3.org/1999/02/22-rdf-syntax-ns#"
   xmlns:svg="http://www.w3.org/2000/svg"
   xmlns="http://www.w3.org/2000/svg"
   xmlns:xlink="http://www.w3.org/1999/xlink"
   xmlns:sodipodi="http://sodipodi.sourceforge.net/DTD/sodipodi-0.dtd"
   xmlns:inkscape="http://www.inkscape.org/namespaces/inkscape"
   height="99.0151"
   preserveAspectRatio="xMinYMin"
   version="1.1"
   viewBox="0 0 147.399 99.0151"
   width="147.399"
   id="svg2"
   inkscape:version="0.48.4 r9939"
   sodipodi:docname="CodeCogsEqn.svg">
  <metadata
     id="metadata69">
    <rdf:RDF>
      <cc:Work
         rdf:about="">
        <dc:format>image/svg+xml</dc:format>
        <dc:type
           rdf:resource="http://purl.org/dc/dcmitype/StillImage" />
        <dc:title></dc:title>
      </cc:Work>
    </rdf:RDF>
  </metadata>
  <sodipodi:namedview
     pagecolor="#ffffff"
     bordercolor="#666666"
     borderopacity="1"
     objecttolerance="10"
     gridtolerance="10"
     guidetolerance="10"
     inkscape:pageopacity="0"
     inkscape:pageshadow="2"
     inkscape:window-width="640"
     inkscape:window-height="480"
     id="namedview67"
     showgrid="false"
     inkscape:zoom="2.3270171"
     inkscape:cx="73.699501"
     inkscape:cy="49.507549"
     inkscape:window-x="0"
     inkscape:window-y="26"
     inkscape:window-maximized="0"
     inkscape:current-layer="svg2" />
  <defs
     id="defs4">
    <path
       d="M5.016 -3L7.404 -5.4C7.536 -5.532 7.56 -5.556 7.56 -5.652C7.56 -5.784 7.452 -5.892 7.32 -5.892C7.224 -5.892 7.176 -5.844 7.068 -5.736L4.668 -3.336L2.256 -5.736C2.124 -5.868 2.1 -5.892 2.004 -5.892C1.884 -5.892 1.764 -5.784 1.764 -5.652C1.764 -5.556 1.812 -5.508 1.92 -5.4L4.308 -3L1.92 -0.612C1.8 -0.492 1.764 -0.42 1.764 -0.348C1.764 -0.216 1.884 -0.108 2.004 -0.108C2.1 -0.108 2.124 -0.132 2.256 -0.264L4.656 -2.664L7.056 -0.264C7.176 -0.144 7.248 -0.108 7.32 -0.108C7.464 -0.108 7.56 -0.216 7.56 -0.348C7.56 -0.444 7.536 -0.468 7.404 -0.6L5.016 -3Z"
       id="g42" />
    <path
       d="M4.416 -7.38C4.524 -7.824 4.572 -7.848 5.04 -7.848H5.904C6.936 -7.848 7.704 -7.536 7.704 -6.6C7.704 -5.988 7.392 -4.224 4.98 -4.224H3.624L4.416 -7.38ZM6.084 -4.08C7.572 -4.404 8.736 -5.364 8.736 -6.396C8.736 -7.332 7.788 -8.196 6.12 -8.196H2.868C2.628 -8.196 2.52 -8.196 2.52 -7.968C2.52 -7.848 2.604 -7.848 2.832 -7.848C3.552 -7.848 3.552 -7.752 3.552 -7.62C3.552 -7.596 3.552 -7.524 3.504 -7.344L1.884 -0.888C1.776 -0.468 1.752 -0.348 0.924 -0.348C0.648 -0.348 0.564 -0.348 0.564 -0.12C0.564 -0 0.696 -0 0.732 -0C0.948 -0 1.2 -0.024 1.428 -0.024H2.844C3.06 -0.024 3.312 -0 3.528 -0C3.624 -0 3.756 -0 3.756 -0.228C3.756 -0.348 3.648 -0.348 3.468 -0.348C2.736 -0.348 2.736 -0.444 2.736 -0.564C2.736 -0.576 2.736 -0.66 2.76 -0.756L3.564 -3.984H5.004C6.144 -3.984 6.36 -3.264 6.36 -2.868C6.36 -2.688 6.24 -2.22 6.156 -1.908C6.024 -1.356 5.988 -1.224 5.988 -0.996C5.988 -0.144 6.684 0.252 7.488 0.252C8.46 0.252 8.88 -0.936 8.88 -1.104C8.88 -1.188 8.82 -1.224 8.748 -1.224C8.652 -1.224 8.628 -1.152 8.604 -1.056C8.316 -0.204 7.824 0.012 7.524 0.012S7.032 -0.12 7.032 -0.66C7.032 -0.948 7.176 -2.04 7.188 -2.1C7.248 -2.544 7.248 -2.592 7.248 -2.688C7.248 -3.564 6.54 -3.936 6.084 -4.08Z"
       id="g082" />
    <path
       d="M1.352 -0.632C1.28 -0.328 1.264 -0.264 0.672 -0.264C0.52 -0.264 0.424 -0.264 0.424 -0.112C0.424 -0 0.528 -0 0.664 -0H3.632C4.952 -0 5.936 -0.936 5.936 -1.712C5.936 -2.296 5.432 -2.768 4.632 -2.856C5.56 -3.032 6.36 -3.64 6.36 -4.344C6.36 -4.944 5.776 -5.464 4.768 -5.464H1.976C1.832 -5.464 1.728 -5.464 1.728 -5.312C1.728 -5.2 1.824 -5.2 1.96 -5.2C2.224 -5.2 2.456 -5.2 2.456 -5.072C2.456 -5.04 2.448 -5.032 2.424 -4.928L1.352 -0.632ZM2.6 -2.952L3.088 -4.904C3.16 -5.176 3.168 -5.2 3.496 -5.2H4.648C5.432 -5.2 5.608 -4.688 5.608 -4.36C5.608 -3.68 4.88 -2.952 3.856 -2.952H2.6ZM2.048 -0.264C1.976 -0.28 1.952 -0.28 1.952 -0.336C1.952 -0.4 1.968 -0.464 1.984 -0.512L2.544 -2.728H4.168C4.912 -2.728 5.16 -2.224 5.16 -1.776C5.16 -0.992 4.392 -0.264 3.432 -0.264H2.048Z"
       id="g166" />
    <path
       d="M6.368 -5.416C6.376 -5.448 6.392 -5.496 6.392 -5.536C6.392 -5.592 6.344 -5.632 6.288 -5.632S6.208 -5.608 6.144 -5.536L5.584 -4.92C5.512 -5.024 5.088 -5.632 4.152 -5.632C2.296 -5.632 0.424 -3.912 0.424 -2.072C0.424 -0.68 1.48 0.168 2.752 0.168C3.8 0.168 4.688 -0.472 5.12 -1.096C5.384 -1.488 5.488 -1.872 5.488 -1.92C5.488 -1.992 5.44 -2.024 5.368 -2.024C5.272 -2.024 5.256 -1.984 5.232 -1.896C4.896 -0.792 3.816 -0.096 2.856 -0.096C2.04 -0.096 1.184 -0.576 1.184 -1.8C1.184 -2.056 1.272 -3.392 2.16 -4.392C2.76 -5.064 3.576 -5.368 4.208 -5.368C5.216 -5.368 5.632 -4.56 5.632 -3.8C5.632 -3.688 5.6 -3.536 5.6 -3.44C5.6 -3.336 5.704 -3.336 5.736 -3.336C5.84 -3.336 5.856 -3.368 5.888 -3.512L6.368 -5.416Z"
       id="g167" />
    <path
       d="M1.336 -0.632C1.264 -0.328 1.248 -0.264 0.656 -0.264C0.504 -0.264 0.408 -0.264 0.408 -0.112C0.408 -0 0.512 -0 0.648 -0H3.4C5.088 -0 6.768 -1.616 6.768 -3.4C6.768 -4.624 5.952 -5.464 4.76 -5.464H1.96C1.816 -5.464 1.712 -5.464 1.712 -5.312C1.712 -5.2 1.808 -5.2 1.944 -5.2C2.208 -5.2 2.44 -5.2 2.44 -5.072C2.44 -5.04 2.432 -5.032 2.408 -4.928L1.336 -0.632ZM3.104 -4.904C3.176 -5.176 3.184 -5.2 3.512 -5.2H4.48C5.416 -5.2 6.048 -4.664 6.048 -3.688C6.048 -3.424 5.936 -2.12 5.24 -1.224C4.888 -0.776 4.2 -0.264 3.256 -0.264H2.064C1.992 -0.28 1.968 -0.28 1.968 -0.336C1.968 -0.4 1.984 -0.464 2 -0.512L3.104 -4.904Z"
       id="g168" />
    <path
       d="M4.144 -3.016C4.176 -3.128 4.176 -3.144 4.176 -3.2C4.176 -3.4 4.016 -3.448 3.92 -3.448C3.88 -3.448 3.696 -3.44 3.592 -3.232C3.576 -3.192 3.504 -2.904 3.464 -2.736L2.984 -0.816C2.976 -0.792 2.632 -0.144 2.048 -0.144C1.656 -0.144 1.52 -0.432 1.52 -0.792C1.52 -1.256 1.792 -1.968 1.976 -2.432C2.056 -2.632 2.08 -2.704 2.08 -2.848C2.08 -3.288 1.728 -3.528 1.36 -3.528C0.568 -3.528 0.24 -2.4 0.24 -2.304C0.24 -2.232 0.296 -2.2 0.36 -2.2C0.464 -2.2 0.472 -2.248 0.496 -2.328C0.704 -3.024 1.048 -3.304 1.336 -3.304C1.456 -3.304 1.528 -3.224 1.528 -3.04C1.528 -2.872 1.464 -2.688 1.408 -2.544C1.08 -1.696 0.944 -1.288 0.944 -0.912C0.944 -0.128 1.536 0.08 2.008 0.08C2.384 0.08 2.656 -0.088 2.848 -0.272C2.736 0.176 2.656 0.488 2.352 0.872C2.088 1.2 1.768 1.408 1.408 1.408C1.272 1.408 0.968 1.384 0.808 1.144C1.232 1.112 1.264 0.752 1.264 0.704C1.264 0.512 1.12 0.408 0.952 0.408C0.776 0.408 0.496 0.544 0.496 0.936C0.496 1.312 0.84 1.632 1.408 1.632C2.224 1.632 3.144 0.976 3.384 0.008L4.144 -3.016Z"
       id="g1121" />
    <path
       d="M5.28 -2.016H5.016C4.98 -1.812 4.884 -1.152 4.764 -0.96C4.68 -0.852 3.996 -0.852 3.636 -0.852H1.416C1.74 -1.128 2.472 -1.896 2.784 -2.184C4.608 -3.864 5.28 -4.488 5.28 -5.676C5.28 -7.056 4.188 -7.98 2.796 -7.98S0.588 -6.792 0.588 -5.76C0.588 -5.148 1.116 -5.148 1.152 -5.148C1.404 -5.148 1.716 -5.328 1.716 -5.712C1.716 -6.048 1.488 -6.276 1.152 -6.276C1.044 -6.276 1.02 -6.276 0.984 -6.264C1.212 -7.08 1.86 -7.632 2.64 -7.632C3.66 -7.632 4.284 -6.78 4.284 -5.676C4.284 -4.656 3.696 -3.768 3.012 -3L0.588 -0.288V-0H4.968L5.28 -2.016Z"
       id="g250" />
    <path
       d="M8.1 -3.888C8.268 -3.888 8.484 -3.888 8.484 -4.104C8.484 -4.332 8.28 -4.332 8.1 -4.332H1.032C0.864 -4.332 0.648 -4.332 0.648 -4.116C0.648 -3.888 0.852 -3.888 1.032 -3.888H8.1ZM8.1 -1.656C8.268 -1.656 8.484 -1.656 8.484 -1.872C8.484 -2.1 8.28 -2.1 8.1 -2.1H1.032C0.864 -2.1 0.648 -2.1 0.648 -1.884C0.648 -1.656 0.852 -1.656 1.032 -1.656H8.1Z"
       id="g261" />
    <script
       id="script65"
       xlink:href="http://codecogs.izyba.com/svg.js"
       type="text/ecmascript" />
  </defs>
  <use
     height="99.015099"
     width="147.399"
     id="use15"
     y="70.3181"
     xlink:href="#g082"
     x="56.624802"
     transform="matrix(1.5,0,0,1.5,-58.5,-81)" />
  <use
     height="99.015099"
     width="147.399"
     id="use17"
     y="72.118103"
     xlink:href="#g167"
     x="65.568298"
     transform="matrix(1.5,0,0,1.5,-58.5,-81)" />
  <use
     height="99.015099"
     width="147.399"
     id="use19"
     y="70.3181"
     xlink:href="#g261"
     x="76.025002"
     transform="matrix(1.5,0,0,1.5,-58.5,-81)" />
  <use
     height="99.015099"
     width="147.399"
     id="use21"
     y="62.200001"
     xlink:href="#g082"
     x="89.697098"
     transform="matrix(1.5,0,0,1.5,-58.5,-81)" />
  <use
     height="99.015099"
     width="147.399"
     id="use23"
     y="64"
     xlink:href="#g166"
     x="98.640602"
     transform="matrix(1.5,0,0,1.5,-58.5,-81)" />
  <use
     height="99.015099"
     width="147.399"
     id="use25"
     y="62.200001"
     xlink:href="#g42"
     x="108.613"
     transform="matrix(1.5,0,0,1.5,-58.5,-81)" />
  <use
     height="99.015099"
     width="147.399"
     id="use27"
     y="62.200001"
     xlink:href="#g082"
     x="120.613"
     transform="matrix(1.5,0,0,1.5,-58.5,-81)" />
  <use
     height="99.015099"
     width="147.399"
     id="use29"
     y="64"
     xlink:href="#g168"
     x="129.556"
     transform="matrix(1.5,0,0,1.5,-58.5,-81)" />
  <rect
     id="rect31"
     y="19.617153"
     x="76.045647"
     width="71.353203"
     height="0.71996999" />
  <use
     height="99.015099"
     width="147.399"
     id="use33"
     y="78.5495"
     xlink:href="#g082"
     x="106.516"
     transform="matrix(1.5,0,0,1.5,-58.5,-81)" />
  <use
     height="99.015099"
     width="147.399"
     id="use35"
     y="80.349503"
     xlink:href="#g1121"
     x="115.459"
     transform="matrix(1.5,0,0,1.5,-58.5,-81)" />
  <use
     height="99.015099"
     width="147.399"
     id="use37"
     y="91.105003"
     xlink:href="#g082"
     x="39"
     transform="matrix(1.5,0,0,1.5,-58.5,-81)" />
  <use
     height="99.015099"
     width="147.399"
     id="use39"
     y="92.904999"
     xlink:href="#g1121"
     x="47.943501"
     transform="matrix(1.5,0,0,1.5,-58.5,-81)" />
  <use
     height="99.015099"
     width="147.399"
     id="use41"
     y="91.105003"
     xlink:href="#g261"
     x="56.265301"
     transform="matrix(1.5,0,0,1.5,-58.5,-81)" />
  <use
     height="99.015099"
     width="147.399"
     id="use43"
     y="91.105003"
     xlink:href="#g250"
     x="68.737396"
     transform="matrix(1.5,0,0,1.5,-58.5,-81)" />
  <use
     height="99.015099"
     width="147.399"
     id="use45"
     y="111.779"
     xlink:href="#g082"
     x="39"
     transform="matrix(1.5,0,0,1.5,-58.5,-81)" />
  <use
     height="99.015099"
     width="147.399"
     id="use47"
     y="113.579"
     xlink:href="#g167"
     x="47.943501"
     transform="matrix(1.5,0,0,1.5,-58.5,-81)" />
  <use
     height="99.015099"
     width="147.399"
     id="use49"
     y="111.779"
     xlink:href="#g261"
     x="58.4002"
     transform="matrix(1.5,0,0,1.5,-58.5,-81)" />
  <use
     height="99.015099"
     width="147.399"
     id="use51"
     y="103.661"
     xlink:href="#g082"
     x="72.072304"
     transform="matrix(1.5,0,0,1.5,-58.5,-81)" />
  <use
     height="99.015099"
     width="147.399"
     id="use53"
     y="105.461"
     xlink:href="#g166"
     x="81.0158"
     transform="matrix(1.5,0,0,1.5,-58.5,-81)" />
  <use
     height="99.015099"
     width="147.399"
     id="use55"
     y="103.661"
     xlink:href="#g42"
     x="90.988098"
     transform="matrix(1.5,0,0,1.5,-58.5,-81)" />
  <use
     height="99.015099"
     width="147.399"
     id="use57"
     y="103.661"
     xlink:href="#g082"
     x="102.988"
     transform="matrix(1.5,0,0,1.5,-58.5,-81)" />
  <use
     height="99.015099"
     width="147.399"
     id="use59"
     y="105.461"
     xlink:href="#g168"
     x="111.932"
     transform="matrix(1.5,0,0,1.5,-58.5,-81)" />
  <rect
     id="rect61"
     y="81.808502"
     x="49.608456"
     width="71.353203"
     height="0.71996999" />
  <use
     height="99.015099"
     width="147.399"
     id="use63"
     y="120.01"
     xlink:href="#g250"
     x="92.919197"
     transform="matrix(1.5,0,0,1.5,-58.5,-81)" />
</svg>
