<?xml version="1.0" standalone="no"?>
<!DOCTYPE svg PUBLIC "-//W3C//DTD SVG 1.1//EN"
  "http://www.w3.org/Graphics/SVG/1.1/DTD/svg11.dtd">
<!-- Created with matplotlib (http://matplotlib.sourceforge.net/) -->
<svg width="576pt" height="432pt" viewBox="0 0 576 432"
   xmlns="http://www.w3.org/2000/svg"
   xmlns:xlink="http://www.w3.org/1999/xlink"
   version="1.1"
   id="svg1">
<filter id="colorAdd"><feComposite in="SourceGraphic" in2="BackgroundImage" operator="arithmetic" k2="1" k3="1"/></filter>
<g id="figure1">
<g id="patch1">
<path style="fill: #ffffff; stroke: #ffffff; stroke-width: 1.000000; stroke-linejoin: round; stroke-linecap: square;  opacity: 1.000000"  d="M0.000000 432.000000L576.000000 432.000000L576.000000 0.000000
L0.000000 0.000000z"/>
</g>
<g id="axes1">
<g id="patch2">
<path style="fill: #ffffff; opacity: 1.000000"  d="M72.000000 388.800000L518.400000 388.800000L518.400000 43.200000
L72.000000 43.200000z"/>
</g>
<g id="line2d1">
<defs>
  <clipPath id="p50431ccdcb28178602d99d9270004dde">
<rect x="72.000000" y="43.200000" width="446.400000" height="345.600000"/>
  </clipPath>
</defs><path style="fill: none; stroke: #0000ff; stroke-width: 1.000000; stroke-linejoin: round; stroke-linecap: square;  opacity: 1.000000" clip-path="url(#p50431ccdcb28178602d99d9270004dde)" d="M109.200000 57.749760L112.920000 60.912000L116.640000 64.091520
L120.360000 67.253760L124.080000 70.416000L127.800000 73.578240
L131.520000 76.740480L135.240000 79.902720L138.960000 83.082240
L142.680000 86.244480L146.400000 89.406720L150.120000 92.568960
L153.840000 95.731200L157.560000 98.893440L161.280000 102.055680
L165.000000 105.235200L168.720000 108.397440L172.440000 111.559680
L176.160000 114.721920L179.880000 117.884160L183.600000 121.046400
L187.320000 124.225920L191.040000 127.388160L194.760000 130.550400
L198.480000 133.712640L202.200000 136.874880L205.920000 140.037120
L209.640000 143.199360L213.360000 146.378880L217.080000 149.541120
L220.800000 216.000000L224.520000 216.000000L228.240000 216.000000
L231.960000 216.000000L235.680000 216.000000L239.400000 216.000000
L243.120000 216.000000L246.840000 216.000000L250.560000 216.000000
L254.280000 216.000000L258.000000 216.000000L261.720000 216.000000
L265.440000 216.000000L269.160000 216.000000L272.880000 216.000000
L276.600000 216.000000L280.320000 216.000000L284.040000 216.000000
L287.760000 216.000000L291.480000 216.000000L295.200000 216.000000
L298.920000 216.000000L302.640000 216.000000L306.360000 216.000000
L310.080000 216.000000L313.800000 216.000000L317.520000 216.000000
L321.240000 216.000000L324.960000 216.000000L328.680000 216.000000
L332.400000 216.000000L336.120000 216.000000L339.840000 216.000000
L343.560000 216.000000L347.280000 216.000000L351.000000 216.000000
L354.720000 216.000000L358.440000 216.000000L362.160000 216.000000
L365.880000 216.000000L369.600000 216.000000L373.320000 279.296640
L377.040000 282.458880L380.760000 285.621120L384.480000 288.783360
L388.200000 291.962880L391.920000 295.125120L395.640000 298.287360
L399.360000 301.449600L403.080000 304.611840L406.800000 307.774080
L410.520000 310.953600L414.240000 314.115840L417.960000 317.278080
L421.680000 320.440320L425.400000 323.602560L429.120000 326.764800
L432.840000 329.927040L436.560000 333.106560L440.280000 336.268800
L444.000000 339.431040L447.720000 342.593280L451.440000 345.755520
L455.160000 348.935040L458.880000 352.097280L462.600000 355.259520
L466.320000 358.421760L470.040000 361.584000L473.760000 364.746240
L477.480000 367.908480"/>
</g>
<g id="line2d2">
<path style="fill: none; stroke: #008000; stroke-width: 1.000000; stroke-linejoin: round; stroke-linecap: square;  opacity: 1.000000" clip-path="url(#p50431ccdcb28178602d99d9270004dde)" d="M109.200000 115.309440L112.920000 117.313920L116.640000 119.335680
L120.360000 121.340160L124.080000 123.361920L127.800000 125.383680
L131.520000 127.388160L135.240000 129.409920L138.960000 131.414400
L142.680000 133.436160L146.400000 135.440640L150.120000 137.462400
L153.840000 139.466880L157.560000 141.488640L161.280000 143.493120
L165.000000 145.514880L168.720000 147.519360L172.440000 149.541120
L176.160000 151.562880L179.880000 153.567360L183.600000 155.589120
L187.320000 157.593600L191.040000 159.615360L194.760000 161.619840
L198.480000 163.641600L202.200000 165.646080L205.920000 167.667840
L209.640000 169.689600L213.360000 171.694080L217.080000 173.715840
L220.800000 216.000000L224.520000 216.000000L228.240000 216.000000
L231.960000 216.000000L235.680000 216.000000L239.400000 216.000000
L243.120000 216.000000L246.840000 216.000000L250.560000 216.000000
L254.280000 216.000000L258.000000 216.000000L261.720000 216.000000
L265.440000 216.000000L269.160000 216.000000L272.880000 216.000000
L276.600000 216.000000L280.320000 216.000000L284.040000 216.000000
L287.760000 216.000000L291.480000 216.000000L295.200000 216.000000
L298.920000 216.000000L302.640000 216.000000L306.360000 216.000000
L310.080000 216.000000L313.800000 216.000000L317.520000 216.000000
L321.240000 216.000000L324.960000 216.000000L328.680000 216.000000
L332.400000 216.000000L336.120000 216.000000L339.840000 216.000000
L343.560000 216.000000L347.280000 216.000000L351.000000 216.000000
L354.720000 216.000000L358.440000 216.000000L362.160000 216.000000
L365.880000 216.000000L369.600000 216.000000L373.320000 256.279680
L377.040000 258.301440L380.760000 260.305920L384.480000 262.327680
L388.200000 264.332160L391.920000 266.353920L395.640000 268.358400
L399.360000 270.380160L403.080000 272.401920L406.800000 274.406400
L410.520000 276.428160L414.240000 278.432640L417.960000 280.454400
L421.680000 282.458880L425.400000 284.480640L429.120000 286.485120
L432.840000 288.506880L436.560000 290.511360L440.280000 292.533120
L444.000000 294.554880L447.720000 296.559360L451.440000 298.581120
L455.160000 300.585600L458.880000 302.607360L462.600000 304.611840
L466.320000 306.633600L470.040000 308.638080L473.760000 310.659840
L477.480000 312.664320"/>
</g>
<g id="line2d3">
<path style="fill: none; stroke: #ff0000; stroke-width: 1.000000; stroke-linejoin: round; stroke-linecap: square;  opacity: 1.000000" clip-path="url(#p50431ccdcb28178602d99d9270004dde)" d="M109.200000 148.815360L112.920000 150.145920L116.640000 151.493760
L120.360000 152.841600L124.080000 154.189440L127.800000 155.520000
L131.520000 156.867840L135.240000 158.215680L138.960000 159.563520
L142.680000 160.911360L146.400000 162.241920L150.120000 163.589760
L153.840000 164.937600L157.560000 166.285440L161.280000 167.616000
L165.000000 168.963840L168.720000 170.311680L172.440000 171.659520
L176.160000 172.990080L179.880000 174.337920L183.600000 175.685760
L187.320000 177.033600L191.040000 178.364160L194.760000 179.729280
L198.480000 181.059840L202.200000 182.407680L205.920000 183.755520
L209.640000 185.086080L213.360000 186.433920L217.080000 187.781760
L220.800000 216.000000L224.520000 216.000000L228.240000 216.000000
L231.960000 216.000000L235.680000 216.000000L239.400000 216.000000
L243.120000 216.000000L246.840000 216.000000L250.560000 216.000000
L254.280000 216.000000L258.000000 216.000000L261.720000 216.000000
L265.440000 216.000000L269.160000 216.000000L272.880000 216.000000
L276.600000 216.000000L280.320000 216.000000L284.040000 216.000000
L287.760000 216.000000L291.480000 216.000000L295.200000 216.000000
L298.920000 216.000000L302.640000 216.000000L306.360000 216.000000
L310.080000 216.000000L313.800000 216.000000L317.520000 216.000000
L321.240000 216.000000L324.960000 216.000000L328.680000 216.000000
L332.400000 216.000000L336.120000 216.000000L339.840000 216.000000
L343.560000 216.000000L347.280000 216.000000L351.000000 216.000000
L354.720000 216.000000L358.440000 216.000000L362.160000 216.000000
L365.880000 216.000000L369.600000 216.000000L373.320000 242.887680
L377.040000 244.235520L380.760000 245.566080L384.480000 246.913920
L388.200000 248.261760L391.920000 249.609600L395.640000 250.940160
L399.360000 252.288000L403.080000 253.635840L406.800000 254.983680
L410.520000 256.314240L414.240000 257.662080L417.960000 259.009920
L421.680000 260.357760L425.400000 261.688320L429.120000 263.036160
L432.840000 264.384000L436.560000 265.731840L440.280000 267.079680
L444.000000 268.410240L447.720000 269.758080L451.440000 271.105920
L455.160000 272.453760L458.880000 273.784320L462.600000 275.132160
L466.320000 276.480000L470.040000 277.827840L473.760000 279.175680
L477.480000 280.506240"/>
</g>
<g id="line2d4">
<path style="fill: none; stroke: #00bfbf; stroke-width: 1.000000; stroke-linejoin: round; stroke-linecap: square;  opacity: 1.000000" clip-path="url(#p50431ccdcb28178602d99d9270004dde)" d="M109.200000 172.160640L112.920000 173.041920L116.640000 173.923200
L120.360000 174.804480L124.080000 175.668480L127.800000 176.549760
L131.520000 177.431040L135.240000 178.312320L138.960000 179.176320
L142.680000 180.057600L146.400000 180.938880L150.120000 181.802880
L153.840000 182.684160L157.560000 183.565440L161.280000 184.446720
L165.000000 185.310720L168.720000 186.192000L172.440000 187.073280
L176.160000 187.954560L179.880000 188.818560L183.600000 189.699840
L187.320000 190.581120L191.040000 191.445120L194.760000 192.326400
L198.480000 193.207680L202.200000 194.088960L205.920000 194.952960
L209.640000 195.834240L213.360000 196.715520L217.080000 197.579520
L220.800000 216.000000L224.520000 216.000000L228.240000 216.000000
L231.960000 216.000000L235.680000 216.000000L239.400000 216.000000
L243.120000 216.000000L246.840000 216.000000L250.560000 216.000000
L254.280000 216.000000L258.000000 216.000000L261.720000 216.000000
L265.440000 216.000000L269.160000 216.000000L272.880000 216.000000
L276.600000 216.000000L280.320000 216.000000L284.040000 216.000000
L287.760000 216.000000L291.480000 216.000000L295.200000 216.000000
L298.920000 216.000000L302.640000 216.000000L306.360000 216.000000
L310.080000 216.000000L313.800000 216.000000L317.520000 216.000000
L321.240000 216.000000L324.960000 216.000000L328.680000 216.000000
L332.400000 216.000000L336.120000 216.000000L339.840000 216.000000
L343.560000 216.000000L347.280000 216.000000L351.000000 216.000000
L354.720000 216.000000L358.440000 216.000000L362.160000 216.000000
L365.880000 216.000000L369.600000 216.000000L373.320000 233.539200
L377.040000 234.403200L380.760000 235.284480L384.480000 236.165760
L388.200000 237.047040L391.920000 237.911040L395.640000 238.792320
L399.360000 239.673600L403.080000 240.554880L406.800000 241.418880
L410.520000 242.300160L414.240000 243.181440L417.960000 244.045440
L421.680000 244.926720L425.400000 245.808000L429.120000 246.689280
L432.840000 247.553280L436.560000 248.434560L440.280000 249.315840
L444.000000 250.197120L447.720000 251.061120L451.440000 251.942400
L455.160000 252.823680L458.880000 253.704960L462.600000 254.568960
L466.320000 255.450240L470.040000 256.331520L473.760000 257.212800
L477.480000 258.076800"/>
</g>
<g id="line2d5">
<path style="fill: none; stroke: #bf00bf; stroke-width: 1.000000; stroke-linejoin: round; stroke-linecap: square;  opacity: 1.000000" clip-path="url(#p50431ccdcb28178602d99d9270004dde)" d="M109.200000 184.360320L112.920000 184.999680L116.640000 185.621760
L120.360000 186.261120L124.080000 186.900480L127.800000 187.522560
L131.520000 188.161920L135.240000 188.801280L138.960000 189.423360
L142.680000 190.062720L146.400000 190.684800L150.120000 191.324160
L153.840000 191.963520L157.560000 192.585600L161.280000 193.224960
L165.000000 193.847040L168.720000 194.486400L172.440000 195.125760
L176.160000 195.747840L179.880000 196.387200L183.600000 197.009280
L187.320000 197.648640L191.040000 198.288000L194.760000 198.910080
L198.480000 199.549440L202.200000 200.171520L205.920000 200.810880
L209.640000 201.450240L213.360000 202.072320L217.080000 202.711680
L220.800000 216.000000L224.520000 216.000000L228.240000 216.000000
L231.960000 216.000000L235.680000 216.000000L239.400000 216.000000
L243.120000 216.000000L246.840000 216.000000L250.560000 216.000000
L254.280000 216.000000L258.000000 216.000000L261.720000 216.000000
L265.440000 216.000000L269.160000 216.000000L272.880000 216.000000
L276.600000 216.000000L280.320000 216.000000L284.040000 216.000000
L287.760000 216.000000L291.480000 216.000000L295.200000 216.000000
L298.920000 216.000000L302.640000 216.000000L306.360000 216.000000
L310.080000 216.000000L313.800000 216.000000L317.520000 216.000000
L321.240000 216.000000L324.960000 216.000000L328.680000 216.000000
L332.400000 216.000000L336.120000 216.000000L339.840000 216.000000
L343.560000 216.000000L347.280000 216.000000L351.000000 216.000000
L354.720000 216.000000L358.440000 216.000000L362.160000 216.000000
L365.880000 216.000000L369.600000 216.000000L373.320000 228.648960
L377.040000 229.288320L380.760000 229.927680L384.480000 230.549760
L388.200000 231.189120L391.920000 231.828480L395.640000 232.450560
L399.360000 233.089920L403.080000 233.712000L406.800000 234.351360
L410.520000 234.973440L414.240000 235.612800L417.960000 236.252160
L421.680000 236.874240L425.400000 237.513600L429.120000 238.152960
L432.840000 238.775040L436.560000 239.414400L440.280000 240.036480
L444.000000 240.675840L447.720000 241.315200L451.440000 241.937280
L455.160000 242.576640L458.880000 243.216000L462.600000 243.838080
L466.320000 244.477440L470.040000 245.099520L473.760000 245.738880
L477.480000 246.378240"/>
</g>
<g id="line2d6">
<path style="fill: none; stroke: #bfbf00; stroke-width: 1.000000; stroke-linejoin: round; stroke-linecap: square;  opacity: 1.000000" clip-path="url(#p50431ccdcb28178602d99d9270004dde)" d="M109.200000 192.965760L112.920000 193.432320L116.640000 193.881600
L120.360000 194.348160L124.080000 194.814720L127.800000 195.264000
L131.520000 195.730560L135.240000 196.197120L138.960000 196.646400
L142.680000 197.112960L146.400000 197.579520L150.120000 198.028800
L153.840000 198.495360L157.560000 198.961920L161.280000 199.411200
L165.000000 199.877760L168.720000 200.327040L172.440000 200.793600
L176.160000 201.260160L179.880000 201.726720L183.600000 202.176000
L187.320000 202.642560L191.040000 203.109120L194.760000 203.558400
L198.480000 204.024960L202.200000 204.491520L205.920000 204.940800
L209.640000 205.407360L213.360000 205.873920L217.080000 206.323200
L220.800000 216.000000L224.520000 216.000000L228.240000 216.000000
L231.960000 216.000000L235.680000 216.000000L239.400000 216.000000
L243.120000 216.000000L246.840000 216.000000L250.560000 216.000000
L254.280000 216.000000L258.000000 216.000000L261.720000 216.000000
L265.440000 216.000000L269.160000 216.000000L272.880000 216.000000
L276.600000 216.000000L280.320000 216.000000L284.040000 216.000000
L287.760000 216.000000L291.480000 216.000000L295.200000 216.000000
L298.920000 216.000000L302.640000 216.000000L306.360000 216.000000
L310.080000 216.000000L313.800000 216.000000L317.520000 216.000000
L321.240000 216.000000L324.960000 216.000000L328.680000 216.000000
L332.400000 216.000000L336.120000 216.000000L339.840000 216.000000
L343.560000 216.000000L347.280000 216.000000L351.000000 216.000000
L354.720000 216.000000L358.440000 216.000000L362.160000 216.000000
L365.880000 216.000000L369.600000 216.000000L373.320000 225.227520
L377.040000 225.676800L380.760000 226.143360L384.480000 226.609920
L388.200000 227.059200L391.920000 227.525760L395.640000 227.992320
L399.360000 228.441600L403.080000 228.908160L406.800000 229.357440
L410.520000 229.824000L414.240000 230.290560L417.960000 230.757120
L421.680000 231.206400L425.400000 231.672960L429.120000 232.122240
L432.840000 232.588800L436.560000 233.055360L440.280000 233.521920
L444.000000 233.971200L447.720000 234.437760L451.440000 234.904320
L455.160000 235.353600L458.880000 235.820160L462.600000 236.269440
L466.320000 236.736000L470.040000 237.202560L473.760000 237.669120
L477.480000 238.118400"/>
</g>
<g id="line2d7">
<path style="fill: none; stroke: #000000; stroke-width: 1.000000; stroke-linejoin: round; stroke-linecap: square;  opacity: 1.000000" clip-path="url(#p50431ccdcb28178602d99d9270004dde)" d="M109.200000 207.221760L112.920000 207.394560L116.640000 207.567360
L120.360000 207.740160L124.080000 207.930240L127.800000 208.103040
L131.520000 208.275840L135.240000 208.448640L138.960000 208.621440
L142.680000 208.794240L146.400000 208.984320L150.120000 209.157120
L153.840000 209.329920L157.560000 209.502720L161.280000 209.675520
L165.000000 209.865600L168.720000 210.038400L172.440000 210.211200
L176.160000 210.384000L179.880000 210.556800L183.600000 210.729600
L187.320000 210.919680L191.040000 211.092480L194.760000 211.265280
L198.480000 211.438080L202.200000 211.610880L205.920000 211.783680
L209.640000 211.973760L213.360000 212.146560L217.080000 212.319360
L220.800000 216.000000L224.520000 216.000000L228.240000 216.000000
L231.960000 216.000000L235.680000 216.000000L239.400000 216.000000
L243.120000 216.000000L246.840000 216.000000L250.560000 216.000000
L254.280000 216.000000L258.000000 216.000000L261.720000 216.000000
L265.440000 216.000000L269.160000 216.000000L272.880000 216.000000
L276.600000 216.000000L280.320000 216.000000L284.040000 216.000000
L287.760000 216.000000L291.480000 216.000000L295.200000 216.000000
L298.920000 216.000000L302.640000 216.000000L306.360000 216.000000
L310.080000 216.000000L313.800000 216.000000L317.520000 216.000000
L321.240000 216.000000L324.960000 216.000000L328.680000 216.000000
L332.400000 216.000000L336.120000 216.000000L339.840000 216.000000
L343.560000 216.000000L347.280000 216.000000L351.000000 216.000000
L354.720000 216.000000L358.440000 216.000000L362.160000 216.000000
L365.880000 216.000000L369.600000 216.000000L373.320000 219.525120
L377.040000 219.697920L380.760000 219.870720L384.480000 220.043520
L388.200000 220.233600L391.920000 220.406400L395.640000 220.579200
L399.360000 220.752000L403.080000 220.924800L406.800000 221.097600
L410.520000 221.287680L414.240000 221.460480L417.960000 221.633280
L421.680000 221.806080L425.400000 221.978880L429.120000 222.151680
L432.840000 222.341760L436.560000 222.514560L440.280000 222.687360
L444.000000 222.860160L447.720000 223.032960L451.440000 223.205760
L455.160000 223.395840L458.880000 223.568640L462.600000 223.741440
L466.320000 223.914240L470.040000 224.087040L473.760000 224.277120
L477.480000 224.449920"/>
</g>
<g id="line2d8">
<path style="fill: none; stroke: #0000ff; stroke-width: 1.000000; stroke-linejoin: round; stroke-linecap: square;  opacity: 1.000000" clip-path="url(#p50431ccdcb28178602d99d9270004dde)" d="M109.200000 207.221760L112.920000 207.394560L116.640000 207.567360
L120.360000 207.740160L124.080000 207.912960L127.800000 208.103040
L131.520000 208.275840L135.240000 208.448640L138.960000 208.621440
L142.680000 208.794240L146.400000 208.967040L150.120000 209.157120
L153.840000 209.329920L157.560000 209.502720L161.280000 209.675520
L165.000000 209.848320L168.720000 210.021120L172.440000 210.193920
L176.160000 210.384000L179.880000 210.556800L183.600000 210.729600
L187.320000 210.902400L191.040000 211.075200L194.760000 211.248000
L198.480000 211.438080L202.200000 211.610880L205.920000 211.783680
L209.640000 211.956480L213.360000 212.129280L217.080000 212.302080
L220.800000 216.000000L224.520000 216.000000L228.240000 216.000000
L231.960000 216.000000L235.680000 216.000000L239.400000 216.000000
L243.120000 216.000000L246.840000 216.000000L250.560000 216.000000
L254.280000 216.000000L258.000000 216.000000L261.720000 216.000000
L265.440000 216.000000L269.160000 216.000000L272.880000 216.000000
L276.600000 216.000000L280.320000 216.000000L284.040000 216.000000
L287.760000 216.000000L291.480000 216.000000L295.200000 216.000000
L298.920000 216.000000L302.640000 216.000000L306.360000 216.000000
L310.080000 216.000000L313.800000 216.000000L317.520000 216.000000
L321.240000 216.000000L324.960000 216.000000L328.680000 216.000000
L332.400000 216.000000L336.120000 216.000000L339.840000 216.000000
L343.560000 216.000000L347.280000 216.000000L351.000000 216.000000
L354.720000 216.000000L358.440000 216.000000L362.160000 216.000000
L365.880000 216.000000L369.600000 216.000000L373.320000 219.507840
L377.040000 219.680640L380.760000 219.853440L384.480000 220.026240
L388.200000 220.216320L391.920000 220.389120L395.640000 220.561920
L399.360000 220.734720L403.080000 220.907520L406.800000 221.080320
L410.520000 221.270400L414.240000 221.443200L417.960000 221.616000
L421.680000 221.788800L425.400000 221.961600L429.120000 222.134400
L432.840000 222.324480L436.560000 222.497280L440.280000 222.670080
L444.000000 222.842880L447.720000 223.015680L451.440000 223.188480
L455.160000 223.378560L458.880000 223.551360L462.600000 223.724160
L466.320000 223.896960L470.040000 224.069760L473.760000 224.242560
L477.480000 224.432640"/>
</g>
<g id="matplotlib.axis1">
<g id="xtick1">
<g id="line2d9">
<path style="fill: none; stroke: #000000; stroke-width: 0.500000; stroke-linejoin: round; stroke-linecap: butt; stroke-dasharray: 1.000000,3.000000; stroke-dashoffset: 0.000000; opacity: 1.000000" clip-path="url(#p50431ccdcb28178602d99d9270004dde)" d="M72.000000 388.800000L72.000000 43.200000"/>
</g>
<g id="line2d10">
<defs><path id="m30e32995789d870ad79a2e54c91cf9c6" d="M0.000000 0.000000L0.000000 -4.000000"/></defs>
<g ><use style="fill: none; stroke: #000000; stroke-width: 0.500000; stroke-linejoin: round; stroke-linecap: butt;  opacity: 1.000000" xlink:href="#m30e32995789d870ad79a2e54c91cf9c6" x="72.000000" y="388.800000"/>
</g></g>
<g id="line2d11">
<defs><path id="m9281cae24120827b11d5ea8a7ad3e96b" d="M0.000000 0.000000L0.000000 4.000000"/></defs>
<g ><use style="fill: none; stroke: #000000; stroke-width: 0.500000; stroke-linejoin: round; stroke-linecap: butt;  opacity: 1.000000" xlink:href="#m9281cae24120827b11d5ea8a7ad3e96b" x="72.000000" y="43.200000"/>
</g></g>
<g id="text1">
<defs>
<path id="c_6a8d56c819c37117ab4cf023bec22a5a" d="M10.593750 -35.500000l62.593750 0.000000l0.000000 8.296875l-62.593750 0.000000z"/>
<path id="c_7a2040fe3b94fcd41d0a72c84e93b115" d="M31.781250 -66.406250q-7.609375 0.000000 -11.453125 7.500000q-3.828125 7.484375 -3.828125 22.531250q0.000000 14.984375 3.828125 22.484375q3.843750 7.500000 11.453125 7.500000q7.671875 0.000000 11.500000 -7.500000q3.843750 -7.500000 3.843750 -22.484375q0.000000 -15.046875 -3.843750 -22.531250q-3.828125 -7.500000 -11.500000 -7.500000M31.781250 -74.218750q12.265625 0.000000 18.734375 9.703125q6.468750 9.687500 6.468750 28.140625q0.000000 18.406250 -6.468750 28.109375q-6.468750 9.687500 -18.734375 9.687500q-12.250000 0.000000 -18.718750 -9.687500q-6.468750 -9.703125 -6.468750 -28.109375q0.000000 -18.453125 6.468750 -28.140625q6.468750 -9.703125 18.718750 -9.703125"/>
<path id="c_ed3e21196fb739f392806f09ca0594ef" d="M10.687500 -12.406250l10.312500 0.000000l0.000000 12.406250l-10.312500 0.000000z"/>
<path id="c_cc8d6d580d1b10c8632f7a42cd53db8a" d="M33.015625 -40.375000q-6.640625 0.000000 -10.531250 4.546875q-3.875000 4.531250 -3.875000 12.437500q0.000000 7.859375 3.875000 12.437500q3.890625 4.562500 10.531250 4.562500q6.640625 0.000000 10.515625 -4.562500q3.875000 -4.578125 3.875000 -12.437500q0.000000 -7.906250 -3.875000 -12.437500q-3.875000 -4.546875 -10.515625 -4.546875M52.593750 -71.296875l0.000000 8.984375q-3.718750 -1.750000 -7.500000 -2.671875q-3.781250 -0.937500 -7.500000 -0.937500q-9.765625 0.000000 -14.921875 6.593750q-5.140625 6.593750 -5.875000 19.921875q2.875000 -4.250000 7.218750 -6.515625q4.359375 -2.265625 9.578125 -2.265625q10.984375 0.000000 17.359375 6.671875q6.375000 6.656250 6.375000 18.125000q0.000000 11.234375 -6.640625 18.031250q-6.640625 6.781250 -17.671875 6.781250q-12.656250 0.000000 -19.343750 -9.687500q-6.687500 -9.703125 -6.687500 -28.109375q0.000000 -17.281250 8.203125 -27.562500q8.203125 -10.281250 22.015625 -10.281250q3.718750 0.000000 7.500000 0.734375q3.781250 0.734375 7.890625 2.187500"/>
</defs>
<g style="fill: #000000; opacity: 1.000000" transform="translate(58.437500,401.706250)scale(0.120000)">
<use xlink:href="#c_6a8d56c819c37117ab4cf023bec22a5a"/>
<use xlink:href="#c_7a2040fe3b94fcd41d0a72c84e93b115" x="83.789062"/>
<use xlink:href="#c_ed3e21196fb739f392806f09ca0594ef" x="147.412109"/>
<use xlink:href="#c_cc8d6d580d1b10c8632f7a42cd53db8a" x="179.199219"/>
</g>
</g>
</g>
<g id="xtick2">
<g id="line2d12">
<path style="fill: none; stroke: #000000; stroke-width: 0.500000; stroke-linejoin: round; stroke-linecap: butt; stroke-dasharray: 1.000000,3.000000; stroke-dashoffset: 0.000000; opacity: 1.000000" clip-path="url(#p50431ccdcb28178602d99d9270004dde)" d="M146.400000 388.800000L146.400000 43.200000"/>
</g>
<g id="line2d13">
<g ><use style="fill: none; stroke: #000000; stroke-width: 0.500000; stroke-linejoin: round; stroke-linecap: butt;  opacity: 1.000000" xlink:href="#m30e32995789d870ad79a2e54c91cf9c6" x="146.400000" y="388.800000"/>
</g></g>
<g id="line2d14">
<g ><use style="fill: none; stroke: #000000; stroke-width: 0.500000; stroke-linejoin: round; stroke-linecap: butt;  opacity: 1.000000" xlink:href="#m9281cae24120827b11d5ea8a7ad3e96b" x="146.400000" y="43.200000"/>
</g></g>
<g id="text2">
<defs>
<path id="c_a0416418d96557a09b8c1332d34883ba" d="M37.796875 -64.312500l-24.906250 38.921875l24.906250 0.000000zM35.203125 -72.906250l12.406250 0.000000l0.000000 47.515625l10.406250 0.000000l0.000000 8.203125l-10.406250 0.000000l0.000000 17.187500l-9.812500 0.000000l0.000000 -17.187500l-32.906250 0.000000l0.000000 -9.515625z"/>
</defs>
<g style="fill: #000000; opacity: 1.000000" transform="translate(132.790625,401.706250)scale(0.120000)">
<use xlink:href="#c_6a8d56c819c37117ab4cf023bec22a5a"/>
<use xlink:href="#c_7a2040fe3b94fcd41d0a72c84e93b115" x="83.789062"/>
<use xlink:href="#c_ed3e21196fb739f392806f09ca0594ef" x="147.412109"/>
<use xlink:href="#c_a0416418d96557a09b8c1332d34883ba" x="179.199219"/>
</g>
</g>
</g>
<g id="xtick3">
<g id="line2d15">
<path style="fill: none; stroke: #000000; stroke-width: 0.500000; stroke-linejoin: round; stroke-linecap: butt; stroke-dasharray: 1.000000,3.000000; stroke-dashoffset: 0.000000; opacity: 1.000000" clip-path="url(#p50431ccdcb28178602d99d9270004dde)" d="M220.800000 388.800000L220.800000 43.200000"/>
</g>
<g id="line2d16">
<g ><use style="fill: none; stroke: #000000; stroke-width: 0.500000; stroke-linejoin: round; stroke-linecap: butt;  opacity: 1.000000" xlink:href="#m30e32995789d870ad79a2e54c91cf9c6" x="220.800000" y="388.800000"/>
</g></g>
<g id="line2d17">
<g ><use style="fill: none; stroke: #000000; stroke-width: 0.500000; stroke-linejoin: round; stroke-linecap: butt;  opacity: 1.000000" xlink:href="#m9281cae24120827b11d5ea8a7ad3e96b" x="220.800000" y="43.200000"/>
</g></g>
<g id="text3">
<defs>
<path id="c_ed3f3ed3ebfbd18bcb9c012009a68ad1" d="M19.187500 -8.296875l34.421875 0.000000l0.000000 8.296875l-46.281250 0.000000l0.000000 -8.296875q5.609375 -5.812500 15.296875 -15.593750q9.703125 -9.796875 12.187500 -12.640625q4.734375 -5.312500 6.609375 -9.000000q1.890625 -3.687500 1.890625 -7.250000q0.000000 -5.812500 -4.078125 -9.468750q-4.078125 -3.671875 -10.625000 -3.671875q-4.640625 0.000000 -9.796875 1.609375q-5.140625 1.609375 -11.000000 4.890625l0.000000 -9.968750q5.953125 -2.390625 11.125000 -3.609375q5.187500 -1.218750 9.484375 -1.218750q11.328125 0.000000 18.062500 5.671875q6.734375 5.656250 6.734375 15.125000q0.000000 4.500000 -1.687500 8.531250q-1.671875 4.015625 -6.125000 9.484375q-1.218750 1.421875 -7.765625 8.187500q-6.531250 6.765625 -18.453125 18.921875"/>
</defs>
<g style="fill: #000000; opacity: 1.000000" transform="translate(207.456250,401.706250)scale(0.120000)">
<use xlink:href="#c_6a8d56c819c37117ab4cf023bec22a5a"/>
<use xlink:href="#c_7a2040fe3b94fcd41d0a72c84e93b115" x="83.789062"/>
<use xlink:href="#c_ed3e21196fb739f392806f09ca0594ef" x="147.412109"/>
<use xlink:href="#c_ed3f3ed3ebfbd18bcb9c012009a68ad1" x="179.199219"/>
</g>
</g>
</g>
<g id="xtick4">
<g id="line2d18">
<path style="fill: none; stroke: #000000; stroke-width: 0.500000; stroke-linejoin: round; stroke-linecap: butt; stroke-dasharray: 1.000000,3.000000; stroke-dashoffset: 0.000000; opacity: 1.000000" clip-path="url(#p50431ccdcb28178602d99d9270004dde)" d="M295.200000 388.800000L295.200000 43.200000"/>
</g>
<g id="line2d19">
<g ><use style="fill: none; stroke: #000000; stroke-width: 0.500000; stroke-linejoin: round; stroke-linecap: butt;  opacity: 1.000000" xlink:href="#m30e32995789d870ad79a2e54c91cf9c6" x="295.200000" y="388.800000"/>
</g></g>
<g id="line2d20">
<g ><use style="fill: none; stroke: #000000; stroke-width: 0.500000; stroke-linejoin: round; stroke-linecap: butt;  opacity: 1.000000" xlink:href="#m9281cae24120827b11d5ea8a7ad3e96b" x="295.200000" y="43.200000"/>
</g></g>
<g id="text4">
<g style="fill: #000000; opacity: 1.000000" transform="translate(286.450000,401.706250)scale(0.120000)">
<use xlink:href="#c_7a2040fe3b94fcd41d0a72c84e93b115"/>
<use xlink:href="#c_ed3e21196fb739f392806f09ca0594ef" x="63.623047"/>
<use xlink:href="#c_7a2040fe3b94fcd41d0a72c84e93b115" x="95.410156"/>
</g>
</g>
</g>
<g id="xtick5">
<g id="line2d21">
<path style="fill: none; stroke: #000000; stroke-width: 0.500000; stroke-linejoin: round; stroke-linecap: butt; stroke-dasharray: 1.000000,3.000000; stroke-dashoffset: 0.000000; opacity: 1.000000" clip-path="url(#p50431ccdcb28178602d99d9270004dde)" d="M369.600000 388.800000L369.600000 43.200000"/>
</g>
<g id="line2d22">
<g ><use style="fill: none; stroke: #000000; stroke-width: 0.500000; stroke-linejoin: round; stroke-linecap: butt;  opacity: 1.000000" xlink:href="#m30e32995789d870ad79a2e54c91cf9c6" x="369.600000" y="388.800000"/>
</g></g>
<g id="line2d23">
<g ><use style="fill: none; stroke: #000000; stroke-width: 0.500000; stroke-linejoin: round; stroke-linecap: butt;  opacity: 1.000000" xlink:href="#m9281cae24120827b11d5ea8a7ad3e96b" x="369.600000" y="43.200000"/>
</g></g>
<g id="text5">
<g style="fill: #000000; opacity: 1.000000" transform="translate(361.053125,401.706250)scale(0.120000)">
<use xlink:href="#c_7a2040fe3b94fcd41d0a72c84e93b115"/>
<use xlink:href="#c_ed3e21196fb739f392806f09ca0594ef" x="63.623047"/>
<use xlink:href="#c_ed3f3ed3ebfbd18bcb9c012009a68ad1" x="95.410156"/>
</g>
</g>
</g>
<g id="xtick6">
<g id="line2d24">
<path style="fill: none; stroke: #000000; stroke-width: 0.500000; stroke-linejoin: round; stroke-linecap: butt; stroke-dasharray: 1.000000,3.000000; stroke-dashoffset: 0.000000; opacity: 1.000000" clip-path="url(#p50431ccdcb28178602d99d9270004dde)" d="M444.000000 388.800000L444.000000 43.200000"/>
</g>
<g id="line2d25">
<g ><use style="fill: none; stroke: #000000; stroke-width: 0.500000; stroke-linejoin: round; stroke-linecap: butt;  opacity: 1.000000" xlink:href="#m30e32995789d870ad79a2e54c91cf9c6" x="444.000000" y="388.800000"/>
</g></g>
<g id="line2d26">
<g ><use style="fill: none; stroke: #000000; stroke-width: 0.500000; stroke-linejoin: round; stroke-linecap: butt;  opacity: 1.000000" xlink:href="#m9281cae24120827b11d5ea8a7ad3e96b" x="444.000000" y="43.200000"/>
</g></g>
<g id="text6">
<g style="fill: #000000; opacity: 1.000000" transform="translate(435.187500,401.706250)scale(0.120000)">
<use xlink:href="#c_7a2040fe3b94fcd41d0a72c84e93b115"/>
<use xlink:href="#c_ed3e21196fb739f392806f09ca0594ef" x="63.623047"/>
<use xlink:href="#c_a0416418d96557a09b8c1332d34883ba" x="95.410156"/>
</g>
</g>
</g>
<g id="xtick7">
<g id="line2d27">
<path style="fill: none; stroke: #000000; stroke-width: 0.500000; stroke-linejoin: round; stroke-linecap: butt; stroke-dasharray: 1.000000,3.000000; stroke-dashoffset: 0.000000; opacity: 1.000000" clip-path="url(#p50431ccdcb28178602d99d9270004dde)" d="M518.400000 388.800000L518.400000 43.200000"/>
</g>
<g id="line2d28">
<g ><use style="fill: none; stroke: #000000; stroke-width: 0.500000; stroke-linejoin: round; stroke-linecap: butt;  opacity: 1.000000" xlink:href="#m30e32995789d870ad79a2e54c91cf9c6" x="518.400000" y="388.800000"/>
</g></g>
<g id="line2d29">
<g ><use style="fill: none; stroke: #000000; stroke-width: 0.500000; stroke-linejoin: round; stroke-linecap: butt;  opacity: 1.000000" xlink:href="#m9281cae24120827b11d5ea8a7ad3e96b" x="518.400000" y="43.200000"/>
</g></g>
<g id="text7">
<g style="fill: #000000; opacity: 1.000000" transform="translate(509.634375,401.706250)scale(0.120000)">
<use xlink:href="#c_7a2040fe3b94fcd41d0a72c84e93b115"/>
<use xlink:href="#c_ed3e21196fb739f392806f09ca0594ef" x="63.623047"/>
<use xlink:href="#c_cc8d6d580d1b10c8632f7a42cd53db8a" x="95.410156"/>
</g>
</g>
</g>
<g id="xtick8">
<g id="line2d30">
<path style="fill: none; stroke: #000000; stroke-width: 0.500000; stroke-linejoin: round; stroke-linecap: butt; stroke-dasharray: 1.000000,3.000000; stroke-dashoffset: 0.000000; opacity: 1.000000" clip-path="url(#p50431ccdcb28178602d99d9270004dde)" d="M90.600000 388.800000L90.600000 43.200000"/>
</g>
<g id="line2d31">
<defs><path id="m3b2d125790092c17af877e29e2858cbc" d="M0.000000 0.000000L0.000000 -2.000000"/></defs>
<g ><use style="fill: none; stroke: #000000; stroke-width: 0.500000; stroke-linejoin: round; stroke-linecap: butt;  opacity: 1.000000" xlink:href="#m3b2d125790092c17af877e29e2858cbc" x="90.600000" y="388.800000"/>
</g></g>
<g id="line2d32">
<defs><path id="ma703e823af2458ee1159643fa9e31d3d" d="M0.000000 0.000000L0.000000 2.000000"/></defs>
<g ><use style="fill: none; stroke: #000000; stroke-width: 0.500000; stroke-linejoin: round; stroke-linecap: butt;  opacity: 1.000000" xlink:href="#ma703e823af2458ee1159643fa9e31d3d" x="90.600000" y="43.200000"/>
</g></g>
</g>
<g id="xtick9">
<g id="line2d33">
<path style="fill: none; stroke: #000000; stroke-width: 0.500000; stroke-linejoin: round; stroke-linecap: butt; stroke-dasharray: 1.000000,3.000000; stroke-dashoffset: 0.000000; opacity: 1.000000" clip-path="url(#p50431ccdcb28178602d99d9270004dde)" d="M109.200000 388.800000L109.200000 43.200000"/>
</g>
<g id="line2d34">
<g ><use style="fill: none; stroke: #000000; stroke-width: 0.500000; stroke-linejoin: round; stroke-linecap: butt;  opacity: 1.000000" xlink:href="#m3b2d125790092c17af877e29e2858cbc" x="109.200000" y="388.800000"/>
</g></g>
<g id="line2d35">
<g ><use style="fill: none; stroke: #000000; stroke-width: 0.500000; stroke-linejoin: round; stroke-linecap: butt;  opacity: 1.000000" xlink:href="#ma703e823af2458ee1159643fa9e31d3d" x="109.200000" y="43.200000"/>
</g></g>
</g>
<g id="xtick10">
<g id="line2d36">
<path style="fill: none; stroke: #000000; stroke-width: 0.500000; stroke-linejoin: round; stroke-linecap: butt; stroke-dasharray: 1.000000,3.000000; stroke-dashoffset: 0.000000; opacity: 1.000000" clip-path="url(#p50431ccdcb28178602d99d9270004dde)" d="M127.800000 388.800000L127.800000 43.200000"/>
</g>
<g id="line2d37">
<g ><use style="fill: none; stroke: #000000; stroke-width: 0.500000; stroke-linejoin: round; stroke-linecap: butt;  opacity: 1.000000" xlink:href="#m3b2d125790092c17af877e29e2858cbc" x="127.800000" y="388.800000"/>
</g></g>
<g id="line2d38">
<g ><use style="fill: none; stroke: #000000; stroke-width: 0.500000; stroke-linejoin: round; stroke-linecap: butt;  opacity: 1.000000" xlink:href="#ma703e823af2458ee1159643fa9e31d3d" x="127.800000" y="43.200000"/>
</g></g>
</g>
<g id="xtick11">
<g id="line2d39">
<path style="fill: none; stroke: #000000; stroke-width: 0.500000; stroke-linejoin: round; stroke-linecap: butt; stroke-dasharray: 1.000000,3.000000; stroke-dashoffset: 0.000000; opacity: 1.000000" clip-path="url(#p50431ccdcb28178602d99d9270004dde)" d="M165.000000 388.800000L165.000000 43.200000"/>
</g>
<g id="line2d40">
<g ><use style="fill: none; stroke: #000000; stroke-width: 0.500000; stroke-linejoin: round; stroke-linecap: butt;  opacity: 1.000000" xlink:href="#m3b2d125790092c17af877e29e2858cbc" x="165.000000" y="388.800000"/>
</g></g>
<g id="line2d41">
<g ><use style="fill: none; stroke: #000000; stroke-width: 0.500000; stroke-linejoin: round; stroke-linecap: butt;  opacity: 1.000000" xlink:href="#ma703e823af2458ee1159643fa9e31d3d" x="165.000000" y="43.200000"/>
</g></g>
</g>
<g id="xtick12">
<g id="line2d42">
<path style="fill: none; stroke: #000000; stroke-width: 0.500000; stroke-linejoin: round; stroke-linecap: butt; stroke-dasharray: 1.000000,3.000000; stroke-dashoffset: 0.000000; opacity: 1.000000" clip-path="url(#p50431ccdcb28178602d99d9270004dde)" d="M183.600000 388.800000L183.600000 43.200000"/>
</g>
<g id="line2d43">
<g ><use style="fill: none; stroke: #000000; stroke-width: 0.500000; stroke-linejoin: round; stroke-linecap: butt;  opacity: 1.000000" xlink:href="#m3b2d125790092c17af877e29e2858cbc" x="183.600000" y="388.800000"/>
</g></g>
<g id="line2d44">
<g ><use style="fill: none; stroke: #000000; stroke-width: 0.500000; stroke-linejoin: round; stroke-linecap: butt;  opacity: 1.000000" xlink:href="#ma703e823af2458ee1159643fa9e31d3d" x="183.600000" y="43.200000"/>
</g></g>
</g>
<g id="xtick13">
<g id="line2d45">
<path style="fill: none; stroke: #000000; stroke-width: 0.500000; stroke-linejoin: round; stroke-linecap: butt; stroke-dasharray: 1.000000,3.000000; stroke-dashoffset: 0.000000; opacity: 1.000000" clip-path="url(#p50431ccdcb28178602d99d9270004dde)" d="M202.200000 388.800000L202.200000 43.200000"/>
</g>
<g id="line2d46">
<g ><use style="fill: none; stroke: #000000; stroke-width: 0.500000; stroke-linejoin: round; stroke-linecap: butt;  opacity: 1.000000" xlink:href="#m3b2d125790092c17af877e29e2858cbc" x="202.200000" y="388.800000"/>
</g></g>
<g id="line2d47">
<g ><use style="fill: none; stroke: #000000; stroke-width: 0.500000; stroke-linejoin: round; stroke-linecap: butt;  opacity: 1.000000" xlink:href="#ma703e823af2458ee1159643fa9e31d3d" x="202.200000" y="43.200000"/>
</g></g>
</g>
<g id="xtick14">
<g id="line2d48">
<path style="fill: none; stroke: #000000; stroke-width: 0.500000; stroke-linejoin: round; stroke-linecap: butt; stroke-dasharray: 1.000000,3.000000; stroke-dashoffset: 0.000000; opacity: 1.000000" clip-path="url(#p50431ccdcb28178602d99d9270004dde)" d="M239.400000 388.800000L239.400000 43.200000"/>
</g>
<g id="line2d49">
<g ><use style="fill: none; stroke: #000000; stroke-width: 0.500000; stroke-linejoin: round; stroke-linecap: butt;  opacity: 1.000000" xlink:href="#m3b2d125790092c17af877e29e2858cbc" x="239.400000" y="388.800000"/>
</g></g>
<g id="line2d50">
<g ><use style="fill: none; stroke: #000000; stroke-width: 0.500000; stroke-linejoin: round; stroke-linecap: butt;  opacity: 1.000000" xlink:href="#ma703e823af2458ee1159643fa9e31d3d" x="239.400000" y="43.200000"/>
</g></g>
</g>
<g id="xtick15">
<g id="line2d51">
<path style="fill: none; stroke: #000000; stroke-width: 0.500000; stroke-linejoin: round; stroke-linecap: butt; stroke-dasharray: 1.000000,3.000000; stroke-dashoffset: 0.000000; opacity: 1.000000" clip-path="url(#p50431ccdcb28178602d99d9270004dde)" d="M258.000000 388.800000L258.000000 43.200000"/>
</g>
<g id="line2d52">
<g ><use style="fill: none; stroke: #000000; stroke-width: 0.500000; stroke-linejoin: round; stroke-linecap: butt;  opacity: 1.000000" xlink:href="#m3b2d125790092c17af877e29e2858cbc" x="258.000000" y="388.800000"/>
</g></g>
<g id="line2d53">
<g ><use style="fill: none; stroke: #000000; stroke-width: 0.500000; stroke-linejoin: round; stroke-linecap: butt;  opacity: 1.000000" xlink:href="#ma703e823af2458ee1159643fa9e31d3d" x="258.000000" y="43.200000"/>
</g></g>
</g>
<g id="xtick16">
<g id="line2d54">
<path style="fill: none; stroke: #000000; stroke-width: 0.500000; stroke-linejoin: round; stroke-linecap: butt; stroke-dasharray: 1.000000,3.000000; stroke-dashoffset: 0.000000; opacity: 1.000000" clip-path="url(#p50431ccdcb28178602d99d9270004dde)" d="M276.600000 388.800000L276.600000 43.200000"/>
</g>
<g id="line2d55">
<g ><use style="fill: none; stroke: #000000; stroke-width: 0.500000; stroke-linejoin: round; stroke-linecap: butt;  opacity: 1.000000" xlink:href="#m3b2d125790092c17af877e29e2858cbc" x="276.600000" y="388.800000"/>
</g></g>
<g id="line2d56">
<g ><use style="fill: none; stroke: #000000; stroke-width: 0.500000; stroke-linejoin: round; stroke-linecap: butt;  opacity: 1.000000" xlink:href="#ma703e823af2458ee1159643fa9e31d3d" x="276.600000" y="43.200000"/>
</g></g>
</g>
<g id="xtick17">
<g id="line2d57">
<path style="fill: none; stroke: #000000; stroke-width: 0.500000; stroke-linejoin: round; stroke-linecap: butt; stroke-dasharray: 1.000000,3.000000; stroke-dashoffset: 0.000000; opacity: 1.000000" clip-path="url(#p50431ccdcb28178602d99d9270004dde)" d="M313.800000 388.800000L313.800000 43.200000"/>
</g>
<g id="line2d58">
<g ><use style="fill: none; stroke: #000000; stroke-width: 0.500000; stroke-linejoin: round; stroke-linecap: butt;  opacity: 1.000000" xlink:href="#m3b2d125790092c17af877e29e2858cbc" x="313.800000" y="388.800000"/>
</g></g>
<g id="line2d59">
<g ><use style="fill: none; stroke: #000000; stroke-width: 0.500000; stroke-linejoin: round; stroke-linecap: butt;  opacity: 1.000000" xlink:href="#ma703e823af2458ee1159643fa9e31d3d" x="313.800000" y="43.200000"/>
</g></g>
</g>
<g id="xtick18">
<g id="line2d60">
<path style="fill: none; stroke: #000000; stroke-width: 0.500000; stroke-linejoin: round; stroke-linecap: butt; stroke-dasharray: 1.000000,3.000000; stroke-dashoffset: 0.000000; opacity: 1.000000" clip-path="url(#p50431ccdcb28178602d99d9270004dde)" d="M332.400000 388.800000L332.400000 43.200000"/>
</g>
<g id="line2d61">
<g ><use style="fill: none; stroke: #000000; stroke-width: 0.500000; stroke-linejoin: round; stroke-linecap: butt;  opacity: 1.000000" xlink:href="#m3b2d125790092c17af877e29e2858cbc" x="332.400000" y="388.800000"/>
</g></g>
<g id="line2d62">
<g ><use style="fill: none; stroke: #000000; stroke-width: 0.500000; stroke-linejoin: round; stroke-linecap: butt;  opacity: 1.000000" xlink:href="#ma703e823af2458ee1159643fa9e31d3d" x="332.400000" y="43.200000"/>
</g></g>
</g>
<g id="xtick19">
<g id="line2d63">
<path style="fill: none; stroke: #000000; stroke-width: 0.500000; stroke-linejoin: round; stroke-linecap: butt; stroke-dasharray: 1.000000,3.000000; stroke-dashoffset: 0.000000; opacity: 1.000000" clip-path="url(#p50431ccdcb28178602d99d9270004dde)" d="M351.000000 388.800000L351.000000 43.200000"/>
</g>
<g id="line2d64">
<g ><use style="fill: none; stroke: #000000; stroke-width: 0.500000; stroke-linejoin: round; stroke-linecap: butt;  opacity: 1.000000" xlink:href="#m3b2d125790092c17af877e29e2858cbc" x="351.000000" y="388.800000"/>
</g></g>
<g id="line2d65">
<g ><use style="fill: none; stroke: #000000; stroke-width: 0.500000; stroke-linejoin: round; stroke-linecap: butt;  opacity: 1.000000" xlink:href="#ma703e823af2458ee1159643fa9e31d3d" x="351.000000" y="43.200000"/>
</g></g>
</g>
<g id="xtick20">
<g id="line2d66">
<path style="fill: none; stroke: #000000; stroke-width: 0.500000; stroke-linejoin: round; stroke-linecap: butt; stroke-dasharray: 1.000000,3.000000; stroke-dashoffset: 0.000000; opacity: 1.000000" clip-path="url(#p50431ccdcb28178602d99d9270004dde)" d="M388.200000 388.800000L388.200000 43.200000"/>
</g>
<g id="line2d67">
<g ><use style="fill: none; stroke: #000000; stroke-width: 0.500000; stroke-linejoin: round; stroke-linecap: butt;  opacity: 1.000000" xlink:href="#m3b2d125790092c17af877e29e2858cbc" x="388.200000" y="388.800000"/>
</g></g>
<g id="line2d68">
<g ><use style="fill: none; stroke: #000000; stroke-width: 0.500000; stroke-linejoin: round; stroke-linecap: butt;  opacity: 1.000000" xlink:href="#ma703e823af2458ee1159643fa9e31d3d" x="388.200000" y="43.200000"/>
</g></g>
</g>
<g id="xtick21">
<g id="line2d69">
<path style="fill: none; stroke: #000000; stroke-width: 0.500000; stroke-linejoin: round; stroke-linecap: butt; stroke-dasharray: 1.000000,3.000000; stroke-dashoffset: 0.000000; opacity: 1.000000" clip-path="url(#p50431ccdcb28178602d99d9270004dde)" d="M406.800000 388.800000L406.800000 43.200000"/>
</g>
<g id="line2d70">
<g ><use style="fill: none; stroke: #000000; stroke-width: 0.500000; stroke-linejoin: round; stroke-linecap: butt;  opacity: 1.000000" xlink:href="#m3b2d125790092c17af877e29e2858cbc" x="406.800000" y="388.800000"/>
</g></g>
<g id="line2d71">
<g ><use style="fill: none; stroke: #000000; stroke-width: 0.500000; stroke-linejoin: round; stroke-linecap: butt;  opacity: 1.000000" xlink:href="#ma703e823af2458ee1159643fa9e31d3d" x="406.800000" y="43.200000"/>
</g></g>
</g>
<g id="xtick22">
<g id="line2d72">
<path style="fill: none; stroke: #000000; stroke-width: 0.500000; stroke-linejoin: round; stroke-linecap: butt; stroke-dasharray: 1.000000,3.000000; stroke-dashoffset: 0.000000; opacity: 1.000000" clip-path="url(#p50431ccdcb28178602d99d9270004dde)" d="M425.400000 388.800000L425.400000 43.200000"/>
</g>
<g id="line2d73">
<g ><use style="fill: none; stroke: #000000; stroke-width: 0.500000; stroke-linejoin: round; stroke-linecap: butt;  opacity: 1.000000" xlink:href="#m3b2d125790092c17af877e29e2858cbc" x="425.400000" y="388.800000"/>
</g></g>
<g id="line2d74">
<g ><use style="fill: none; stroke: #000000; stroke-width: 0.500000; stroke-linejoin: round; stroke-linecap: butt;  opacity: 1.000000" xlink:href="#ma703e823af2458ee1159643fa9e31d3d" x="425.400000" y="43.200000"/>
</g></g>
</g>
<g id="xtick23">
<g id="line2d75">
<path style="fill: none; stroke: #000000; stroke-width: 0.500000; stroke-linejoin: round; stroke-linecap: butt; stroke-dasharray: 1.000000,3.000000; stroke-dashoffset: 0.000000; opacity: 1.000000" clip-path="url(#p50431ccdcb28178602d99d9270004dde)" d="M462.600000 388.800000L462.600000 43.200000"/>
</g>
<g id="line2d76">
<g ><use style="fill: none; stroke: #000000; stroke-width: 0.500000; stroke-linejoin: round; stroke-linecap: butt;  opacity: 1.000000" xlink:href="#m3b2d125790092c17af877e29e2858cbc" x="462.600000" y="388.800000"/>
</g></g>
<g id="line2d77">
<g ><use style="fill: none; stroke: #000000; stroke-width: 0.500000; stroke-linejoin: round; stroke-linecap: butt;  opacity: 1.000000" xlink:href="#ma703e823af2458ee1159643fa9e31d3d" x="462.600000" y="43.200000"/>
</g></g>
</g>
<g id="xtick24">
<g id="line2d78">
<path style="fill: none; stroke: #000000; stroke-width: 0.500000; stroke-linejoin: round; stroke-linecap: butt; stroke-dasharray: 1.000000,3.000000; stroke-dashoffset: 0.000000; opacity: 1.000000" clip-path="url(#p50431ccdcb28178602d99d9270004dde)" d="M481.200000 388.800000L481.200000 43.200000"/>
</g>
<g id="line2d79">
<g ><use style="fill: none; stroke: #000000; stroke-width: 0.500000; stroke-linejoin: round; stroke-linecap: butt;  opacity: 1.000000" xlink:href="#m3b2d125790092c17af877e29e2858cbc" x="481.200000" y="388.800000"/>
</g></g>
<g id="line2d80">
<g ><use style="fill: none; stroke: #000000; stroke-width: 0.500000; stroke-linejoin: round; stroke-linecap: butt;  opacity: 1.000000" xlink:href="#ma703e823af2458ee1159643fa9e31d3d" x="481.200000" y="43.200000"/>
</g></g>
</g>
<g id="xtick25">
<g id="line2d81">
<path style="fill: none; stroke: #000000; stroke-width: 0.500000; stroke-linejoin: round; stroke-linecap: butt; stroke-dasharray: 1.000000,3.000000; stroke-dashoffset: 0.000000; opacity: 1.000000" clip-path="url(#p50431ccdcb28178602d99d9270004dde)" d="M499.800000 388.800000L499.800000 43.200000"/>
</g>
<g id="line2d82">
<g ><use style="fill: none; stroke: #000000; stroke-width: 0.500000; stroke-linejoin: round; stroke-linecap: butt;  opacity: 1.000000" xlink:href="#m3b2d125790092c17af877e29e2858cbc" x="499.800000" y="388.800000"/>
</g></g>
<g id="line2d83">
<g ><use style="fill: none; stroke: #000000; stroke-width: 0.500000; stroke-linejoin: round; stroke-linecap: butt;  opacity: 1.000000" xlink:href="#ma703e823af2458ee1159643fa9e31d3d" x="499.800000" y="43.200000"/>
</g></g>
</g>
<g id="text8">
<defs>
<path id="c_3b86f9879deccc43ffac57ae939fe3b7" d="M59.515625 -10.406250l0.000000 -19.578125l-16.109375 0.000000l0.000000 -8.109375l25.875000 0.000000l0.000000 31.312500q-5.703125 4.046875 -12.593750 6.125000q-6.875000 2.078125 -14.687500 2.078125q-17.093750 0.000000 -26.750000 -9.984375q-9.640625 -10.000000 -9.640625 -27.812500q0.000000 -17.875000 9.640625 -27.859375q9.656250 -9.984375 26.750000 -9.984375q7.125000 0.000000 13.546875 1.765625q6.421875 1.750000 11.843750 5.171875l0.000000 10.500000q-5.468750 -4.640625 -11.625000 -6.984375q-6.156250 -2.343750 -12.937500 -2.343750q-13.390625 0.000000 -20.109375 7.468750q-6.703125 7.468750 -6.703125 22.265625q0.000000 14.750000 6.703125 22.218750q6.718750 7.468750 20.109375 7.468750q5.218750 0.000000 9.312500 -0.906250q4.109375 -0.906250 7.375000 -2.812500"/>
<path id="c_01d93a582460e35a7945ca50d148ffeb" d="M34.281250 -27.484375q-10.890625 0.000000 -15.093750 2.484375q-4.203125 2.484375 -4.203125 8.500000q0.000000 4.781250 3.156250 7.593750q3.156250 2.796875 8.562500 2.796875q7.484375 0.000000 12.000000 -5.296875q4.515625 -5.296875 4.515625 -14.078125l0.000000 -2.000000zM52.203125 -31.203125l0.000000 31.203125l-8.984375 0.000000l0.000000 -8.296875q-3.078125 4.968750 -7.671875 7.343750q-4.593750 2.375000 -11.234375 2.375000q-8.390625 0.000000 -13.359375 -4.718750q-4.953125 -4.718750 -4.953125 -12.625000q0.000000 -9.218750 6.171875 -13.906250q6.187500 -4.687500 18.437500 -4.687500l12.609375 0.000000l0.000000 -0.890625q0.000000 -6.203125 -4.078125 -9.593750q-4.078125 -3.390625 -11.453125 -3.390625q-4.687500 0.000000 -9.140625 1.125000q-4.437500 1.125000 -8.531250 3.375000l0.000000 -8.312500q4.921875 -1.906250 9.562500 -2.843750q4.640625 -0.953125 9.031250 -0.953125q11.875000 0.000000 17.734375 6.156250q5.859375 6.140625 5.859375 18.640625"/>
<path id="c_5099edb83619131346ae654950954dea" d="M9.421875 -75.984375l8.984375 0.000000l0.000000 75.984375l-8.984375 0.000000z"/>
<path id="c_c48ceabac27bf136feba2f4bf2716ab6" d="M2.984375 -54.687500l9.515625 0.000000l17.093750 45.890625l17.093750 -45.890625l9.515625 0.000000l-20.515625 54.687500l-12.203125 0.000000z"/>
<path id="c_fe791a90f5471e2ab20a5ed41a7fa451" d="M54.890625 -33.015625l0.000000 33.015625l-8.984375 0.000000l0.000000 -32.718750q0.000000 -7.765625 -3.031250 -11.609375q-3.031250 -3.859375 -9.078125 -3.859375q-7.281250 0.000000 -11.484375 4.640625q-4.203125 4.625000 -4.203125 12.640625l0.000000 30.906250l-9.031250 0.000000l0.000000 -54.687500l9.031250 0.000000l0.000000 8.500000q3.234375 -4.937500 7.593750 -7.375000q4.375000 -2.437500 10.093750 -2.437500q9.421875 0.000000 14.250000 5.828125q4.843750 5.828125 4.843750 17.156250"/>
<path id="c_f05dd90d41f04bb96ef1ca503cc2044b" d="M30.609375 -48.390625q-7.218750 0.000000 -11.421875 5.640625q-4.203125 5.640625 -4.203125 15.453125q0.000000 9.812500 4.171875 15.453125q4.187500 5.640625 11.453125 5.640625q7.187500 0.000000 11.375000 -5.656250q4.203125 -5.671875 4.203125 -15.437500q0.000000 -9.718750 -4.203125 -15.406250q-4.187500 -5.687500 -11.375000 -5.687500M30.609375 -56.000000q11.718750 0.000000 18.406250 7.625000q6.703125 7.609375 6.703125 21.078125q0.000000 13.421875 -6.703125 21.078125q-6.687500 7.640625 -18.406250 7.640625q-11.765625 0.000000 -18.437500 -7.640625q-6.656250 -7.656250 -6.656250 -21.078125q0.000000 -13.468750 6.656250 -21.078125q6.671875 -7.625000 18.437500 -7.625000"/>
<path id="c_4653c6dfde66c7610eae0911760d3490" d="M52.000000 -44.187500q3.375000 -6.062500 8.062500 -8.937500q4.687500 -2.875000 11.031250 -2.875000q8.546875 0.000000 13.187500 5.984375q4.640625 5.968750 4.640625 17.000000l0.000000 33.015625l-9.031250 0.000000l0.000000 -32.718750q0.000000 -7.859375 -2.796875 -11.656250q-2.781250 -3.812500 -8.484375 -3.812500q-6.984375 0.000000 -11.046875 4.640625q-4.046875 4.625000 -4.046875 12.640625l0.000000 30.906250l-9.031250 0.000000l0.000000 -32.718750q0.000000 -7.906250 -2.781250 -11.687500q-2.781250 -3.781250 -8.593750 -3.781250q-6.890625 0.000000 -10.953125 4.656250q-4.046875 4.656250 -4.046875 12.625000l0.000000 30.906250l-9.031250 0.000000l0.000000 -54.687500l9.031250 0.000000l0.000000 8.500000q3.078125 -5.031250 7.375000 -7.421875q4.296875 -2.390625 10.203125 -2.390625q5.968750 0.000000 10.140625 3.031250q4.171875 3.015625 6.171875 8.781250"/>
<path id="c_0bce5afba2dc6b9024b26277c38ad8e8" d="M56.203125 -29.593750l0.000000 4.390625l-41.312500 0.000000q0.593750 9.281250 5.593750 14.140625q5.000000 4.859375 13.937500 4.859375q5.171875 0.000000 10.031250 -1.265625q4.859375 -1.265625 9.656250 -3.812500l0.000000 8.500000q-4.843750 2.046875 -9.921875 3.125000q-5.078125 1.078125 -10.296875 1.078125q-13.093750 0.000000 -20.734375 -7.609375q-7.640625 -7.625000 -7.640625 -20.625000q0.000000 -13.421875 7.250000 -21.296875q7.250000 -7.890625 19.562500 -7.890625q11.031250 0.000000 17.453125 7.109375q6.421875 7.093750 6.421875 19.296875M47.218750 -32.234375q-0.093750 -7.359375 -4.125000 -11.750000q-4.031250 -4.406250 -10.671875 -4.406250q-7.515625 0.000000 -12.031250 4.250000q-4.515625 4.250000 -5.203125 11.968750z"/>
<path id="c_0f8c41144cfbf448378cb6fd1cc8e549" d="M18.312500 -70.218750l0.000000 15.531250l18.500000 0.000000l0.000000 6.984375l-18.500000 0.000000l0.000000 29.687500q0.000000 6.687500 1.828125 8.593750q1.828125 1.906250 7.453125 1.906250l9.218750 0.000000l0.000000 7.515625l-9.218750 0.000000q-10.406250 0.000000 -14.359375 -3.875000q-3.953125 -3.890625 -3.953125 -14.140625l0.000000 -29.687500l-6.593750 0.000000l0.000000 -6.984375l6.593750 0.000000l0.000000 -15.531250z"/>
<path id="c_6ec8d5749226675394676a5d2a3b468b" d="M41.109375 -46.296875q-1.515625 -0.875000 -3.296875 -1.281250q-1.781250 -0.421875 -3.921875 -0.421875q-7.625000 0.000000 -11.703125 4.953125q-4.078125 4.953125 -4.078125 14.234375l0.000000 28.812500l-9.031250 0.000000l0.000000 -54.687500l9.031250 0.000000l0.000000 8.500000q2.843750 -4.984375 7.375000 -7.390625q4.546875 -2.421875 11.046875 -2.421875q0.921875 0.000000 2.046875 0.125000q1.125000 0.109375 2.484375 0.359375z"/>
<path id="c_d41d8cd98f00b204e9800998ecf8427e" d=""/>
<path id="c_d650c37394b681142a10dfc54356d478" d="M48.781250 -52.593750l0.000000 8.406250q-3.812500 -2.109375 -7.640625 -3.156250q-3.828125 -1.046875 -7.734375 -1.046875q-8.750000 0.000000 -13.593750 5.546875q-4.828125 5.531250 -4.828125 15.546875q0.000000 10.015625 4.828125 15.562500q4.843750 5.531250 13.593750 5.531250q3.906250 0.000000 7.734375 -1.046875q3.828125 -1.046875 7.640625 -3.156250l0.000000 8.312500q-3.765625 1.750000 -7.796875 2.625000q-4.015625 0.890625 -8.562500 0.890625q-12.359375 0.000000 -19.640625 -7.765625q-7.265625 -7.765625 -7.265625 -20.953125q0.000000 -13.375000 7.343750 -21.031250q7.359375 -7.671875 20.156250 -7.671875q4.140625 0.000000 8.093750 0.859375q3.953125 0.843750 7.671875 2.546875"/>
<path id="c_3b515ad41f960e225ec85275856806ca" d="M8.500000 -21.578125l0.000000 -33.109375l8.984375 0.000000l0.000000 32.765625q0.000000 7.765625 3.015625 11.656250q3.031250 3.875000 9.093750 3.875000q7.265625 0.000000 11.484375 -4.640625q4.234375 -4.640625 4.234375 -12.656250l0.000000 -31.000000l8.984375 0.000000l0.000000 54.687500l-8.984375 0.000000l0.000000 -8.406250q-3.265625 4.984375 -7.593750 7.406250q-4.312500 2.421875 -10.031250 2.421875q-9.421875 0.000000 -14.312500 -5.859375q-4.875000 -5.859375 -4.875000 -17.140625M31.109375 -56.000000z"/>
<path id="c_7efa9804c2b4c09a4b614b91fdebee3d" d="M31.000000 -75.875000q-6.531250 11.218750 -9.718750 22.218750q-3.171875 10.984375 -3.171875 22.265625q0.000000 11.265625 3.203125 22.328125q3.203125 11.062500 9.687500 22.250000l-7.812500 0.000000q-7.312500 -11.484375 -10.953125 -22.562500q-3.640625 -11.078125 -3.640625 -22.015625q0.000000 -10.890625 3.609375 -21.921875q3.625000 -11.046875 10.984375 -22.562500z"/>
<path id="c_6023715d605f81e6eb43b7f9d77e7c51" d="M34.187500 -63.187500l-13.390625 36.281250l26.812500 0.000000zM28.609375 -72.906250l11.187500 0.000000l27.781250 72.906250l-10.250000 0.000000l-6.640625 -18.703125l-32.859375 0.000000l-6.640625 18.703125l-10.406250 0.000000z"/>
<path id="c_e96974be642f6eac0427d72f9cec6c19" d="M8.015625 -75.875000l7.812500 0.000000q7.312500 11.515625 10.953125 22.562500q3.640625 11.031250 3.640625 21.921875q0.000000 10.937500 -3.640625 22.015625q-3.640625 11.078125 -10.953125 22.562500l-7.812500 0.000000q6.484375 -11.187500 9.687500 -22.250000q3.203125 -11.062500 3.203125 -22.328125q0.000000 -11.281250 -3.203125 -22.265625q-3.203125 -11.000000 -9.687500 -22.218750"/>
</defs>
<g style="fill: #000000; opacity: 1.000000" transform="translate(214.778125,416.003125)scale(0.120000)">
<use xlink:href="#c_3b86f9879deccc43ffac57ae939fe3b7"/>
<use xlink:href="#c_01d93a582460e35a7945ca50d148ffeb" x="77.490234"/>
<use xlink:href="#c_5099edb83619131346ae654950954dea" x="138.769531"/>
<use xlink:href="#c_c48ceabac27bf136feba2f4bf2716ab6" x="166.552734"/>
<use xlink:href="#c_01d93a582460e35a7945ca50d148ffeb" x="225.732422"/>
<use xlink:href="#c_fe791a90f5471e2ab20a5ed41a7fa451" x="287.011719"/>
<use xlink:href="#c_f05dd90d41f04bb96ef1ca503cc2044b" x="350.390625"/>
<use xlink:href="#c_4653c6dfde66c7610eae0911760d3490" x="411.572266"/>
<use xlink:href="#c_0bce5afba2dc6b9024b26277c38ad8e8" x="508.984375"/>
<use xlink:href="#c_0f8c41144cfbf448378cb6fd1cc8e549" x="570.507812"/>
<use xlink:href="#c_0bce5afba2dc6b9024b26277c38ad8e8" x="609.716797"/>
<use xlink:href="#c_6ec8d5749226675394676a5d2a3b468b" x="671.240234"/>
<use xlink:href="#c_d41d8cd98f00b204e9800998ecf8427e" x="712.353516"/>
<use xlink:href="#c_d650c37394b681142a10dfc54356d478" x="744.140625"/>
<use xlink:href="#c_3b515ad41f960e225ec85275856806ca" x="799.121094"/>
<use xlink:href="#c_6ec8d5749226675394676a5d2a3b468b" x="862.500000"/>
<use xlink:href="#c_6ec8d5749226675394676a5d2a3b468b" x="901.863281"/>
<use xlink:href="#c_0bce5afba2dc6b9024b26277c38ad8e8" x="940.726563"/>
<use xlink:href="#c_fe791a90f5471e2ab20a5ed41a7fa451" x="1002.250000"/>
<use xlink:href="#c_0f8c41144cfbf448378cb6fd1cc8e549" x="1065.628906"/>
<use xlink:href="#c_7efa9804c2b4c09a4b614b91fdebee3d" x="1104.837891"/>
<use xlink:href="#c_4653c6dfde66c7610eae0911760d3490" x="1143.851563"/>
<use xlink:href="#c_6023715d605f81e6eb43b7f9d77e7c51" x="1241.263672"/>
<use xlink:href="#c_e96974be642f6eac0427d72f9cec6c19" x="1309.671875"/>
</g>
</g>
</g>
<g id="matplotlib.axis2">
<g id="ytick1">
<g id="line2d84">
<path style="fill: none; stroke: #000000; stroke-width: 0.500000; stroke-linejoin: round; stroke-linecap: butt; stroke-dasharray: 1.000000,3.000000; stroke-dashoffset: 0.000000; opacity: 1.000000" clip-path="url(#p50431ccdcb28178602d99d9270004dde)" d="M72.000000 388.800000L518.400000 388.800000"/>
</g>
<g id="line2d85">
<defs><path id="m3400efa6b1638b3fea9e19e898273957" d="M0.000000 0.000000L4.000000 0.000000"/></defs>
<g ><use style="fill: none; stroke: #000000; stroke-width: 0.500000; stroke-linejoin: round; stroke-linecap: butt;  opacity: 1.000000" xlink:href="#m3400efa6b1638b3fea9e19e898273957" x="72.000000" y="388.800000"/>
</g></g>
<g id="line2d86">
<defs><path id="m20b58b2501143cb5e0a5e8f1ef6f1643" d="M0.000000 0.000000L-4.000000 0.000000"/></defs>
<g ><use style="fill: none; stroke: #000000; stroke-width: 0.500000; stroke-linejoin: round; stroke-linecap: butt;  opacity: 1.000000" xlink:href="#m20b58b2501143cb5e0a5e8f1ef6f1643" x="518.400000" y="388.800000"/>
</g></g>
<g id="text9">
<defs>
<path id="c_42baa63129a918535c52adb20d687ea7" d="M12.406250 -8.296875l16.109375 0.000000l0.000000 -55.625000l-17.531250 3.515625l0.000000 -8.984375l17.437500 -3.515625l9.859375 0.000000l0.000000 64.609375l16.109375 0.000000l0.000000 8.296875l-41.984375 0.000000z"/>
<path id="c_cd96f817f3cab988d24a2b49a5577fe6" d="M10.984375 -1.515625l0.000000 -8.984375q3.718750 1.765625 7.515625 2.687500q3.812500 0.921875 7.484375 0.921875q9.765625 0.000000 14.906250 -6.562500q5.156250 -6.562500 5.890625 -19.953125q-2.828125 4.203125 -7.187500 6.453125q-4.343750 2.250000 -9.609375 2.250000q-10.937500 0.000000 -17.312500 -6.609375q-6.375000 -6.625000 -6.375000 -18.109375q0.000000 -11.218750 6.640625 -18.000000q6.640625 -6.796875 17.671875 -6.796875q12.656250 0.000000 19.312500 9.703125q6.671875 9.687500 6.671875 28.140625q0.000000 17.234375 -8.187500 27.515625q-8.171875 10.281250 -21.984375 10.281250q-3.718750 0.000000 -7.531250 -0.734375q-3.796875 -0.734375 -7.906250 -2.203125M30.609375 -32.421875q6.640625 0.000000 10.515625 -4.531250q3.890625 -4.546875 3.890625 -12.468750q0.000000 -7.859375 -3.890625 -12.421875q-3.875000 -4.562500 -10.515625 -4.562500q-6.640625 0.000000 -10.515625 4.562500q-3.875000 4.562500 -3.875000 12.421875q0.000000 7.921875 3.875000 12.468750q3.875000 4.531250 10.515625 4.531250"/>
</defs>
<g style="fill: #000000; opacity: 1.000000" transform="translate(35.734375,393.167188)scale(0.120000)">
<use xlink:href="#c_42baa63129a918535c52adb20d687ea7"/>
<use xlink:href="#c_ed3e21196fb739f392806f09ca0594ef" x="63.623047"/>
<use xlink:href="#c_cd96f817f3cab988d24a2b49a5577fe6" x="95.410156"/>
<use xlink:href="#c_cd96f817f3cab988d24a2b49a5577fe6" x="159.033203"/>
<use xlink:href="#c_7a2040fe3b94fcd41d0a72c84e93b115" x="222.656250"/>
</g>
</g>
</g>
<g id="ytick2">
<g id="line2d87">
<path style="fill: none; stroke: #000000; stroke-width: 0.500000; stroke-linejoin: round; stroke-linecap: butt; stroke-dasharray: 1.000000,3.000000; stroke-dashoffset: 0.000000; opacity: 1.000000" clip-path="url(#p50431ccdcb28178602d99d9270004dde)" d="M72.000000 302.400000L518.400000 302.400000"/>
</g>
<g id="line2d88">
<g ><use style="fill: none; stroke: #000000; stroke-width: 0.500000; stroke-linejoin: round; stroke-linecap: butt;  opacity: 1.000000" xlink:href="#m3400efa6b1638b3fea9e19e898273957" x="72.000000" y="302.400000"/>
</g></g>
<g id="line2d89">
<g ><use style="fill: none; stroke: #000000; stroke-width: 0.500000; stroke-linejoin: round; stroke-linecap: butt;  opacity: 1.000000" xlink:href="#m20b58b2501143cb5e0a5e8f1ef6f1643" x="518.400000" y="302.400000"/>
</g></g>
<g id="text10">
<defs>
<path id="c_1260a2df50f305f3db244e29828f968e" d="M10.796875 -72.906250l38.718750 0.000000l0.000000 8.312500l-29.687500 0.000000l0.000000 17.859375q2.140625 -0.734375 4.281250 -1.093750q2.156250 -0.359375 4.312500 -0.359375q12.203125 0.000000 19.328125 6.687500q7.140625 6.687500 7.140625 18.109375q0.000000 11.765625 -7.328125 18.296875q-7.328125 6.515625 -20.656250 6.515625q-4.593750 0.000000 -9.359375 -0.781250q-4.750000 -0.781250 -9.828125 -2.343750l0.000000 -9.921875q4.390625 2.390625 9.078125 3.562500q4.687500 1.171875 9.906250 1.171875q8.453125 0.000000 13.375000 -4.437500q4.937500 -4.437500 4.937500 -12.062500q0.000000 -7.609375 -4.937500 -12.046875q-4.921875 -4.453125 -13.375000 -4.453125q-3.953125 0.000000 -7.890625 0.875000q-3.921875 0.875000 -8.015625 2.734375z"/>
</defs>
<g style="fill: #000000; opacity: 1.000000" transform="translate(35.984375,306.767188)scale(0.120000)">
<use xlink:href="#c_42baa63129a918535c52adb20d687ea7"/>
<use xlink:href="#c_ed3e21196fb739f392806f09ca0594ef" x="63.623047"/>
<use xlink:href="#c_cd96f817f3cab988d24a2b49a5577fe6" x="95.410156"/>
<use xlink:href="#c_cd96f817f3cab988d24a2b49a5577fe6" x="159.033203"/>
<use xlink:href="#c_1260a2df50f305f3db244e29828f968e" x="222.656250"/>
</g>
</g>
</g>
<g id="ytick3">
<g id="line2d90">
<path style="fill: none; stroke: #000000; stroke-width: 0.500000; stroke-linejoin: round; stroke-linecap: butt; stroke-dasharray: 1.000000,3.000000; stroke-dashoffset: 0.000000; opacity: 1.000000" clip-path="url(#p50431ccdcb28178602d99d9270004dde)" d="M72.000000 216.000000L518.400000 216.000000"/>
</g>
<g id="line2d91">
<g ><use style="fill: none; stroke: #000000; stroke-width: 0.500000; stroke-linejoin: round; stroke-linecap: butt;  opacity: 1.000000" xlink:href="#m3400efa6b1638b3fea9e19e898273957" x="72.000000" y="216.000000"/>
</g></g>
<g id="line2d92">
<g ><use style="fill: none; stroke: #000000; stroke-width: 0.500000; stroke-linejoin: round; stroke-linecap: butt;  opacity: 1.000000" xlink:href="#m20b58b2501143cb5e0a5e8f1ef6f1643" x="518.400000" y="216.000000"/>
</g></g>
<g id="text11">
<g style="fill: #000000; opacity: 1.000000" transform="translate(35.296875,220.367188)scale(0.120000)">
<use xlink:href="#c_ed3f3ed3ebfbd18bcb9c012009a68ad1"/>
<use xlink:href="#c_ed3e21196fb739f392806f09ca0594ef" x="63.623047"/>
<use xlink:href="#c_7a2040fe3b94fcd41d0a72c84e93b115" x="95.410156"/>
<use xlink:href="#c_7a2040fe3b94fcd41d0a72c84e93b115" x="159.033203"/>
<use xlink:href="#c_7a2040fe3b94fcd41d0a72c84e93b115" x="222.656250"/>
</g>
</g>
</g>
<g id="ytick4">
<g id="line2d93">
<path style="fill: none; stroke: #000000; stroke-width: 0.500000; stroke-linejoin: round; stroke-linecap: butt; stroke-dasharray: 1.000000,3.000000; stroke-dashoffset: 0.000000; opacity: 1.000000" clip-path="url(#p50431ccdcb28178602d99d9270004dde)" d="M72.000000 129.600000L518.400000 129.600000"/>
</g>
<g id="line2d94">
<g ><use style="fill: none; stroke: #000000; stroke-width: 0.500000; stroke-linejoin: round; stroke-linecap: butt;  opacity: 1.000000" xlink:href="#m3400efa6b1638b3fea9e19e898273957" x="72.000000" y="129.600000"/>
</g></g>
<g id="line2d95">
<g ><use style="fill: none; stroke: #000000; stroke-width: 0.500000; stroke-linejoin: round; stroke-linecap: butt;  opacity: 1.000000" xlink:href="#m20b58b2501143cb5e0a5e8f1ef6f1643" x="518.400000" y="129.600000"/>
</g></g>
<g id="text12">
<g style="fill: #000000; opacity: 1.000000" transform="translate(35.546875,133.967187)scale(0.120000)">
<use xlink:href="#c_ed3f3ed3ebfbd18bcb9c012009a68ad1"/>
<use xlink:href="#c_ed3e21196fb739f392806f09ca0594ef" x="63.623047"/>
<use xlink:href="#c_7a2040fe3b94fcd41d0a72c84e93b115" x="95.410156"/>
<use xlink:href="#c_7a2040fe3b94fcd41d0a72c84e93b115" x="159.033203"/>
<use xlink:href="#c_1260a2df50f305f3db244e29828f968e" x="222.656250"/>
</g>
</g>
</g>
<g id="ytick5">
<g id="line2d96">
<path style="fill: none; stroke: #000000; stroke-width: 0.500000; stroke-linejoin: round; stroke-linecap: butt; stroke-dasharray: 1.000000,3.000000; stroke-dashoffset: 0.000000; opacity: 1.000000" clip-path="url(#p50431ccdcb28178602d99d9270004dde)" d="M72.000000 43.200000L518.400000 43.200000"/>
</g>
<g id="line2d97">
<g ><use style="fill: none; stroke: #000000; stroke-width: 0.500000; stroke-linejoin: round; stroke-linecap: butt;  opacity: 1.000000" xlink:href="#m3400efa6b1638b3fea9e19e898273957" x="72.000000" y="43.200000"/>
</g></g>
<g id="line2d98">
<g ><use style="fill: none; stroke: #000000; stroke-width: 0.500000; stroke-linejoin: round; stroke-linecap: butt;  opacity: 1.000000" xlink:href="#m20b58b2501143cb5e0a5e8f1ef6f1643" x="518.400000" y="43.200000"/>
</g></g>
<g id="text13">
<g style="fill: #000000; opacity: 1.000000" transform="translate(35.296875,47.567188)scale(0.120000)">
<use xlink:href="#c_ed3f3ed3ebfbd18bcb9c012009a68ad1"/>
<use xlink:href="#c_ed3e21196fb739f392806f09ca0594ef" x="63.623047"/>
<use xlink:href="#c_7a2040fe3b94fcd41d0a72c84e93b115" x="95.410156"/>
<use xlink:href="#c_42baa63129a918535c52adb20d687ea7" x="159.033203"/>
<use xlink:href="#c_7a2040fe3b94fcd41d0a72c84e93b115" x="222.656250"/>
</g>
</g>
</g>
<g id="ytick6">
<g id="line2d99">
<path style="fill: none; stroke: #000000; stroke-width: 0.500000; stroke-linejoin: round; stroke-linecap: butt; stroke-dasharray: 1.000000,3.000000; stroke-dashoffset: 0.000000; opacity: 1.000000" clip-path="url(#p50431ccdcb28178602d99d9270004dde)" d="M72.000000 371.520000L518.400000 371.520000"/>
</g>
<g id="line2d100">
<defs><path id="mb39cfcf7402899e54c4d755745537394" d="M0.000000 0.000000L2.000000 0.000000"/></defs>
<g ><use style="fill: none; stroke: #000000; stroke-width: 0.500000; stroke-linejoin: round; stroke-linecap: butt;  opacity: 1.000000" xlink:href="#mb39cfcf7402899e54c4d755745537394" x="72.000000" y="371.520000"/>
</g></g>
<g id="line2d101">
<defs><path id="m6046ccd8b6d57b9fb587e3fdd930e9c5" d="M0.000000 0.000000L-2.000000 0.000000"/></defs>
<g ><use style="fill: none; stroke: #000000; stroke-width: 0.500000; stroke-linejoin: round; stroke-linecap: butt;  opacity: 1.000000" xlink:href="#m6046ccd8b6d57b9fb587e3fdd930e9c5" x="518.400000" y="371.520000"/>
</g></g>
</g>
<g id="ytick7">
<g id="line2d102">
<path style="fill: none; stroke: #000000; stroke-width: 0.500000; stroke-linejoin: round; stroke-linecap: butt; stroke-dasharray: 1.000000,3.000000; stroke-dashoffset: 0.000000; opacity: 1.000000" clip-path="url(#p50431ccdcb28178602d99d9270004dde)" d="M72.000000 354.240000L518.400000 354.240000"/>
</g>
<g id="line2d103">
<g ><use style="fill: none; stroke: #000000; stroke-width: 0.500000; stroke-linejoin: round; stroke-linecap: butt;  opacity: 1.000000" xlink:href="#mb39cfcf7402899e54c4d755745537394" x="72.000000" y="354.240000"/>
</g></g>
<g id="line2d104">
<g ><use style="fill: none; stroke: #000000; stroke-width: 0.500000; stroke-linejoin: round; stroke-linecap: butt;  opacity: 1.000000" xlink:href="#m6046ccd8b6d57b9fb587e3fdd930e9c5" x="518.400000" y="354.240000"/>
</g></g>
</g>
<g id="ytick8">
<g id="line2d105">
<path style="fill: none; stroke: #000000; stroke-width: 0.500000; stroke-linejoin: round; stroke-linecap: butt; stroke-dasharray: 1.000000,3.000000; stroke-dashoffset: 0.000000; opacity: 1.000000" clip-path="url(#p50431ccdcb28178602d99d9270004dde)" d="M72.000000 336.960000L518.400000 336.960000"/>
</g>
<g id="line2d106">
<g ><use style="fill: none; stroke: #000000; stroke-width: 0.500000; stroke-linejoin: round; stroke-linecap: butt;  opacity: 1.000000" xlink:href="#mb39cfcf7402899e54c4d755745537394" x="72.000000" y="336.960000"/>
</g></g>
<g id="line2d107">
<g ><use style="fill: none; stroke: #000000; stroke-width: 0.500000; stroke-linejoin: round; stroke-linecap: butt;  opacity: 1.000000" xlink:href="#m6046ccd8b6d57b9fb587e3fdd930e9c5" x="518.400000" y="336.960000"/>
</g></g>
</g>
<g id="ytick9">
<g id="line2d108">
<path style="fill: none; stroke: #000000; stroke-width: 0.500000; stroke-linejoin: round; stroke-linecap: butt; stroke-dasharray: 1.000000,3.000000; stroke-dashoffset: 0.000000; opacity: 1.000000" clip-path="url(#p50431ccdcb28178602d99d9270004dde)" d="M72.000000 319.680000L518.400000 319.680000"/>
</g>
<g id="line2d109">
<g ><use style="fill: none; stroke: #000000; stroke-width: 0.500000; stroke-linejoin: round; stroke-linecap: butt;  opacity: 1.000000" xlink:href="#mb39cfcf7402899e54c4d755745537394" x="72.000000" y="319.680000"/>
</g></g>
<g id="line2d110">
<g ><use style="fill: none; stroke: #000000; stroke-width: 0.500000; stroke-linejoin: round; stroke-linecap: butt;  opacity: 1.000000" xlink:href="#m6046ccd8b6d57b9fb587e3fdd930e9c5" x="518.400000" y="319.680000"/>
</g></g>
</g>
<g id="ytick10">
<g id="line2d111">
<path style="fill: none; stroke: #000000; stroke-width: 0.500000; stroke-linejoin: round; stroke-linecap: butt; stroke-dasharray: 1.000000,3.000000; stroke-dashoffset: 0.000000; opacity: 1.000000" clip-path="url(#p50431ccdcb28178602d99d9270004dde)" d="M72.000000 285.120000L518.400000 285.120000"/>
</g>
<g id="line2d112">
<g ><use style="fill: none; stroke: #000000; stroke-width: 0.500000; stroke-linejoin: round; stroke-linecap: butt;  opacity: 1.000000" xlink:href="#mb39cfcf7402899e54c4d755745537394" x="72.000000" y="285.120000"/>
</g></g>
<g id="line2d113">
<g ><use style="fill: none; stroke: #000000; stroke-width: 0.500000; stroke-linejoin: round; stroke-linecap: butt;  opacity: 1.000000" xlink:href="#m6046ccd8b6d57b9fb587e3fdd930e9c5" x="518.400000" y="285.120000"/>
</g></g>
</g>
<g id="ytick11">
<g id="line2d114">
<path style="fill: none; stroke: #000000; stroke-width: 0.500000; stroke-linejoin: round; stroke-linecap: butt; stroke-dasharray: 1.000000,3.000000; stroke-dashoffset: 0.000000; opacity: 1.000000" clip-path="url(#p50431ccdcb28178602d99d9270004dde)" d="M72.000000 267.840000L518.400000 267.840000"/>
</g>
<g id="line2d115">
<g ><use style="fill: none; stroke: #000000; stroke-width: 0.500000; stroke-linejoin: round; stroke-linecap: butt;  opacity: 1.000000" xlink:href="#mb39cfcf7402899e54c4d755745537394" x="72.000000" y="267.840000"/>
</g></g>
<g id="line2d116">
<g ><use style="fill: none; stroke: #000000; stroke-width: 0.500000; stroke-linejoin: round; stroke-linecap: butt;  opacity: 1.000000" xlink:href="#m6046ccd8b6d57b9fb587e3fdd930e9c5" x="518.400000" y="267.840000"/>
</g></g>
</g>
<g id="ytick12">
<g id="line2d117">
<path style="fill: none; stroke: #000000; stroke-width: 0.500000; stroke-linejoin: round; stroke-linecap: butt; stroke-dasharray: 1.000000,3.000000; stroke-dashoffset: 0.000000; opacity: 1.000000" clip-path="url(#p50431ccdcb28178602d99d9270004dde)" d="M72.000000 250.560000L518.400000 250.560000"/>
</g>
<g id="line2d118">
<g ><use style="fill: none; stroke: #000000; stroke-width: 0.500000; stroke-linejoin: round; stroke-linecap: butt;  opacity: 1.000000" xlink:href="#mb39cfcf7402899e54c4d755745537394" x="72.000000" y="250.560000"/>
</g></g>
<g id="line2d119">
<g ><use style="fill: none; stroke: #000000; stroke-width: 0.500000; stroke-linejoin: round; stroke-linecap: butt;  opacity: 1.000000" xlink:href="#m6046ccd8b6d57b9fb587e3fdd930e9c5" x="518.400000" y="250.560000"/>
</g></g>
</g>
<g id="ytick13">
<g id="line2d120">
<path style="fill: none; stroke: #000000; stroke-width: 0.500000; stroke-linejoin: round; stroke-linecap: butt; stroke-dasharray: 1.000000,3.000000; stroke-dashoffset: 0.000000; opacity: 1.000000" clip-path="url(#p50431ccdcb28178602d99d9270004dde)" d="M72.000000 233.280000L518.400000 233.280000"/>
</g>
<g id="line2d121">
<g ><use style="fill: none; stroke: #000000; stroke-width: 0.500000; stroke-linejoin: round; stroke-linecap: butt;  opacity: 1.000000" xlink:href="#mb39cfcf7402899e54c4d755745537394" x="72.000000" y="233.280000"/>
</g></g>
<g id="line2d122">
<g ><use style="fill: none; stroke: #000000; stroke-width: 0.500000; stroke-linejoin: round; stroke-linecap: butt;  opacity: 1.000000" xlink:href="#m6046ccd8b6d57b9fb587e3fdd930e9c5" x="518.400000" y="233.280000"/>
</g></g>
</g>
<g id="ytick14">
<g id="line2d123">
<path style="fill: none; stroke: #000000; stroke-width: 0.500000; stroke-linejoin: round; stroke-linecap: butt; stroke-dasharray: 1.000000,3.000000; stroke-dashoffset: 0.000000; opacity: 1.000000" clip-path="url(#p50431ccdcb28178602d99d9270004dde)" d="M72.000000 198.720000L518.400000 198.720000"/>
</g>
<g id="line2d124">
<g ><use style="fill: none; stroke: #000000; stroke-width: 0.500000; stroke-linejoin: round; stroke-linecap: butt;  opacity: 1.000000" xlink:href="#mb39cfcf7402899e54c4d755745537394" x="72.000000" y="198.720000"/>
</g></g>
<g id="line2d125">
<g ><use style="fill: none; stroke: #000000; stroke-width: 0.500000; stroke-linejoin: round; stroke-linecap: butt;  opacity: 1.000000" xlink:href="#m6046ccd8b6d57b9fb587e3fdd930e9c5" x="518.400000" y="198.720000"/>
</g></g>
</g>
<g id="ytick15">
<g id="line2d126">
<path style="fill: none; stroke: #000000; stroke-width: 0.500000; stroke-linejoin: round; stroke-linecap: butt; stroke-dasharray: 1.000000,3.000000; stroke-dashoffset: 0.000000; opacity: 1.000000" clip-path="url(#p50431ccdcb28178602d99d9270004dde)" d="M72.000000 181.440000L518.400000 181.440000"/>
</g>
<g id="line2d127">
<g ><use style="fill: none; stroke: #000000; stroke-width: 0.500000; stroke-linejoin: round; stroke-linecap: butt;  opacity: 1.000000" xlink:href="#mb39cfcf7402899e54c4d755745537394" x="72.000000" y="181.440000"/>
</g></g>
<g id="line2d128">
<g ><use style="fill: none; stroke: #000000; stroke-width: 0.500000; stroke-linejoin: round; stroke-linecap: butt;  opacity: 1.000000" xlink:href="#m6046ccd8b6d57b9fb587e3fdd930e9c5" x="518.400000" y="181.440000"/>
</g></g>
</g>
<g id="ytick16">
<g id="line2d129">
<path style="fill: none; stroke: #000000; stroke-width: 0.500000; stroke-linejoin: round; stroke-linecap: butt; stroke-dasharray: 1.000000,3.000000; stroke-dashoffset: 0.000000; opacity: 1.000000" clip-path="url(#p50431ccdcb28178602d99d9270004dde)" d="M72.000000 164.160000L518.400000 164.160000"/>
</g>
<g id="line2d130">
<g ><use style="fill: none; stroke: #000000; stroke-width: 0.500000; stroke-linejoin: round; stroke-linecap: butt;  opacity: 1.000000" xlink:href="#mb39cfcf7402899e54c4d755745537394" x="72.000000" y="164.160000"/>
</g></g>
<g id="line2d131">
<g ><use style="fill: none; stroke: #000000; stroke-width: 0.500000; stroke-linejoin: round; stroke-linecap: butt;  opacity: 1.000000" xlink:href="#m6046ccd8b6d57b9fb587e3fdd930e9c5" x="518.400000" y="164.160000"/>
</g></g>
</g>
<g id="ytick17">
<g id="line2d132">
<path style="fill: none; stroke: #000000; stroke-width: 0.500000; stroke-linejoin: round; stroke-linecap: butt; stroke-dasharray: 1.000000,3.000000; stroke-dashoffset: 0.000000; opacity: 1.000000" clip-path="url(#p50431ccdcb28178602d99d9270004dde)" d="M72.000000 146.880000L518.400000 146.880000"/>
</g>
<g id="line2d133">
<g ><use style="fill: none; stroke: #000000; stroke-width: 0.500000; stroke-linejoin: round; stroke-linecap: butt;  opacity: 1.000000" xlink:href="#mb39cfcf7402899e54c4d755745537394" x="72.000000" y="146.880000"/>
</g></g>
<g id="line2d134">
<g ><use style="fill: none; stroke: #000000; stroke-width: 0.500000; stroke-linejoin: round; stroke-linecap: butt;  opacity: 1.000000" xlink:href="#m6046ccd8b6d57b9fb587e3fdd930e9c5" x="518.400000" y="146.880000"/>
</g></g>
</g>
<g id="ytick18">
<g id="line2d135">
<path style="fill: none; stroke: #000000; stroke-width: 0.500000; stroke-linejoin: round; stroke-linecap: butt; stroke-dasharray: 1.000000,3.000000; stroke-dashoffset: 0.000000; opacity: 1.000000" clip-path="url(#p50431ccdcb28178602d99d9270004dde)" d="M72.000000 112.320000L518.400000 112.320000"/>
</g>
<g id="line2d136">
<g ><use style="fill: none; stroke: #000000; stroke-width: 0.500000; stroke-linejoin: round; stroke-linecap: butt;  opacity: 1.000000" xlink:href="#mb39cfcf7402899e54c4d755745537394" x="72.000000" y="112.320000"/>
</g></g>
<g id="line2d137">
<g ><use style="fill: none; stroke: #000000; stroke-width: 0.500000; stroke-linejoin: round; stroke-linecap: butt;  opacity: 1.000000" xlink:href="#m6046ccd8b6d57b9fb587e3fdd930e9c5" x="518.400000" y="112.320000"/>
</g></g>
</g>
<g id="ytick19">
<g id="line2d138">
<path style="fill: none; stroke: #000000; stroke-width: 0.500000; stroke-linejoin: round; stroke-linecap: butt; stroke-dasharray: 1.000000,3.000000; stroke-dashoffset: 0.000000; opacity: 1.000000" clip-path="url(#p50431ccdcb28178602d99d9270004dde)" d="M72.000000 95.040000L518.400000 95.040000"/>
</g>
<g id="line2d139">
<g ><use style="fill: none; stroke: #000000; stroke-width: 0.500000; stroke-linejoin: round; stroke-linecap: butt;  opacity: 1.000000" xlink:href="#mb39cfcf7402899e54c4d755745537394" x="72.000000" y="95.040000"/>
</g></g>
<g id="line2d140">
<g ><use style="fill: none; stroke: #000000; stroke-width: 0.500000; stroke-linejoin: round; stroke-linecap: butt;  opacity: 1.000000" xlink:href="#m6046ccd8b6d57b9fb587e3fdd930e9c5" x="518.400000" y="95.040000"/>
</g></g>
</g>
<g id="ytick20">
<g id="line2d141">
<path style="fill: none; stroke: #000000; stroke-width: 0.500000; stroke-linejoin: round; stroke-linecap: butt; stroke-dasharray: 1.000000,3.000000; stroke-dashoffset: 0.000000; opacity: 1.000000" clip-path="url(#p50431ccdcb28178602d99d9270004dde)" d="M72.000000 77.760000L518.400000 77.760000"/>
</g>
<g id="line2d142">
<g ><use style="fill: none; stroke: #000000; stroke-width: 0.500000; stroke-linejoin: round; stroke-linecap: butt;  opacity: 1.000000" xlink:href="#mb39cfcf7402899e54c4d755745537394" x="72.000000" y="77.760000"/>
</g></g>
<g id="line2d143">
<g ><use style="fill: none; stroke: #000000; stroke-width: 0.500000; stroke-linejoin: round; stroke-linecap: butt;  opacity: 1.000000" xlink:href="#m6046ccd8b6d57b9fb587e3fdd930e9c5" x="518.400000" y="77.760000"/>
</g></g>
</g>
<g id="ytick21">
<g id="line2d144">
<path style="fill: none; stroke: #000000; stroke-width: 0.500000; stroke-linejoin: round; stroke-linecap: butt; stroke-dasharray: 1.000000,3.000000; stroke-dashoffset: 0.000000; opacity: 1.000000" clip-path="url(#p50431ccdcb28178602d99d9270004dde)" d="M72.000000 60.480000L518.400000 60.480000"/>
</g>
<g id="line2d145">
<g ><use style="fill: none; stroke: #000000; stroke-width: 0.500000; stroke-linejoin: round; stroke-linecap: butt;  opacity: 1.000000" xlink:href="#mb39cfcf7402899e54c4d755745537394" x="72.000000" y="60.480000"/>
</g></g>
<g id="line2d146">
<g ><use style="fill: none; stroke: #000000; stroke-width: 0.500000; stroke-linejoin: round; stroke-linecap: butt;  opacity: 1.000000" xlink:href="#m6046ccd8b6d57b9fb587e3fdd930e9c5" x="518.400000" y="60.480000"/>
</g></g>
</g>
<g id="text14">
<defs>
<path id="c_37be95c62dc54aa24625fda644d3578c" d="M4.890625 -0.000000q-0.984375 0.000000 -0.984375 -1.312500q0.046875 -0.250000 0.187500 -0.859375q0.156250 -0.609375 0.421875 -0.968750q0.265625 -0.375000 0.656250 -0.375000q6.109375 0.000000 8.546875 -0.687500q1.265625 -0.437500 1.859375 -2.687500l13.718750 -54.921875q0.203125 -0.984375 0.203125 -1.375000q0.000000 -1.078125 -1.171875 -1.218750q-1.906250 -0.390625 -7.234375 -0.390625q-0.968750 0.000000 -0.968750 -1.312500q0.046875 -0.250000 0.187500 -0.859375q0.140625 -0.609375 0.406250 -0.968750q0.281250 -0.375000 0.671875 -0.375000l30.312500 0.000000q3.625000 0.000000 7.531250 0.828125q3.906250 0.828125 7.171875 2.609375q3.265625 1.781250 5.359375 4.750000q2.109375 2.953125 2.109375 6.906250q0.000000 5.031250 -3.328125 8.984375q-3.312500 3.953125 -8.390625 6.609375q-5.078125 2.656250 -9.859375 3.734375q3.906250 1.421875 6.390625 4.531250q2.500000 3.093750 2.500000 7.140625q0.000000 0.531250 -0.031250 0.812500q-0.015625 0.265625 -0.078125 0.609375l-0.781250 8.875000q-0.093750 1.953125 -0.187500 3.328125q-0.093750 1.359375 -0.093750 2.203125q0.000000 2.734375 0.796875 4.375000q0.812500 1.625000 3.203125 1.625000q3.125000 0.000000 5.484375 -2.906250q2.375000 -2.906250 3.109375 -6.328125q0.437500 -0.875000 0.968750 -0.875000l0.937500 0.000000q0.968750 0.000000 0.968750 1.312500q-0.734375 2.890625 -2.328125 5.484375q-1.578125 2.578125 -4.000000 4.234375q-2.406250 1.671875 -5.234375 1.671875q-5.859375 0.000000 -9.984375 -2.609375q-4.125000 -2.625000 -4.125000 -8.187500q0.000000 -2.093750 0.390625 -3.718750l2.187500 -8.875000q0.390625 -1.218750 0.390625 -2.843750q0.000000 -4.140625 -2.812500 -6.500000q-2.796875 -2.375000 -7.046875 -2.375000l-12.312500 0.000000l-6.578125 26.406250q-0.250000 0.828125 -0.250000 1.421875q0.000000 1.031250 1.218750 1.171875q1.906250 0.390625 7.171875 0.390625q1.031250 0.000000 1.031250 1.312500q-0.343750 1.421875 -0.546875 1.812500q-0.187500 0.390625 -1.156250 0.390625zM31.203125 -35.500000l11.078125 0.000000q10.890625 0.000000 16.406250 -5.515625q2.546875 -2.546875 4.031250 -6.468750q1.484375 -3.937500 1.484375 -7.843750q0.000000 -3.703125 -2.171875 -5.796875q-2.171875 -2.109375 -5.375000 -2.890625q-3.187500 -0.781250 -7.046875 -0.781250l-6.687500 0.000000q-2.734375 0.000000 -3.625000 0.468750q-0.875000 0.453125 -1.593750 2.953125z"/>
<path id="c_b1ccbd40de9466de4ee940ca0731021f" d="M8.406250 14.312500q2.093750 3.609375 7.312500 3.609375q4.734375 0.000000 8.203125 -3.328125q3.468750 -3.312500 5.593750 -8.031250q2.125000 -4.703125 3.296875 -9.640625q-4.437500 4.203125 -9.625000 4.203125q-3.953125 0.000000 -6.734375 -1.359375q-2.781250 -1.375000 -4.328125 -4.078125q-1.531250 -2.718750 -1.531250 -6.578125q0.000000 -3.265625 0.875000 -6.703125q0.890625 -3.453125 2.468750 -7.671875q1.593750 -4.234375 2.765625 -7.359375q1.312500 -3.656250 1.312500 -6.000000q0.000000 -2.984375 -2.187500 -2.984375q-3.968750 0.000000 -6.531250 4.078125q-2.562500 4.078125 -3.781250 9.109375q-0.187500 0.640625 -0.828125 0.640625l-1.171875 0.000000q-0.828125 0.000000 -0.828125 -0.937500l0.000000 -0.281250q1.609375 -5.968750 4.921875 -10.578125q3.328125 -4.609375 8.406250 -4.609375q3.562500 0.000000 6.031250 2.343750q2.468750 2.343750 2.468750 5.953125q0.000000 1.859375 -0.828125 3.906250q-0.437500 1.218750 -2.000000 5.328125q-1.562500 4.093750 -2.406250 6.781250q-0.828125 2.687500 -1.359375 5.281250q-0.531250 2.578125 -0.531250 5.171875q0.000000 3.312500 1.406250 5.609375q1.421875 2.296875 4.500000 2.296875q6.203125 0.000000 11.125000 -7.562500l7.578125 -30.812500q0.328125 -1.328125 1.546875 -2.265625q1.234375 -0.953125 2.640625 -0.953125q1.218750 0.000000 2.125000 0.781250q0.906250 0.781250 0.906250 2.046875q0.000000 0.578125 -0.093750 0.781250l-9.921875 39.796875q-1.312500 5.125000 -4.828125 9.812500q-3.515625 4.687500 -8.468750 7.546875q-4.953125 2.859375 -10.328125 2.859375q-2.593750 0.000000 -5.140625 -1.015625q-2.531250 -1.000000 -4.093750 -3.000000q-1.562500 -2.000000 -1.562500 -4.687500q0.000000 -2.734375 1.609375 -4.734375q1.625000 -2.000000 4.296875 -2.000000q1.625000 0.000000 2.718750 1.000000q1.093750 1.000000 1.093750 2.609375q0.000000 2.296875 -1.718750 4.000000q-1.703125 1.718750 -3.984375 1.718750q-0.109375 -0.046875 -0.203125 -0.078125q-0.093750 -0.015625 -0.187500 -0.015625"/>
<path id="c_06a7a4502300c60b4feec85758ecf628" d="M31.000000 24.812500q-5.562500 -4.406250 -9.593750 -10.093750q-4.015625 -5.687500 -6.593750 -12.140625q-2.562500 -6.437500 -3.828125 -13.468750q-1.265625 -7.031250 -1.265625 -14.109375q0.000000 -7.171875 1.265625 -14.203125q1.265625 -7.031250 3.875000 -13.531250q2.625000 -6.500000 6.671875 -12.156250q4.062500 -5.671875 9.468750 -9.921875q0.000000 -0.187500 0.500000 -0.187500l0.921875 0.000000q0.296875 0.000000 0.531250 0.265625q0.250000 0.265625 0.250000 0.609375q0.000000 0.437500 -0.187500 0.640625q-4.890625 4.781250 -8.140625 10.250000q-3.250000 5.468750 -5.234375 11.656250q-1.968750 6.171875 -2.843750 12.796875q-0.875000 6.609375 -0.875000 13.781250q0.000000 31.781250 16.984375 48.296875q0.296875 0.281250 0.296875 0.828125q0.000000 0.234375 -0.265625 0.546875q-0.265625 0.328125 -0.515625 0.328125l-0.921875 0.000000q-0.500000 0.000000 -0.500000 -0.187500"/>
<path id="c_39f42522cc1208673ce5de0454ea662d" d="M7.718750 -0.000000l-3.328125 -16.609375l2.937500 0.000000q0.531250 2.890625 0.968750 5.109375q0.437500 2.218750 1.140625 3.125000q0.718750 0.906250 2.281250 1.203125q1.562500 0.281250 5.171875 0.281250l6.109375 0.000000q-1.468750 -5.656250 -7.312500 -14.765625q-5.828125 -9.109375 -7.953125 -13.234375q-2.125000 -4.125000 -2.125000 -10.625000q0.000000 -7.562500 4.484375 -13.250000q4.500000 -5.687500 11.609375 -8.718750q7.109375 -3.031250 14.375000 -3.031250q7.234375 0.000000 14.328125 3.031250q7.109375 3.031250 11.593750 8.765625q4.500000 5.734375 4.500000 13.203125q0.000000 5.078125 -1.859375 9.578125q-1.843750 4.484375 -4.734375 8.984375q-2.875000 4.484375 -6.218750 10.015625q-3.343750 5.515625 -4.562500 10.046875l6.046875 0.000000q3.671875 0.000000 5.281250 -0.281250q1.609375 -0.296875 2.281250 -1.203125q0.687500 -0.906250 1.109375 -3.125000q0.421875 -2.218750 0.953125 -5.109375l2.875000 0.000000l-3.265625 16.609375l-17.718750 0.000000q-0.984375 0.000000 -0.984375 -1.312500q0.000000 -5.078125 1.234375 -9.953125q1.250000 -4.890625 3.687500 -11.828125q2.453125 -6.937500 3.812500 -12.234375q1.375000 -5.296875 1.375000 -10.187500q0.000000 -6.000000 -2.343750 -11.125000q-2.343750 -5.125000 -6.843750 -8.203125q-4.484375 -3.078125 -10.546875 -3.078125q-9.125000 0.000000 -14.453125 6.515625q-5.312500 6.515625 -5.312500 15.890625q0.046875 5.140625 1.218750 9.687500q1.171875 4.531250 3.781250 12.109375q2.609375 7.562500 3.859375 12.453125q1.250000 4.875000 1.250000 9.953125q0.000000 1.312500 -1.031250 1.312500z"/>
<path id="c_b865a8a4692360a5eaaff4ecf56eccf7" d="M6.500000 25.000000q-0.890625 0.000000 -0.890625 -0.875000q0.000000 -0.437500 0.203125 -0.640625q17.093750 -16.703125 17.093750 -48.484375q0.000000 -31.781250 -16.906250 -48.296875q-0.390625 -0.234375 -0.390625 -0.828125q0.000000 -0.343750 0.265625 -0.609375q0.281250 -0.265625 0.625000 -0.265625l0.921875 0.000000q0.296875 0.000000 0.484375 0.187500q7.187500 5.671875 11.968750 13.781250q4.781250 8.093750 7.000000 17.281250q2.234375 9.171875 2.234375 18.750000q0.000000 7.078125 -1.203125 13.937500q-1.203125 6.859375 -3.812500 13.515625q-2.609375 6.671875 -6.609375 12.312500q-4.000000 5.640625 -9.578125 10.046875q-0.187500 0.187500 -0.484375 0.187500z"/>
</defs>
<g id="mathtext1">
<g style="fill: #000000" transform="translate(30.296875,232.000000)rotate(-90.0)">
<use xlink:href="#c_37be95c62dc54aa24625fda644d3578c" transform="translate(0.000000,-5.000000)scale(0.120000)"/>
<use xlink:href="#c_b1ccbd40de9466de4ee940ca0731021f" transform="translate(9.105469,-1.938875)scale(0.084000)"/>
<use xlink:href="#c_06a7a4502300c60b4feec85758ecf628" transform="translate(13.223437,-5.000000)scale(0.120000)"/>
<use xlink:href="#c_39f42522cc1208673ce5de0454ea662d" transform="translate(17.881641,-5.000000)scale(0.120000)"/>
<use xlink:href="#c_b865a8a4692360a5eaaff4ecf56eccf7" transform="translate(26.547656,-5.000000)scale(0.120000)"/>
</g>
</g>
</g>
</g>
<g id="patch3">
<path style="fill: none; stroke: #000000; stroke-width: 1.000000; stroke-linejoin: round; stroke-linecap: square;  opacity: 1.000000"  d="M72.000000 43.200000L518.400000 43.200000"/>
</g>
<g id="patch4">
<path style="fill: none; stroke: #000000; stroke-width: 1.000000; stroke-linejoin: round; stroke-linecap: square;  opacity: 1.000000"  d="M518.400000 388.800000L518.400000 43.200000"/>
</g>
<g id="patch5">
<path style="fill: none; stroke: #000000; stroke-width: 1.000000; stroke-linejoin: round; stroke-linecap: square;  opacity: 1.000000"  d="M72.000000 388.800000L518.400000 388.800000"/>
</g>
<g id="patch6">
<path style="fill: none; stroke: #000000; stroke-width: 1.000000; stroke-linejoin: round; stroke-linecap: square;  opacity: 1.000000"  d="M72.000000 388.800000L72.000000 43.200000"/>
</g>
</g>
</g>
</svg>
