<?xml version="1.0" encoding="UTF-8" standalone="no"?>
<!-- Generated by CodeCogs Fri Mar  1 09:44:31 2013 -->

<svg
   xmlns:dc="http://purl.org/dc/elements/1.1/"
   xmlns:cc="http://creativecommons.org/ns#"
   xmlns:rdf="http://www.w3.org/1999/02/22-rdf-syntax-ns#"
   xmlns:svg="http://www.w3.org/2000/svg"
   xmlns="http://www.w3.org/2000/svg"
   xmlns:xlink="http://www.w3.org/1999/xlink"
   xmlns:sodipodi="http://sodipodi.sourceforge.net/DTD/sodipodi-0.dtd"
   xmlns:inkscape="http://www.inkscape.org/namespaces/inkscape"
   height="301.061"
   preserveAspectRatio="xMinYMin"
   version="1.1"
   viewBox="0 0 202.745 301.061"
   width="202.745"
   id="svg2"
   inkscape:version="0.48.4 r9939"
   sodipodi:docname="thevequations.svg">
  <metadata
     id="metadata315">
    <rdf:RDF>
      <cc:Work
         rdf:about="">
        <dc:format>image/svg+xml</dc:format>
        <dc:type
           rdf:resource="http://purl.org/dc/dcmitype/StillImage" />
        <dc:title />
      </cc:Work>
    </rdf:RDF>
  </metadata>
  <sodipodi:namedview
     pagecolor="#ffffff"
     bordercolor="#666666"
     borderopacity="1"
     objecttolerance="10"
     gridtolerance="10"
     guidetolerance="10"
     inkscape:pageopacity="0"
     inkscape:pageshadow="2"
     inkscape:window-width="1366"
     inkscape:window-height="710"
     id="namedview313"
     showgrid="false"
     inkscape:zoom="1.1085939"
     inkscape:cx="144.30285"
     inkscape:cy="144.12153"
     inkscape:window-x="0"
     inkscape:window-y="26"
     inkscape:window-maximized="1"
     inkscape:current-layer="svg2" />
  <defs
     id="defs4">
    <path
       d="M1.352 -0.632C1.28 -0.328 1.264 -0.264 0.672 -0.264C0.52 -0.264 0.424 -0.264 0.424 -0.112C0.424 -0 0.528 -0 0.664 -0H3.632C4.952 -0 5.936 -0.936 5.936 -1.712C5.936 -2.296 5.432 -2.768 4.632 -2.856C5.56 -3.032 6.36 -3.64 6.36 -4.344C6.36 -4.944 5.776 -5.464 4.768 -5.464H1.976C1.832 -5.464 1.728 -5.464 1.728 -5.312C1.728 -5.2 1.824 -5.2 1.96 -5.2C2.224 -5.2 2.456 -5.2 2.456 -5.072C2.456 -5.04 2.448 -5.032 2.424 -4.928L1.352 -0.632ZM2.6 -2.952L3.088 -4.904C3.16 -5.176 3.168 -5.2 3.496 -5.2H4.648C5.432 -5.2 5.608 -4.688 5.608 -4.36C5.608 -3.68 4.88 -2.952 3.856 -2.952H2.6ZM2.048 -0.264C1.976 -0.28 1.952 -0.28 1.952 -0.336C1.952 -0.4 1.968 -0.464 1.984 -0.512L2.544 -2.728H4.168C4.912 -2.728 5.16 -2.224 5.16 -1.776C5.16 -0.992 4.392 -0.264 3.432 -0.264H2.048Z"
       id="g366" />
    <path
       d="M6.368 -5.416C6.376 -5.448 6.392 -5.496 6.392 -5.536C6.392 -5.592 6.344 -5.632 6.288 -5.632S6.208 -5.608 6.144 -5.536L5.584 -4.92C5.512 -5.024 5.088 -5.632 4.152 -5.632C2.296 -5.632 0.424 -3.912 0.424 -2.072C0.424 -0.68 1.48 0.168 2.752 0.168C3.8 0.168 4.688 -0.472 5.12 -1.096C5.384 -1.488 5.488 -1.872 5.488 -1.92C5.488 -1.992 5.44 -2.024 5.368 -2.024C5.272 -2.024 5.256 -1.984 5.232 -1.896C4.896 -0.792 3.816 -0.096 2.856 -0.096C2.04 -0.096 1.184 -0.576 1.184 -1.8C1.184 -2.056 1.272 -3.392 2.16 -4.392C2.76 -5.064 3.576 -5.368 4.208 -5.368C5.216 -5.368 5.632 -4.56 5.632 -3.8C5.632 -3.688 5.6 -3.536 5.6 -3.44C5.6 -3.336 5.704 -3.336 5.736 -3.336C5.84 -3.336 5.856 -3.368 5.888 -3.512L6.368 -5.416Z"
       id="g367" />
    <path
       d="M1.336 -0.632C1.264 -0.328 1.248 -0.264 0.656 -0.264C0.504 -0.264 0.408 -0.264 0.408 -0.112C0.408 -0 0.512 -0 0.648 -0H3.4C5.088 -0 6.768 -1.616 6.768 -3.4C6.768 -4.624 5.952 -5.464 4.76 -5.464H1.96C1.816 -5.464 1.712 -5.464 1.712 -5.312C1.712 -5.2 1.808 -5.2 1.944 -5.2C2.208 -5.2 2.44 -5.2 2.44 -5.072C2.44 -5.04 2.432 -5.032 2.408 -4.928L1.336 -0.632ZM3.104 -4.904C3.176 -5.176 3.184 -5.2 3.512 -5.2H4.48C5.416 -5.2 6.048 -4.664 6.048 -3.688C6.048 -3.424 5.936 -2.12 5.24 -1.224C4.888 -0.776 4.2 -0.264 3.256 -0.264H2.064C1.992 -0.28 1.968 -0.28 1.968 -0.336C1.968 -0.4 1.984 -0.464 2 -0.512L3.104 -4.904Z"
       id="g368" />
    <path
       d="M5.992 -1.856C6.008 -1.888 6.024 -1.936 6.024 -1.968C6.024 -1.984 6.016 -2.08 5.904 -2.08C5.816 -2.08 5.808 -2.056 5.728 -1.88C5.216 -0.712 4.84 -0.264 3.536 -0.264H2.08C2.008 -0.28 1.984 -0.28 1.984 -0.336C1.984 -0.4 2 -0.464 2.016 -0.512L2.568 -2.696H3.424C4.008 -2.696 4.128 -2.6 4.128 -2.344C4.128 -2.336 4.128 -2.208 4.072 -1.984C4.056 -1.944 4.048 -1.896 4.048 -1.872C4.048 -1.864 4.056 -1.76 4.168 -1.76C4.264 -1.76 4.28 -1.808 4.312 -1.944L4.736 -3.616C4.744 -3.64 4.768 -3.76 4.768 -3.776C4.768 -3.856 4.704 -3.896 4.648 -3.896C4.544 -3.896 4.536 -3.84 4.496 -3.704C4.336 -3.08 4.12 -2.96 3.432 -2.96H2.632L3.112 -4.872C3.184 -5.16 3.192 -5.176 3.52 -5.176H4.768C5.728 -5.176 6.032 -4.984 6.032 -4.28C6.032 -4.112 5.992 -3.912 5.992 -3.76C5.992 -3.664 6.048 -3.624 6.112 -3.624C6.224 -3.624 6.232 -3.696 6.248 -3.832L6.392 -5.192C6.4 -5.232 6.4 -5.288 6.4 -5.328C6.4 -5.44 6.304 -5.44 6.16 -5.44H1.944C1.792 -5.44 1.696 -5.44 1.696 -5.288C1.696 -5.176 1.8 -5.176 1.936 -5.176C1.96 -5.176 2.104 -5.176 2.24 -5.16C2.408 -5.144 2.424 -5.12 2.424 -5.048C2.424 -5.008 2.408 -4.96 2.4 -4.92L1.328 -0.632C1.256 -0.328 1.24 -0.264 0.648 -0.264C0.496 -0.264 0.4 -0.264 0.4 -0.112C0.4 -0 0.504 -0 0.64 -0H4.968C5.168 -0 5.176 -0 5.24 -0.144L5.992 -1.856Z"
       id="g369" />
    <path
       d="M2.528 -2.592H3.36C4.016 -2.592 4.048 -2.464 4.048 -2.232C4.048 -2.176 4.048 -2.096 3.992 -1.888C3.984 -1.856 3.976 -1.792 3.976 -1.768C3.976 -1.76 3.976 -1.656 4.096 -1.656C4.192 -1.656 4.216 -1.736 4.24 -1.84L4.664 -3.552C4.672 -3.568 4.696 -3.672 4.696 -3.68C4.696 -3.712 4.672 -3.792 4.568 -3.792C4.472 -3.792 4.456 -3.72 4.432 -3.624C4.272 -3 4.088 -2.856 3.376 -2.856H2.6L3.104 -4.872C3.176 -5.16 3.184 -5.176 3.512 -5.176H4.688C5.64 -5.176 5.912 -4.976 5.912 -4.288C5.912 -4.12 5.872 -3.912 5.872 -3.76C5.872 -3.664 5.928 -3.624 5.992 -3.624C6.104 -3.624 6.112 -3.696 6.128 -3.832L6.272 -5.192C6.28 -5.232 6.28 -5.288 6.28 -5.328C6.28 -5.44 6.184 -5.44 6.04 -5.44H1.936C1.792 -5.44 1.688 -5.44 1.688 -5.296C1.688 -5.176 1.784 -5.176 1.92 -5.176C1.976 -5.176 2.088 -5.176 2.224 -5.16C2.392 -5.144 2.416 -5.128 2.416 -5.048C2.416 -5.008 2.408 -4.976 2.384 -4.888L1.32 -0.632C1.248 -0.328 1.232 -0.264 0.64 -0.264C0.488 -0.264 0.392 -0.264 0.392 -0.112C0.392 -0.08 0.416 -0 0.52 -0C0.688 -0 0.88 -0.024 1.056 -0.024H2.16C2.312 -0.016 2.6 -0 2.752 -0C2.808 -0 2.92 -0 2.92 -0.152C2.92 -0.264 2.824 -0.264 2.656 -0.264S2.424 -0.264 2.24 -0.28C2.024 -0.304 2 -0.328 2 -0.424C2 -0.432 2 -0.48 2.032 -0.6L2.528 -2.592Z"
       id="g370" />
    <path
       d="M3.616 -4.84C3.688 -5.128 3.696 -5.144 4.024 -5.144H4.632C5.464 -5.144 5.56 -4.88 5.56 -4.48C5.56 -4.28 5.512 -3.936 5.504 -3.896C5.488 -3.808 5.48 -3.736 5.48 -3.72C5.48 -3.616 5.552 -3.592 5.6 -3.592C5.688 -3.592 5.72 -3.64 5.744 -3.792L5.96 -5.296C5.96 -5.408 5.864 -5.408 5.72 -5.408H1.008C0.808 -5.408 0.792 -5.408 0.736 -5.24L0.248 -3.856C0.232 -3.816 0.208 -3.752 0.208 -3.704C0.208 -3.64 0.264 -3.592 0.328 -3.592C0.416 -3.592 0.432 -3.632 0.48 -3.768C0.936 -5.048 1.168 -5.144 2.384 -5.144H2.696C2.936 -5.144 2.944 -5.136 2.944 -5.072C2.944 -5.048 2.912 -4.888 2.904 -4.856L1.848 -0.656C1.776 -0.352 1.752 -0.264 0.92 -0.264C0.664 -0.264 0.584 -0.264 0.584 -0.112C0.584 -0.104 0.584 -0 0.72 -0C0.936 -0 1.488 -0.024 1.704 -0.024H2.384C2.608 -0.024 3.168 -0 3.392 -0C3.456 -0 3.576 -0 3.576 -0.152C3.576 -0.264 3.488 -0.264 3.272 -0.264C3.08 -0.264 3.016 -0.264 2.808 -0.28C2.552 -0.304 2.52 -0.336 2.52 -0.44C2.52 -0.472 2.528 -0.504 2.552 -0.584L3.616 -4.84Z"
       id="g384" />
    <path
       d="M2.336 -5.312C2.344 -5.328 2.368 -5.432 2.368 -5.44C2.368 -5.48 2.336 -5.552 2.24 -5.552C2.208 -5.552 1.96 -5.528 1.776 -5.512L1.328 -5.48C1.152 -5.464 1.072 -5.456 1.072 -5.312C1.072 -5.2 1.184 -5.2 1.28 -5.2C1.664 -5.2 1.664 -5.152 1.664 -5.08C1.664 -5.056 1.664 -5.04 1.624 -4.896L0.488 -0.344C0.456 -0.224 0.456 -0.176 0.456 -0.168C0.456 -0.032 0.568 0.08 0.72 0.08C0.848 0.08 0.96 -0 1.024 -0.104C1.048 -0.152 1.112 -0.408 1.152 -0.568L1.336 -1.28C1.36 -1.4 1.44 -1.704 1.464 -1.824C1.584 -2.288 1.584 -2.304 1.76 -2.56C2.032 -2.952 2.408 -3.304 2.944 -3.304C3.232 -3.304 3.4 -3.136 3.4 -2.76C3.4 -2.32 3.064 -1.408 2.912 -1.016C2.808 -0.752 2.808 -0.704 2.808 -0.6C2.808 -0.144 3.184 0.08 3.528 0.08C4.312 0.08 4.64 -1.04 4.64 -1.144C4.64 -1.224 4.576 -1.248 4.52 -1.248C4.424 -1.248 4.408 -1.192 4.384 -1.112C4.192 -0.456 3.856 -0.144 3.552 -0.144C3.424 -0.144 3.36 -0.224 3.36 -0.408S3.424 -0.768 3.504 -0.968C3.624 -1.272 3.976 -2.192 3.976 -2.64C3.976 -3.24 3.56 -3.528 2.984 -3.528C2.536 -3.528 2.112 -3.336 1.744 -2.912L2.336 -5.312Z"
       id="g3104" />
    <path
       d="M4.144 -3.016C4.176 -3.128 4.176 -3.144 4.176 -3.2C4.176 -3.4 4.016 -3.448 3.92 -3.448C3.88 -3.448 3.696 -3.44 3.592 -3.232C3.576 -3.192 3.504 -2.904 3.464 -2.736L2.984 -0.816C2.976 -0.792 2.632 -0.144 2.048 -0.144C1.656 -0.144 1.52 -0.432 1.52 -0.792C1.52 -1.256 1.792 -1.968 1.976 -2.432C2.056 -2.632 2.08 -2.704 2.08 -2.848C2.08 -3.288 1.728 -3.528 1.36 -3.528C0.568 -3.528 0.24 -2.4 0.24 -2.304C0.24 -2.232 0.296 -2.2 0.36 -2.2C0.464 -2.2 0.472 -2.248 0.496 -2.328C0.704 -3.024 1.048 -3.304 1.336 -3.304C1.456 -3.304 1.528 -3.224 1.528 -3.04C1.528 -2.872 1.464 -2.688 1.408 -2.544C1.08 -1.696 0.944 -1.288 0.944 -0.912C0.944 -0.128 1.536 0.08 2.008 0.08C2.384 0.08 2.656 -0.088 2.848 -0.272C2.736 0.176 2.656 0.488 2.352 0.872C2.088 1.2 1.768 1.408 1.408 1.408C1.272 1.408 0.968 1.384 0.808 1.144C1.232 1.112 1.264 0.752 1.264 0.704C1.264 0.512 1.12 0.408 0.952 0.408C0.776 0.408 0.496 0.544 0.496 0.936C0.496 1.312 0.84 1.632 1.408 1.632C2.224 1.632 3.144 0.976 3.384 0.008L4.144 -3.016Z"
       id="g3121" />
    <path
       d="M1.16 -0.696C1.448 -0.992 1.536 -1.08 2.24 -1.664C2.328 -1.736 2.888 -2.2 3.104 -2.408C3.608 -2.904 3.92 -3.344 3.92 -3.432C3.92 -3.504 3.856 -3.528 3.8 -3.528C3.72 -3.528 3.712 -3.512 3.632 -3.392C3.384 -3.024 3.208 -2.96 3.064 -2.96C2.912 -2.96 2.816 -3.024 2.656 -3.184C2.448 -3.384 2.288 -3.528 2.032 -3.528C1.392 -3.528 0.992 -2.808 0.992 -2.592C0.992 -2.584 0.992 -2.496 1.12 -2.496C1.2 -2.496 1.216 -2.528 1.248 -2.616C1.352 -2.848 1.696 -2.928 1.936 -2.928C2.12 -2.928 2.312 -2.88 2.504 -2.824C2.84 -2.736 2.912 -2.736 3.096 -2.736C2.928 -2.56 2.704 -2.336 2.088 -1.832C1.752 -1.552 1.416 -1.28 1.2 -1.072C0.608 -0.488 0.352 -0.096 0.352 -0.016C0.352 0.056 0.408 0.08 0.472 0.08C0.552 0.08 0.568 0.056 0.608 -0C0.768 -0.24 1.016 -0.488 1.32 -0.488C1.504 -0.488 1.584 -0.416 1.736 -0.264C1.992 -0.016 2.136 0.08 2.368 0.08C3.2 0.08 3.704 -0.912 3.704 -1.16C3.704 -1.232 3.648 -1.264 3.584 -1.264C3.496 -1.264 3.48 -1.216 3.448 -1.136C3.296 -0.736 2.856 -0.52 2.456 -0.52C2.304 -0.52 2.128 -0.56 1.888 -0.624C1.552 -0.712 1.472 -0.712 1.352 -0.712C1.272 -0.712 1.224 -0.712 1.16 -0.696Z"
       id="g3122" />
    <path
       d="M5.016 -3L7.404 -5.4C7.536 -5.532 7.56 -5.556 7.56 -5.652C7.56 -5.784 7.452 -5.892 7.32 -5.892C7.224 -5.892 7.176 -5.844 7.068 -5.736L4.668 -3.336L2.256 -5.736C2.124 -5.868 2.1 -5.892 2.004 -5.892C1.884 -5.892 1.764 -5.784 1.764 -5.652C1.764 -5.556 1.812 -5.508 1.92 -5.4L4.308 -3L1.92 -0.612C1.8 -0.492 1.764 -0.42 1.764 -0.348C1.764 -0.216 1.884 -0.108 2.004 -0.108C2.1 -0.108 2.124 -0.132 2.256 -0.264L4.656 -2.664L7.056 -0.264C7.176 -0.144 7.248 -0.108 7.32 -0.108C7.464 -0.108 7.56 -0.216 7.56 -0.348C7.56 -0.444 7.536 -0.468 7.404 -0.6L5.016 -3Z"
       id="g62" />
    <path
       d="M3.552 -3.816H5.568C7.224 -3.816 8.88 -5.04 8.88 -6.408C8.88 -7.344 8.088 -8.196 6.576 -8.196H2.868C2.64 -8.196 2.532 -8.196 2.532 -7.968C2.532 -7.848 2.64 -7.848 2.82 -7.848C3.552 -7.848 3.552 -7.752 3.552 -7.62C3.552 -7.596 3.552 -7.524 3.504 -7.344L1.884 -0.888C1.776 -0.468 1.752 -0.348 0.912 -0.348C0.684 -0.348 0.564 -0.348 0.564 -0.132C0.564 -0 0.672 -0 0.744 -0C0.972 -0 1.212 -0.024 1.44 -0.024H2.844C3.072 -0.024 3.324 -0 3.552 -0C3.648 -0 3.78 -0 3.78 -0.228C3.78 -0.348 3.672 -0.348 3.492 -0.348C2.772 -0.348 2.76 -0.432 2.76 -0.552C2.76 -0.612 2.772 -0.696 2.784 -0.756L3.552 -3.816ZM4.416 -7.38C4.524 -7.824 4.572 -7.848 5.04 -7.848H6.228C7.128 -7.848 7.872 -7.56 7.872 -6.66C7.872 -6.348 7.716 -5.328 7.164 -4.776C6.96 -4.56 6.384 -4.104 5.292 -4.104H3.6L4.416 -7.38Z"
       id="g080" />
    <path
       d="M4.416 -7.38C4.524 -7.824 4.572 -7.848 5.04 -7.848H5.904C6.936 -7.848 7.704 -7.536 7.704 -6.6C7.704 -5.988 7.392 -4.224 4.98 -4.224H3.624L4.416 -7.38ZM6.084 -4.08C7.572 -4.404 8.736 -5.364 8.736 -6.396C8.736 -7.332 7.788 -8.196 6.12 -8.196H2.868C2.628 -8.196 2.52 -8.196 2.52 -7.968C2.52 -7.848 2.604 -7.848 2.832 -7.848C3.552 -7.848 3.552 -7.752 3.552 -7.62C3.552 -7.596 3.552 -7.524 3.504 -7.344L1.884 -0.888C1.776 -0.468 1.752 -0.348 0.924 -0.348C0.648 -0.348 0.564 -0.348 0.564 -0.12C0.564 -0 0.696 -0 0.732 -0C0.948 -0 1.2 -0.024 1.428 -0.024H2.844C3.06 -0.024 3.312 -0 3.528 -0C3.624 -0 3.756 -0 3.756 -0.228C3.756 -0.348 3.648 -0.348 3.468 -0.348C2.736 -0.348 2.736 -0.444 2.736 -0.564C2.736 -0.576 2.736 -0.66 2.76 -0.756L3.564 -3.984H5.004C6.144 -3.984 6.36 -3.264 6.36 -2.868C6.36 -2.688 6.24 -2.22 6.156 -1.908C6.024 -1.356 5.988 -1.224 5.988 -0.996C5.988 -0.144 6.684 0.252 7.488 0.252C8.46 0.252 8.88 -0.936 8.88 -1.104C8.88 -1.188 8.82 -1.224 8.748 -1.224C8.652 -1.224 8.628 -1.152 8.604 -1.056C8.316 -0.204 7.824 0.012 7.524 0.012S7.032 -0.12 7.032 -0.66C7.032 -0.948 7.176 -2.04 7.188 -2.1C7.248 -2.544 7.248 -2.592 7.248 -2.688C7.248 -3.564 6.54 -3.936 6.084 -4.08Z"
       id="g082" />
    <path
       d="M7.428 -6.864C7.836 -7.512 8.208 -7.8 8.82 -7.848C8.94 -7.86 9.036 -7.86 9.036 -8.076C9.036 -8.124 9.012 -8.196 8.904 -8.196C8.688 -8.196 8.172 -8.172 7.956 -8.172C7.608 -8.172 7.248 -8.196 6.912 -8.196C6.816 -8.196 6.696 -8.196 6.696 -7.968C6.696 -7.86 6.804 -7.848 6.852 -7.848C7.296 -7.812 7.344 -7.596 7.344 -7.452C7.344 -7.272 7.176 -6.996 7.164 -6.984L3.396 -1.008L2.556 -7.476C2.556 -7.824 3.18 -7.848 3.312 -7.848C3.492 -7.848 3.6 -7.848 3.6 -8.076C3.6 -8.196 3.468 -8.196 3.432 -8.196C3.228 -8.196 2.988 -8.172 2.784 -8.172H2.112C1.236 -8.172 0.876 -8.196 0.864 -8.196C0.792 -8.196 0.648 -8.196 0.648 -7.98C0.648 -7.848 0.732 -7.848 0.924 -7.848C1.536 -7.848 1.572 -7.74 1.608 -7.44L2.568 -0.036C2.604 0.216 2.604 0.252 2.772 0.252C2.916 0.252 2.976 0.216 3.096 0.024L7.428 -6.864Z"
       id="g086" />
    <path
       d="M3.9 2.916C3.9 2.88 3.9 2.856 3.696 2.652C2.496 1.44 1.824 -0.54 1.824 -2.988C1.824 -5.316 2.388 -7.32 3.78 -8.736C3.9 -8.844 3.9 -8.868 3.9 -8.904C3.9 -8.976 3.84 -9 3.792 -9C3.636 -9 2.652 -8.136 2.064 -6.96C1.452 -5.748 1.176 -4.464 1.176 -2.988C1.176 -1.92 1.344 -0.492 1.968 0.792C2.676 2.232 3.66 3.012 3.792 3.012C3.84 3.012 3.9 2.988 3.9 2.916Z"
       id="g140" />
    <path
       d="M3.384 -2.988C3.384 -3.9 3.264 -5.388 2.592 -6.78C1.884 -8.22 0.9 -9 0.768 -9C0.72 -9 0.66 -8.976 0.66 -8.904C0.66 -8.868 0.66 -8.844 0.864 -8.64C2.064 -7.428 2.736 -5.448 2.736 -3C2.736 -0.672 2.172 1.332 0.78 2.748C0.66 2.856 0.66 2.88 0.66 2.916C0.66 2.988 0.72 3.012 0.768 3.012C0.924 3.012 1.908 2.148 2.496 0.972C3.108 -0.252 3.384 -1.548 3.384 -2.988Z"
       id="g141" />
    <path
       d="M4.788 -2.772H8.1C8.268 -2.772 8.484 -2.772 8.484 -2.988C8.484 -3.216 8.28 -3.216 8.1 -3.216H4.788V-6.528C4.788 -6.696 4.788 -6.912 4.572 -6.912C4.344 -6.912 4.344 -6.708 4.344 -6.528V-3.216H1.032C0.864 -3.216 0.648 -3.216 0.648 -3C0.648 -2.772 0.852 -2.772 1.032 -2.772H4.344V0.54C4.344 0.708 4.344 0.924 4.56 0.924C4.788 0.924 4.788 0.72 4.788 0.54V-2.772Z"
       id="g143" />
    <path
       d="M8.1 -3.888C8.268 -3.888 8.484 -3.888 8.484 -4.104C8.484 -4.332 8.28 -4.332 8.1 -4.332H1.032C0.864 -4.332 0.648 -4.332 0.648 -4.116C0.648 -3.888 0.852 -3.888 1.032 -3.888H8.1ZM8.1 -1.656C8.268 -1.656 8.484 -1.656 8.484 -1.872C8.484 -2.1 8.28 -2.1 8.1 -2.1H1.032C0.864 -2.1 0.648 -2.1 0.648 -1.884C0.648 -1.656 0.852 -1.656 1.032 -1.656H8.1Z"
       id="g161" />
    <path
       d="M2.256 -1.632C2.384 -1.752 2.72 -2.016 2.848 -2.128C3.344 -2.584 3.816 -3.024 3.816 -3.752C3.816 -4.704 3.016 -5.32 2.016 -5.32C1.056 -5.32 0.424 -4.592 0.424 -3.88C0.424 -3.488 0.736 -3.432 0.848 -3.432C1.016 -3.432 1.264 -3.552 1.264 -3.856C1.264 -4.272 0.864 -4.272 0.768 -4.272C1 -4.856 1.536 -5.056 1.928 -5.056C2.672 -5.056 3.056 -4.424 3.056 -3.752C3.056 -2.92 2.472 -2.312 1.528 -1.344L0.52 -0.304C0.424 -0.216 0.424 -0.2 0.424 -0H3.584L3.816 -1.432H3.568C3.544 -1.272 3.48 -0.872 3.384 -0.72C3.336 -0.656 2.728 -0.656 2.6 -0.656H1.176L2.256 -1.632Z"
       id="g250" />
  </defs>
  <g
     id="page1"
     transform="matrix(1.5 0 0 1.5 -58.5 -81)">
    <use
       x="56.6248"
       xlink:href="#g086"
       y="71.1181"
       id="use25" />
    <use
       x="63.4748"
       xlink:href="#g384"
       y="72.9181"
       id="use27" />
    <use
       x="69.604"
       xlink:href="#g3104"
       y="72.9181"
       id="use29" />
    <use
       x="74.5022"
       xlink:href="#g3121"
       y="72.9181"
       id="use31" />
    <use
       x="82.824"
       xlink:href="#g161"
       y="71.1181"
       id="use33" />
    <use
       x="100.15"
       xlink:href="#g086"
       y="63"
       id="use35" />
    <use
       x="107"
       xlink:href="#g369"
       y="64.8"
       id="use37" />
    <use
       x="114.178"
       xlink:href="#g140"
       y="63"
       id="use39" />
    <use
       x="118.748"
       xlink:href="#g082"
       y="63"
       id="use41" />
    <use
       x="127.691"
       xlink:href="#g368"
       y="64.8"
       id="use43" />
    <use
       x="138.067"
       xlink:href="#g143"
       y="63"
       id="use45" />
    <use
       x="149.873"
       xlink:href="#g082"
       y="63"
       id="use47" />
    <use
       x="158.816"
       xlink:href="#g367"
       y="64.8"
       id="use49" />
    <use
       x="165.94"
       xlink:href="#g141"
       y="63"
       id="use51" />
    <rect
       height="0.47998"
       width="77.6674"
       x="96.4961"
       y="67.8781"
       id="rect53" />
    <use
       x="96.4961"
       xlink:href="#g082"
       y="79.3495"
       id="use55" />
    <use
       x="105.44"
       xlink:href="#g368"
       y="81.1495"
       id="use57" />
    <use
       x="115.816"
       xlink:href="#g143"
       y="79.3495"
       id="use59" />
    <use
       x="127.621"
       xlink:href="#g082"
       y="79.3495"
       id="use61" />
    <use
       x="136.565"
       xlink:href="#g367"
       y="81.1495"
       id="use63" />
    <use
       x="146.355"
       xlink:href="#g143"
       y="79.3495"
       id="use65" />
    <use
       x="158.16"
       xlink:href="#g082"
       y="79.3495"
       id="use67" />
    <use
       x="167.104"
       xlink:href="#g370"
       y="81.1495"
       id="use69" />
    <use
       x="39"
       xlink:href="#g082"
       y="99.2676"
       id="use71" />
    <use
       x="47.9435"
       xlink:href="#g384"
       y="101.068"
       id="use73" />
    <use
       x="54.0728"
       xlink:href="#g3104"
       y="101.068"
       id="use75" />
    <use
       x="58.971"
       xlink:href="#g3121"
       y="101.068"
       id="use77" />
    <use
       x="67.2927"
       xlink:href="#g161"
       y="99.2676"
       id="use79" />
    <use
       x="83.6314"
       xlink:href="#g082"
       y="91.1495"
       id="use81" />
    <use
       x="92.575"
       xlink:href="#g370"
       y="92.9495"
       id="use83" />
    <use
       x="99.6348"
       xlink:href="#g140"
       y="91.1495"
       id="use85" />
    <use
       x="104.204"
       xlink:href="#g082"
       y="91.1495"
       id="use87" />
    <use
       x="113.148"
       xlink:href="#g368"
       y="92.9495"
       id="use89" />
    <use
       x="123.524"
       xlink:href="#g143"
       y="91.1495"
       id="use91" />
    <use
       x="135.329"
       xlink:href="#g082"
       y="91.1495"
       id="use93" />
    <use
       x="144.273"
       xlink:href="#g367"
       y="92.9495"
       id="use95" />
    <use
       x="151.396"
       xlink:href="#g141"
       y="91.1495"
       id="use97" />
    <rect
       height="0.47998"
       width="77.6674"
       x="80.9648"
       y="96.0276"
       id="rect99" />
    <use
       x="80.9648"
       xlink:href="#g082"
       y="107.499"
       id="use101" />
    <use
       x="89.9083"
       xlink:href="#g368"
       y="109.299"
       id="use103" />
    <use
       x="100.284"
       xlink:href="#g143"
       y="107.499"
       id="use105" />
    <use
       x="112.09"
       xlink:href="#g082"
       y="107.499"
       id="use107" />
    <use
       x="121.033"
       xlink:href="#g367"
       y="109.299"
       id="use109" />
    <use
       x="130.823"
       xlink:href="#g143"
       y="107.499"
       id="use111" />
    <use
       x="142.629"
       xlink:href="#g082"
       y="107.499"
       id="use113" />
    <use
       x="151.572"
       xlink:href="#g370"
       y="109.299"
       id="use115" />
    <use
       x="39"
       xlink:href="#g086"
       y="126.617"
       id="use117" />
    <use
       x="45.8499"
       xlink:href="#g3121"
       y="128.417"
       id="use119" />
    <use
       x="54.1717"
       xlink:href="#g161"
       y="126.617"
       id="use121" />
    <use
       x="82.9953"
       xlink:href="#g082"
       y="118.499"
       id="use123" />
    <use
       x="91.9388"
       xlink:href="#g366"
       y="120.299"
       id="use125" />
    <use
       x="101.911"
       xlink:href="#g62"
       y="118.499"
       id="use127" />
    <use
       x="113.911"
       xlink:href="#g086"
       y="118.499"
       id="use129" />
    <use
       x="120.761"
       xlink:href="#g384"
       y="120.299"
       id="use131" />
    <use
       x="126.89"
       xlink:href="#g3104"
       y="120.299"
       id="use133" />
    <use
       x="131.788"
       xlink:href="#g3121"
       y="120.299"
       id="use135" />
    <rect
       height="0.47998"
       width="84.0847"
       x="67.8438"
       y="123.377"
       id="rect137" />
    <use
       x="67.8438"
       xlink:href="#g082"
       y="134.848"
       id="use139" />
    <use
       x="76.7873"
       xlink:href="#g384"
       y="136.648"
       id="use141" />
    <use
       x="82.9165"
       xlink:href="#g3104"
       y="136.648"
       id="use143" />
    <use
       x="87.8148"
       xlink:href="#g3121"
       y="136.648"
       id="use145" />
    <use
       x="95.4699"
       xlink:href="#g143"
       y="134.848"
       id="use147" />
    <use
       x="107.275"
       xlink:href="#g082"
       y="134.848"
       id="use149" />
    <use
       x="116.219"
       xlink:href="#g3121"
       y="136.648"
       id="use151" />
    <use
       x="123.874"
       xlink:href="#g143"
       y="134.848"
       id="use153" />
    <use
       x="135.679"
       xlink:href="#g082"
       y="134.848"
       id="use155" />
    <use
       x="144.623"
       xlink:href="#g366"
       y="136.648"
       id="use157" />
    <use
       x="39"
       xlink:href="#g080"
       y="157.916"
       id="use159" />
    <use
       x="46.5736"
       xlink:href="#g3121"
       y="159.716"
       id="use161" />
    <use
       x="54.8953"
       xlink:href="#g161"
       y="157.916"
       id="use163" />
    <use
       x="69.5864"
       xlink:href="#g086"
       y="148.714"
       id="use165" />
    <use
       x="79.0475"
       xlink:href="#g250"
       y="144.36"
       id="use167" />
    <use
       x="76.4364"
       xlink:href="#g3121"
       y="151.681"
       id="use169" />
    <rect
       height="0.47998"
       width="16.2491"
       x="68.5674"
       y="154.676"
       id="rect171" />
    <use
       x="68.5674"
       xlink:href="#g082"
       y="166.148"
       id="use173" />
    <use
       x="77.5109"
       xlink:href="#g366"
       y="167.948"
       id="use175" />
    <use
       x="39"
       xlink:href="#g086"
       y="186.066"
       id="use177" />
    <use
       x="45.8499"
       xlink:href="#g384"
       y="187.866"
       id="use179" />
    <use
       x="51.9792"
       xlink:href="#g3104"
       y="187.866"
       id="use181" />
    <use
       x="56.8774"
       xlink:href="#g3122"
       y="187.866"
       id="use183" />
    <use
       x="65.0024"
       xlink:href="#g161"
       y="186.066"
       id="use185" />
    <use
       x="82.3289"
       xlink:href="#g086"
       y="177.948"
       id="use187" />
    <use
       x="89.1788"
       xlink:href="#g369"
       y="179.748"
       id="use189" />
    <use
       x="96.3567"
       xlink:href="#g140"
       y="177.948"
       id="use191" />
    <use
       x="100.926"
       xlink:href="#g082"
       y="177.948"
       id="use193" />
    <use
       x="109.87"
       xlink:href="#g3121"
       y="179.748"
       id="use195" />
    <use
       x="117.525"
       xlink:href="#g143"
       y="177.948"
       id="use197" />
    <use
       x="129.33"
       xlink:href="#g082"
       y="177.948"
       id="use199" />
    <use
       x="138.274"
       xlink:href="#g366"
       y="179.748"
       id="use201" />
    <use
       x="145.579"
       xlink:href="#g141"
       y="177.948"
       id="use203" />
    <rect
       height="0.47998"
       width="75.1285"
       x="78.6745"
       y="182.826"
       id="rect205" />
    <use
       x="78.6745"
       xlink:href="#g082"
       y="194.297"
       id="use207" />
    <use
       x="87.618"
       xlink:href="#g370"
       y="196.097"
       id="use209" />
    <use
       x="97.3444"
       xlink:href="#g143"
       y="194.297"
       id="use211" />
    <use
       x="109.15"
       xlink:href="#g082"
       y="194.297"
       id="use213" />
    <use
       x="118.093"
       xlink:href="#g3121"
       y="196.097"
       id="use215" />
    <use
       x="125.748"
       xlink:href="#g143"
       y="194.297"
       id="use217" />
    <use
       x="137.554"
       xlink:href="#g082"
       y="194.297"
       id="use219" />
    <use
       x="146.497"
       xlink:href="#g366"
       y="196.097"
       id="use221" />
    <use
       x="39"
       xlink:href="#g082"
       y="215.771"
       id="use223" />
    <use
       x="47.9435"
       xlink:href="#g384"
       y="217.571"
       id="use225" />
    <use
       x="54.0728"
       xlink:href="#g3104"
       y="217.571"
       id="use227" />
    <use
       x="58.971"
       xlink:href="#g3122"
       y="217.571"
       id="use229" />
    <use
       x="67.096"
       xlink:href="#g161"
       y="215.771"
       id="use231" />
    <use
       x="83.4347"
       xlink:href="#g082"
       y="207.653"
       id="use233" />
    <use
       x="92.3782"
       xlink:href="#g370"
       y="209.453"
       id="use235" />
    <use
       x="99.438"
       xlink:href="#g140"
       y="207.653"
       id="use237" />
    <use
       x="104.007"
       xlink:href="#g082"
       y="207.653"
       id="use239" />
    <use
       x="112.951"
       xlink:href="#g3121"
       y="209.453"
       id="use241" />
    <use
       x="120.606"
       xlink:href="#g143"
       y="207.653"
       id="use243" />
    <use
       x="132.411"
       xlink:href="#g082"
       y="207.653"
       id="use245" />
    <use
       x="141.355"
       xlink:href="#g366"
       y="209.453"
       id="use247" />
    <use
       x="148.661"
       xlink:href="#g141"
       y="207.653"
       id="use249" />
    <rect
       height="0.47998"
       width="75.1285"
       x="80.7681"
       y="212.531"
       id="rect251" />
    <use
       x="80.7681"
       xlink:href="#g082"
       y="224.002"
       id="use253" />
    <use
       x="89.7116"
       xlink:href="#g370"
       y="225.802"
       id="use255" />
    <use
       x="99.438"
       xlink:href="#g143"
       y="224.002"
       id="use257" />
    <use
       x="111.243"
       xlink:href="#g082"
       y="224.002"
       id="use259" />
    <use
       x="120.187"
       xlink:href="#g3121"
       y="225.802"
       id="use261" />
    <use
       x="127.842"
       xlink:href="#g143"
       y="224.002"
       id="use263" />
    <use
       x="139.647"
       xlink:href="#g082"
       y="224.002"
       id="use265" />
    <use
       x="148.591"
       xlink:href="#g366"
       y="225.802"
       id="use267" />
    <use
       x="39"
       xlink:href="#g086"
       y="244.676"
       id="use269" />
    <use
       x="45.8499"
       xlink:href="#g3122"
       y="246.476"
       id="use271" />
    <use
       x="53.9749"
       xlink:href="#g161"
       y="244.676"
       id="use273" />
    <use
       x="84.1591"
       xlink:href="#g086"
       y="236.558"
       id="use275" />
    <use
       x="91.009"
       xlink:href="#g384"
       y="238.358"
       id="use277" />
    <use
       x="97.1383"
       xlink:href="#g3104"
       y="238.358"
       id="use279" />
    <use
       x="102.036"
       xlink:href="#g3122"
       y="238.358"
       id="use281" />
    <use
       x="109.495"
       xlink:href="#g62"
       y="236.558"
       id="use283" />
    <use
       x="121.495"
       xlink:href="#g082"
       y="236.558"
       id="use285" />
    <use
       x="130.438"
       xlink:href="#g367"
       y="238.358"
       id="use287" />
    <rect
       height="0.47998"
       width="86.4268"
       x="67.647"
       y="241.436"
       id="rect289" />
    <use
       x="67.647"
       xlink:href="#g082"
       y="252.907"
       id="use291" />
    <use
       x="76.5905"
       xlink:href="#g384"
       y="254.707"
       id="use293" />
    <use
       x="82.7198"
       xlink:href="#g3104"
       y="254.707"
       id="use295" />
    <use
       x="87.618"
       xlink:href="#g3122"
       y="254.707"
       id="use297" />
    <use
       x="95.0763"
       xlink:href="#g143"
       y="252.907"
       id="use299" />
    <use
       x="106.882"
       xlink:href="#g082"
       y="252.907"
       id="use301" />
    <use
       x="115.825"
       xlink:href="#g368"
       y="254.707"
       id="use303" />
    <use
       x="126.201"
       xlink:href="#g143"
       y="252.907"
       id="use305" />
    <use
       x="138.007"
       xlink:href="#g082"
       y="252.907"
       id="use307" />
    <use
       x="146.95"
       xlink:href="#g367"
       y="254.707"
       id="use309" />
    <script
       type="text/ecmascript"
       xlink:href="http://codecogs.izyba.com/svg.js"
       id="script311" />
  </g>
  <g
     id="page1-4"
     transform="matrix(1.5,0,0,1.5,158.27314,-71.589447)">
    <use
       height="1052.3622"
       width="744.09448"
       x="56.624802"
       xlink:href="#g080"
       y="71.628403"
       id="use35-8" />
    <use
       height="1052.3622"
       width="744.09448"
       x="64.198402"
       xlink:href="#g367"
       y="73.428299"
       id="use37-1" />
    <use
       height="1052.3622"
       width="744.09448"
       x="74.655098"
       xlink:href="#g161"
       y="71.628403"
       id="use39-1" />
    <use
       height="1052.3622"
       width="744.09448"
       x="89.255096"
       xlink:href="#g086"
       y="63.5103"
       id="use41-9" />
    <use
       height="1052.3622"
       width="744.09448"
       x="98.716103"
       xlink:href="#g250"
       y="59.155602"
       id="use43-6" />
    <use
       height="1052.3622"
       width="744.09448"
       x="96.105003"
       xlink:href="#g3122"
       y="66.476898"
       id="use45-1" />
    <rect
       height="0.47997999"
       width="16.0669"
       x="88.327103"
       y="68.388397"
       id="rect47" />
    <use
       height="1052.3622"
       width="744.09448"
       x="88.327103"
       xlink:href="#g082"
       y="79.859802"
       id="use49-6" />
    <use
       height="1052.3622"
       width="744.09448"
       x="97.270699"
       xlink:href="#g367"
       y="81.659798"
       id="use51-5" />
    <use
       height="1052.3622"
       width="744.09448"
       x="39"
       xlink:href="#g082"
       y="99.777802"
       id="use53" />
    <use
       height="1052.3622"
       width="744.09448"
       x="47.943501"
       xlink:href="#g398"
       y="101.578"
       id="use55-7" />
    <use
       height="1052.3622"
       width="744.09448"
       x="51.5797"
       xlink:href="#g3114"
       y="101.578"
       id="use57-3" />
    <use
       height="1052.3622"
       width="744.09448"
       x="55.651501"
       xlink:href="#g3105"
       y="101.578"
       id="use59-6" />
    <use
       height="1052.3622"
       width="744.09448"
       x="58.545399"
       xlink:href="#g3100"
       y="101.578"
       id="use61-9" />
    <use
       height="1052.3622"
       width="744.09448"
       x="62.919102"
       xlink:href="#g3103"
       y="101.578"
       id="use63-1" />
    <use
       height="1052.3622"
       width="744.09448"
       x="67.251099"
       xlink:href="#g3101"
       y="101.578"
       id="use65-9" />
    <use
       height="1052.3622"
       width="744.09448"
       x="75.027496"
       xlink:href="#g161"
       y="99.777802"
       id="use67-8" />
    <use
       height="1052.3622"
       width="744.09448"
       x="88.6996"
       xlink:href="#g140"
       y="91.659798"
       id="use69-8" />
    <use
       height="1052.3622"
       width="744.09448"
       x="93.268997"
       xlink:href="#g082"
       y="91.659798"
       id="use71-1" />
    <use
       height="1052.3622"
       width="744.09448"
       x="102.212"
       xlink:href="#g3121"
       y="93.459702"
       id="use73-5" />
    <use
       height="1052.3622"
       width="744.09448"
       x="109.868"
       xlink:href="#g143"
       y="91.659798"
       id="use75-4" />
    <use
       height="1052.3622"
       width="744.09448"
       x="121.673"
       xlink:href="#g082"
       y="91.659798"
       id="use77-6" />
    <use
       height="1052.3622"
       width="744.09448"
       x="130.617"
       xlink:href="#g366"
       y="93.459702"
       id="use79-1" />
    <use
       height="1052.3622"
       width="744.09448"
       x="137.922"
       xlink:href="#g141"
       y="91.659798"
       id="use81-4" />
    <use
       height="1052.3622"
       width="744.09448"
       x="142.492"
       xlink:href="#g082"
       y="91.659798"
       id="use83-8" />
    <use
       height="1052.3622"
       width="744.09448"
       x="151.435"
       xlink:href="#g368"
       y="93.459702"
       id="use85-0" />
    <use
       height="1052.3622"
       width="744.09448"
       x="161.811"
       xlink:href="#g143"
       y="91.659798"
       id="use87-4" />
    <use
       height="1052.3622"
       width="744.09448"
       x="173.617"
       xlink:href="#g082"
       y="91.659798"
       id="use89-4" />
    <use
       height="1052.3622"
       width="744.09448"
       x="182.56"
       xlink:href="#g367"
       y="93.459702"
       id="use91-8" />
    <use
       height="1052.3622"
       width="744.09448"
       x="189.68401"
       xlink:href="#g141"
       y="91.659798"
       id="use93-9" />
    <use
       height="1052.3622"
       width="744.09448"
       x="194.25301"
       xlink:href="#g141"
       y="91.659798"
       id="use95-4" />
    <rect
       height="0.47997999"
       width="110.123"
       x="88.6996"
       y="96.537903"
       id="rect97" />
    <use
       height="1052.3622"
       width="744.09448"
       x="90.602303"
       xlink:href="#g082"
       y="108.009"
       id="use99" />
    <use
       height="1052.3622"
       width="744.09448"
       x="99.545898"
       xlink:href="#g3121"
       y="109.809"
       id="use101-7" />
    <use
       height="1052.3622"
       width="744.09448"
       x="107.201"
       xlink:href="#g143"
       y="108.009"
       id="use103-5" />
    <use
       height="1052.3622"
       width="744.09448"
       x="119.006"
       xlink:href="#g082"
       y="108.009"
       id="use105-3" />
    <use
       height="1052.3622"
       width="744.09448"
       x="127.95"
       xlink:href="#g366"
       y="109.809"
       id="use107-0" />
    <use
       height="1052.3622"
       width="744.09448"
       x="137.922"
       xlink:href="#g143"
       y="108.009"
       id="use109-8" />
    <use
       height="1052.3622"
       width="744.09448"
       x="149.728"
       xlink:href="#g082"
       y="108.009"
       id="use111-2" />
    <use
       height="1052.3622"
       width="744.09448"
       x="158.67101"
       xlink:href="#g367"
       y="109.809"
       id="use113-7" />
    <use
       height="1052.3622"
       width="744.09448"
       x="168.461"
       xlink:href="#g143"
       y="108.009"
       id="use115-2" />
    <use
       height="1052.3622"
       width="744.09448"
       x="180.267"
       xlink:href="#g082"
       y="108.009"
       id="use117-1" />
    <use
       height="1052.3622"
       width="744.09448"
       x="189.21001"
       xlink:href="#g368"
       y="109.809"
       id="use119-2" />
    <use
       height="1052.3622"
       width="744.09448"
       x="39"
       xlink:href="#g086"
       y="128.683"
       id="use121-9" />
    <use
       height="1052.3622"
       width="744.09448"
       x="45.849899"
       xlink:href="#g3120"
       y="130.483"
       id="use123-4" />
    <use
       height="1052.3622"
       width="744.09448"
       x="54.467999"
       xlink:href="#g161"
       y="128.683"
       id="use125-0" />
    <use
       height="1052.3622"
       width="744.09448"
       x="69.030602"
       xlink:href="#g086"
       y="120.565"
       id="use127-8" />
    <use
       height="1052.3622"
       width="744.09448"
       x="75.880501"
       xlink:href="#g369"
       y="122.365"
       id="use129-7" />
    <use
       height="1052.3622"
       width="744.09448"
       x="85.724998"
       xlink:href="#g62"
       y="120.565"
       id="use131-2" />
    <use
       height="1052.3622"
       width="744.09448"
       x="97.724998"
       xlink:href="#g082"
       y="120.565"
       id="use133-8" />
    <use
       height="1052.3622"
       width="744.09448"
       x="106.668"
       xlink:href="#g398"
       y="122.365"
       id="use135-6" />
    <use
       height="1052.3622"
       width="744.09448"
       x="110.305"
       xlink:href="#g3114"
       y="122.365"
       id="use137" />
    <use
       height="1052.3622"
       width="744.09448"
       x="114.376"
       xlink:href="#g3105"
       y="122.365"
       id="use139-3" />
    <use
       height="1052.3622"
       width="744.09448"
       x="117.27"
       xlink:href="#g3100"
       y="122.365"
       id="use141-3" />
    <use
       height="1052.3622"
       width="744.09448"
       x="121.644"
       xlink:href="#g3103"
       y="122.365"
       id="use143-0" />
    <use
       height="1052.3622"
       width="744.09448"
       x="125.976"
       xlink:href="#g3101"
       y="122.365"
       id="use145-0" />
    <rect
       height="0.47997999"
       width="63.169601"
       x="68.140099"
       y="125.443"
       id="rect147" />
    <use
       height="1052.3622"
       width="744.09448"
       x="68.140099"
       xlink:href="#g082"
       y="136.914"
       id="use149-7" />
    <use
       height="1052.3622"
       width="744.09448"
       x="77.083603"
       xlink:href="#g398"
       y="138.714"
       id="use151-7" />
    <use
       height="1052.3622"
       width="744.09448"
       x="80.719803"
       xlink:href="#g3114"
       y="138.714"
       id="use153-8" />
    <use
       height="1052.3622"
       width="744.09448"
       x="84.791603"
       xlink:href="#g3105"
       y="138.714"
       id="use155-7" />
    <use
       height="1052.3622"
       width="744.09448"
       x="87.685501"
       xlink:href="#g3100"
       y="138.714"
       id="use157-3" />
    <use
       height="1052.3622"
       width="744.09448"
       x="92.059196"
       xlink:href="#g3103"
       y="138.714"
       id="use159-4" />
    <use
       height="1052.3622"
       width="744.09448"
       x="96.391197"
       xlink:href="#g3101"
       y="138.714"
       id="use161-7" />
    <use
       height="1052.3622"
       width="744.09448"
       x="103.501"
       xlink:href="#g143"
       y="136.914"
       id="use163-4" />
    <use
       height="1052.3622"
       width="744.09448"
       x="115.306"
       xlink:href="#g082"
       y="136.914"
       id="use165-9" />
    <use
       height="1052.3622"
       width="744.09448"
       x="124.25"
       xlink:href="#g370"
       y="138.714"
       id="use167-7" />
    <use
       height="1052.3622"
       width="744.09448"
       x="39"
       xlink:href="#g080"
       y="158.89799"
       id="use169-9" />
    <use
       height="1052.3622"
       width="744.09448"
       x="46.573601"
       xlink:href="#g368"
       y="160.698"
       id="use171" />
    <use
       height="1052.3622"
       width="744.09448"
       x="57.616402"
       xlink:href="#g161"
       y="158.89799"
       id="use173-2" />
    <use
       height="1052.3622"
       width="744.09448"
       x="71.288498"
       xlink:href="#g140"
       y="150.78"
       id="use175-7" />
    <use
       height="1052.3622"
       width="744.09448"
       x="75.857803"
       xlink:href="#g086"
       y="150.78"
       id="use177-9" />
    <use
       height="1052.3622"
       width="744.09448"
       x="82.707802"
       xlink:href="#g3120"
       y="152.58"
       id="use179-6" />
    <use
       height="1052.3622"
       width="744.09448"
       x="90.659203"
       xlink:href="#g60"
       y="150.78"
       id="use181-6" />
    <use
       height="1052.3622"
       width="744.09448"
       x="102.659"
       xlink:href="#g086"
       y="150.78"
       id="use183-1" />
    <use
       height="1052.3622"
       width="744.09448"
       x="109.509"
       xlink:href="#g3122"
       y="152.58"
       id="use185-9" />
    <use
       height="1052.3622"
       width="744.09448"
       x="114.301"
       xlink:href="#g141"
       y="150.78"
       id="use187-1" />
    <use
       height="1052.3622"
       width="744.09448"
       x="118.87"
       xlink:href="#g250"
       y="146.425"
       id="use189-2" />
    <rect
       height="0.47997999"
       width="52.331799"
       x="71.288498"
       y="155.658"
       id="rect191" />
    <use
       height="1052.3622"
       width="744.09448"
       x="89.1278"
       xlink:href="#g082"
       y="167.13"
       id="use193-4" />
    <use
       height="1052.3622"
       width="744.09448"
       x="98.071404"
       xlink:href="#g368"
       y="168.92999"
       id="use195-1" />
    <use
       height="1052.3622"
       width="744.09448"
       x="39"
       xlink:href="#g080"
       y="187.558"
       id="use197-3" />
    <use
       height="1052.3622"
       width="744.09448"
       x="46.573601"
       xlink:href="#g370"
       y="189.358"
       id="use199-1" />
    <use
       height="1052.3622"
       width="744.09448"
       x="56.966599"
       xlink:href="#g161"
       y="187.558"
       id="use201-3" />
    <use
       height="1052.3622"
       width="744.09448"
       x="70.638702"
       xlink:href="#g140"
       y="179.44"
       id="use203-1" />
    <use
       height="1052.3622"
       width="744.09448"
       x="75.208099"
       xlink:href="#g086"
       y="179.44"
       id="use205" />
    <use
       height="1052.3622"
       width="744.09448"
       x="82.058098"
       xlink:href="#g3101"
       y="181.24001"
       id="use207-9" />
    <use
       height="1052.3622"
       width="744.09448"
       x="89.167801"
       xlink:href="#g60"
       y="179.44"
       id="use209-7" />
    <use
       height="1052.3622"
       width="744.09448"
       x="101.168"
       xlink:href="#g086"
       y="179.44"
       id="use211-7" />
    <use
       height="1052.3622"
       width="744.09448"
       x="108.018"
       xlink:href="#g3120"
       y="181.24001"
       id="use213-2" />
    <use
       height="1052.3622"
       width="744.09448"
       x="113.303"
       xlink:href="#g141"
       y="179.44"
       id="use215-9" />
    <use
       height="1052.3622"
       width="744.09448"
       x="117.872"
       xlink:href="#g250"
       y="175.08501"
       id="use217-4" />
    <rect
       height="0.47997999"
       width="51.9832"
       x="70.638702"
       y="184.31799"
       id="rect219" />
    <use
       height="1052.3622"
       width="744.09448"
       x="88.6287"
       xlink:href="#g082"
       y="195.789"
       id="use221-9" />
    <use
       height="1052.3622"
       width="744.09448"
       x="97.572197"
       xlink:href="#g370"
       y="197.589"
       id="use223-9" />
    <use
       height="1052.3622"
       width="744.09448"
       x="39"
       xlink:href="#g082"
       y="206.789"
       id="use225-3" />
    <use
       height="1052.3622"
       width="744.09448"
       x="47.943501"
       xlink:href="#g3116"
       y="208.589"
       id="use227-4" />
    <use
       height="1052.3622"
       width="744.09448"
       x="51.013"
       xlink:href="#g3111"
       y="208.589"
       id="use229-4" />
    <use
       height="1052.3622"
       width="744.09448"
       x="55.121399"
       xlink:href="#g3116"
       y="208.589"
       id="use231-0" />
    <use
       height="1052.3622"
       width="744.09448"
       x="58.190899"
       xlink:href="#g397"
       y="208.589"
       id="use233-8" />
    <use
       height="1052.3622"
       width="744.09448"
       x="62.705799"
       xlink:href="#g3108"
       y="208.589"
       id="use235-3" />
    <use
       height="1052.3622"
       width="744.09448"
       x="69.170998"
       xlink:href="#g161"
       y="206.789"
       id="use237-9" />
    <use
       height="1052.3622"
       width="744.09448"
       x="81.643097"
       xlink:href="#g082"
       y="206.789"
       id="use239-7" />
    <use
       height="1052.3622"
       width="744.09448"
       x="90.586601"
       xlink:href="#g370"
       y="208.589"
       id="use241-7" />
    <use
       height="1052.3622"
       width="744.09448"
       x="100.313"
       xlink:href="#g143"
       y="206.789"
       id="use243-9" />
    <use
       height="1052.3622"
       width="744.09448"
       x="112.118"
       xlink:href="#g082"
       y="206.789"
       id="use245-8" />
    <use
       height="1052.3622"
       width="744.09448"
       x="121.062"
       xlink:href="#g398"
       y="208.589"
       id="use247-5" />
    <use
       height="1052.3622"
       width="744.09448"
       x="124.698"
       xlink:href="#g3114"
       y="208.589"
       id="use249-5" />
    <use
       height="1052.3622"
       width="744.09448"
       x="128.77"
       xlink:href="#g3105"
       y="208.589"
       id="use251" />
    <use
       height="1052.3622"
       width="744.09448"
       x="131.664"
       xlink:href="#g3100"
       y="208.589"
       id="use253-2" />
    <use
       height="1052.3622"
       width="744.09448"
       x="136.03799"
       xlink:href="#g3103"
       y="208.589"
       id="use255-5" />
    <use
       height="1052.3622"
       width="744.09448"
       x="140.37"
       xlink:href="#g3101"
       y="208.589"
       id="use257-8" />
    <use
       height="1052.3622"
       width="744.09448"
       x="39"
       xlink:href="#g080"
       y="228.77299"
       id="use259-4" />
    <use
       height="1052.3622"
       width="744.09448"
       x="46.573601"
       xlink:href="#g3116"
       y="230.573"
       id="use261-9" />
    <use
       height="1052.3622"
       width="744.09448"
       x="49.643101"
       xlink:href="#g3111"
       y="230.573"
       id="use263-0" />
    <use
       height="1052.3622"
       width="744.09448"
       x="53.7514"
       xlink:href="#g3116"
       y="230.573"
       id="use265-7" />
    <use
       height="1052.3622"
       width="744.09448"
       x="56.8209"
       xlink:href="#g397"
       y="230.573"
       id="use267-2" />
    <use
       height="1052.3622"
       width="744.09448"
       x="61.3358"
       xlink:href="#g3108"
       y="230.573"
       id="use269-5" />
    <use
       height="1052.3622"
       width="744.09448"
       x="67.801102"
       xlink:href="#g161"
       y="228.77299"
       id="use271-1" />
    <use
       height="1052.3622"
       width="744.09448"
       x="87.786499"
       xlink:href="#g086"
       y="220.655"
       id="use273-2" />
    <use
       height="1052.3622"
       width="744.09448"
       x="97.247498"
       xlink:href="#g250"
       y="216.3"
       id="use275-4" />
    <use
       height="1052.3622"
       width="744.09448"
       x="94.636398"
       xlink:href="#g369"
       y="223.687"
       id="use277-8" />
    <rect
       height="0.47997999"
       width="26.8377"
       x="81.473099"
       y="225.533"
       id="rect279" />
    <use
       height="1052.3622"
       width="744.09448"
       x="81.473099"
       xlink:href="#g082"
       y="237.005"
       id="use281-4" />
    <use
       height="1052.3622"
       width="744.09448"
       x="90.416603"
       xlink:href="#g3116"
       y="238.80499"
       id="use283-3" />
    <use
       height="1052.3622"
       width="744.09448"
       x="93.486099"
       xlink:href="#g3111"
       y="238.80499"
       id="use285-2" />
    <use
       height="1052.3622"
       width="744.09448"
       x="97.594498"
       xlink:href="#g3116"
       y="238.80499"
       id="use287-5" />
    <use
       height="1052.3622"
       width="744.09448"
       x="100.664"
       xlink:href="#g397"
       y="238.80499"
       id="use289" />
    <use
       height="1052.3622"
       width="744.09448"
       x="105.179"
       xlink:href="#g3108"
       y="238.80499"
       id="use291-3" />
    <script
       type="text/ecmascript"
       xlink:href="http://codecogs.izyba.com/svg.js"
       id="script293" />
  </g>
</svg>
