<?xml version="1.0" standalone="no"?>
<!DOCTYPE svg PUBLIC "-//W3C//DTD SVG 1.1//EN"
  "http://www.w3.org/Graphics/SVG/1.1/DTD/svg11.dtd">
<!-- Created with matplotlib (http://matplotlib.sourceforge.net/) -->
<svg width="1229pt" height="603pt" viewBox="0 0 1229 603"
   xmlns="http://www.w3.org/2000/svg"
   xmlns:xlink="http://www.w3.org/1999/xlink"
   version="1.1"
   id="svg1">
<filter id="colorAdd"><feComposite in="SourceGraphic" in2="BackgroundImage" operator="arithmetic" k2="1" k3="1"/></filter>
<g id="figure1">
<g id="patch1">
<path style="fill: #ffffff; stroke: #ffffff; stroke-width: 1.000000; stroke-linejoin: round; stroke-linecap: square;  opacity: 1.000000"  d="M0.000000 603.000000L1229.400000 603.000000L1229.400000 0.000000
L0.000000 0.000000z"/>
</g>
<g id="axes1">
<g id="patch2">
<path style="fill: #ffffff; opacity: 1.000000"  d="M153.675000 542.700000L1106.460000 542.700000L1106.460000 60.300000
L153.675000 60.300000z"/>
</g>
<g id="line2d1">
<defs>
  <clipPath id="p5951099db1c2f6c1bd7efaf7467b50c5">
<rect x="153.675000" y="60.300000" width="952.785000" height="482.400000"/>
  </clipPath>
</defs><path style="fill: none; stroke: #0000ff; stroke-width: 1.000000; stroke-linejoin: round; stroke-linecap: square;  opacity: 1.000000" clip-path="url(#p5951099db1c2f6c1bd7efaf7467b50c5)" d="M232.248263 -2469592.495732M470.667340 -1.000000L470.669646 299.952264
L478.617025 299.952264L486.564404 299.952264L494.511784 299.952264
L502.459163 299.952264L510.406543 299.952264L518.353922 299.952264
L526.301302 299.952264L534.248681 299.952264L542.196060 299.952264
L550.143440 299.952264L558.090819 299.952264L566.038199 299.952264
L573.985578 299.952264L581.932958 299.952264L589.880337 299.952264
L597.827716 299.952264L605.775096 299.952264L613.722475 299.952264
L621.669855 299.952264L629.617234 299.952264L637.564614 299.952264
L645.511993 299.952264L653.459372 299.952264L661.406752 299.952264
L669.354131 299.952264L677.301511 299.952264L685.248890 299.952264
L693.196270 299.952264L701.143649 299.952264L709.091029 299.952264
L717.038408 299.952264L724.985787 299.952264L732.933167 299.952264
L740.880546 299.952264L748.827926 299.952264L756.775305 299.952264
L764.722685 299.952264L772.670064 299.952264L780.617443 299.952264
L788.564823 299.952264L788.567269 604.000000"/>
</g>
<g id="line2d2">
<path style="fill: none; stroke: #008000; stroke-width: 1.000000; stroke-linejoin: round; stroke-linecap: square;  opacity: 1.000000" clip-path="url(#p5951099db1c2f6c1bd7efaf7467b50c5)" d="M232.248263 -1761009.059509M470.666412 -1.000000L470.669646 299.952264
L478.617025 299.952264L486.564404 299.952264L494.511784 299.952264
L502.459163 299.952264L510.406543 299.952264L518.353922 299.952264
L526.301302 299.952264L534.248681 299.952264L542.196060 299.952264
L550.143440 299.952264L558.090819 299.952264L566.038199 299.952264
L573.985578 299.952264L581.932958 299.952264L589.880337 299.952264
L597.827716 299.952264L605.775096 299.952264L613.722475 299.952264
L621.669855 299.952264L629.617234 299.952264L637.564614 299.952264
L645.511993 299.952264L653.459372 299.952264L661.406752 299.952264
L669.354131 299.952264L677.301511 299.952264L685.248890 299.952264
L693.196270 299.952264L701.143649 299.952264L709.091029 299.952264
L717.038408 299.952264L724.985787 299.952264L732.933167 299.952264
L740.880546 299.952264L748.827926 299.952264L756.775305 299.952264
L764.722685 299.952264L772.670064 299.952264L780.617443 299.952264
L788.564823 299.952264L788.568253 604.000000"/>
</g>
<g id="line2d3">
<path style="fill: none; stroke: #ff0000; stroke-width: 1.000000; stroke-linejoin: round; stroke-linecap: square;  opacity: 1.000000" clip-path="url(#p5951099db1c2f6c1bd7efaf7467b50c5)" d="M232.248263 -774408.888465M470.662295 -1.000000L470.669646 299.952264
L478.617025 299.952264L486.564404 299.952264L494.511784 299.952264
L502.459163 299.952264L510.406543 299.952264L518.353922 299.952264
L526.301302 299.952264L534.248681 299.952264L542.196060 299.952264
L550.143440 299.952264L558.090819 299.952264L566.038199 299.952264
L573.985578 299.952264L581.932958 299.952264L589.880337 299.952264
L597.827716 299.952264L605.775096 299.952264L613.722475 299.952264
L621.669855 299.952264L629.617234 299.952264L637.564614 299.952264
L645.511993 299.952264L653.459372 299.952264L661.406752 299.952264
L669.354131 299.952264L677.301511 299.952264L685.248890 299.952264
L693.196270 299.952264L701.143649 299.952264L709.091029 299.952264
L717.038408 299.952264L724.985787 299.952264L732.933167 299.952264
L740.880546 299.952264L748.827926 299.952264L756.775305 299.952264
L764.722685 299.952264L772.670064 299.952264L780.617443 299.952264
L788.564823 299.952264L788.572621 604.000000"/>
</g>
<g id="line2d4">
<path style="fill: none; stroke: #00bfbf; stroke-width: 1.000000; stroke-linejoin: round; stroke-linecap: square;  opacity: 1.000000" clip-path="url(#p5951099db1c2f6c1bd7efaf7467b50c5)" d="M232.248263 -357884.554707M470.653747 -1.000000L470.669646 299.952264
L478.617025 299.952264L486.564404 299.952264L494.511784 299.952264
L502.459163 299.952264L510.406543 299.952264L518.353922 299.952264
L526.301302 299.952264L534.248681 299.952264L542.196060 299.952264
L550.143440 299.952264L558.090819 299.952264L566.038199 299.952264
L573.985578 299.952264L581.932958 299.952264L589.880337 299.952264
L597.827716 299.952264L605.775096 299.952264L613.722475 299.952264
L621.669855 299.952264L629.617234 299.952264L637.564614 299.952264
L645.511993 299.952264L653.459372 299.952264L661.406752 299.952264
L669.354131 299.952264L677.301511 299.952264L685.248890 299.952264
L693.196270 299.952264L701.143649 299.952264L709.091029 299.952264
L717.038408 299.952264L724.985787 299.952264L732.933167 299.952264
L740.880546 299.952264L748.827926 299.952264L756.775305 299.952264
L764.722685 299.952264L772.670064 299.952264L780.617443 299.952264
L788.564823 299.952264L788.581688 604.000000"/>
</g>
<g id="line2d5">
<path style="fill: none; stroke: #bf00bf; stroke-width: 1.000000; stroke-linejoin: round; stroke-linecap: square;  opacity: 1.000000" clip-path="url(#p5951099db1c2f6c1bd7efaf7467b50c5)" d="M232.248263 -119135.785277M470.621966 -1.000000L470.669646 299.952264
L478.617025 299.952264L486.564404 299.952264L494.511784 299.952264
L502.459163 299.952264L510.406543 299.952264L518.353922 299.952264
L526.301302 299.952264L534.248681 299.952264L542.196060 299.952264
L550.143440 299.952264L558.090819 299.952264L566.038199 299.952264
L573.985578 299.952264L581.932958 299.952264L589.880337 299.952264
L597.827716 299.952264L605.775096 299.952264L613.722475 299.952264
L621.669855 299.952264L629.617234 299.952264L637.564614 299.952264
L645.511993 299.952264L653.459372 299.952264L661.406752 299.952264
L669.354131 299.952264L677.301511 299.952264L685.248890 299.952264
L693.196270 299.952264L701.143649 299.952264L709.091029 299.952264
L717.038408 299.952264L724.985787 299.952264L732.933167 299.952264
L740.880546 299.952264L748.827926 299.952264L756.775305 299.952264
L764.722685 299.952264L772.670064 299.952264L780.617443 299.952264
L788.564823 299.952264L788.615402 604.000000"/>
</g>
<g id="line2d6">
<path style="fill: none; stroke: #bfbf00; stroke-width: 1.000000; stroke-linejoin: round; stroke-linecap: square;  opacity: 1.000000" clip-path="url(#p5951099db1c2f6c1bd7efaf7467b50c5)" d="M232.248263 -14389.495964M470.281971 -1.000000L470.669646 299.952264
L478.617025 299.952264L486.564404 299.952264L494.511784 299.952264
L502.459163 299.952264L510.406543 299.952264L518.353922 299.952264
L526.301302 299.952264L534.248681 299.952264L542.196060 299.952264
L550.143440 299.952264L558.090819 299.952264L566.038199 299.952264
L573.985578 299.952264L581.932958 299.952264L589.880337 299.952264
L597.827716 299.952264L605.775096 299.952264L613.722475 299.952264
L621.669855 299.952264L629.617234 299.952264L637.564614 299.952264
L645.511993 299.952264L653.459372 299.952264L661.406752 299.952264
L669.354131 299.952264L677.301511 299.952264L685.248890 299.952264
L693.196270 299.952264L701.143649 299.952264L709.091029 299.952264
L717.038408 299.952264L724.985787 299.952264L732.933167 299.952264
L740.880546 299.952264L748.827926 299.952264L756.775305 299.952264
L764.722685 299.952264L772.670064 299.952264L780.617443 299.952264
L788.564823 299.952264L788.976071 604.000000"/>
</g>
<g id="line2d7">
<path style="fill: none; stroke: #000000; stroke-width: 1.000000; stroke-linejoin: round; stroke-linecap: square;  opacity: 1.000000" clip-path="url(#p5951099db1c2f6c1bd7efaf7467b50c5)" d="M232.248263 -4159.870914M469.392788 -1.000000L470.669646 299.952264
L478.617025 299.952264L486.564404 299.952264L494.511784 299.952264
L502.459163 299.952264L510.406543 299.952264L518.353922 299.952264
L526.301302 299.952264L534.248681 299.952264L542.196060 299.952264
L550.143440 299.952264L558.090819 299.952264L566.038199 299.952264
L573.985578 299.952264L581.932958 299.952264L589.880337 299.952264
L597.827716 299.952264L605.775096 299.952264L613.722475 299.952264
L621.669855 299.952264L629.617234 299.952264L637.564614 299.952264
L645.511993 299.952264L653.459372 299.952264L661.406752 299.952264
L669.354131 299.952264L677.301511 299.952264L685.248890 299.952264
L693.196270 299.952264L701.143649 299.952264L709.091029 299.952264
L717.038408 299.952264L724.985787 299.952264L732.933167 299.952264
L740.880546 299.952264L748.827926 299.952264L756.775305 299.952264
L764.722685 299.952264L772.670064 299.952264L780.617443 299.952264
L788.564823 299.952264L789.919278 604.000000"/>
</g>
<g id="line2d8">
<path style="fill: none; stroke: #0000ff; stroke-width: 1.000000; stroke-linejoin: round; stroke-linecap: square;  opacity: 1.000000" clip-path="url(#p5951099db1c2f6c1bd7efaf7467b50c5)" d="M232.248263 -2565.895743M468.682406 -1.000000L470.669646 299.952264
L478.617025 299.952264L486.564404 299.952264L494.511784 299.952264
L502.459163 299.952264L510.406543 299.952264L518.353922 299.952264
L526.301302 299.952264L534.248681 299.952264L542.196060 299.952264
L550.143440 299.952264L558.090819 299.952264L566.038199 299.952264
L573.985578 299.952264L581.932958 299.952264L589.880337 299.952264
L597.827716 299.952264L605.775096 299.952264L613.722475 299.952264
L621.669855 299.952264L629.617234 299.952264L637.564614 299.952264
L645.511993 299.952264L653.459372 299.952264L661.406752 299.952264
L669.354131 299.952264L677.301511 299.952264L685.248890 299.952264
L693.196270 299.952264L701.143649 299.952264L709.091029 299.952264
L717.038408 299.952264L724.985787 299.952264L732.933167 299.952264
L740.880546 299.952264L748.827926 299.952264L756.775305 299.952264
L764.722685 299.952264L772.670064 299.952264L780.617443 299.952264
L788.564823 299.952264L790.672823 604.000000"/>
</g>
<g id="line2d9">
<path style="fill: none; stroke: #008000; stroke-width: 1.000000; stroke-linejoin: round; stroke-linecap: square;  opacity: 1.000000" clip-path="url(#p5951099db1c2f6c1bd7efaf7467b50c5)" d="M232.248263 -1928.161879M468.113969 -1.000000L470.669646 299.952264
L478.617025 299.952264L486.564404 299.952264L494.511784 299.952264
L502.459163 299.952264L510.406543 299.952264L518.353922 299.952264
L526.301302 299.952264L534.248681 299.952264L542.196060 299.952264
L550.143440 299.952264L558.090819 299.952264L566.038199 299.952264
L573.985578 299.952264L581.932958 299.952264L589.880337 299.952264
L597.827716 299.952264L605.775096 299.952264L613.722475 299.952264
L621.669855 299.952264L629.617234 299.952264L637.564614 299.952264
L645.511993 299.952264L653.459372 299.952264L661.406752 299.952264
L669.354131 299.952264L677.301511 299.952264L685.248890 299.952264
L693.196270 299.952264L701.143649 299.952264L709.091029 299.952264
L717.038408 299.952264L724.985787 299.952264L732.933167 299.952264
L740.880546 299.952264L748.827926 299.952264L756.775305 299.952264
L764.722685 299.952264L772.670064 299.952264L780.617443 299.952264
L788.564823 299.952264L791.275919 604.000000"/>
</g>
<g id="line2d10">
<path style="fill: none; stroke: #ff0000; stroke-width: 1.000000; stroke-linejoin: round; stroke-linecap: square;  opacity: 1.000000" clip-path="url(#p5951099db1c2f6c1bd7efaf7467b50c5)" d="M232.248263 -1894.849212M468.074763 -1.000000L470.669646 299.952264
L478.617025 299.952264L486.564404 299.952264L494.511784 299.952264
L502.459163 299.952264L510.406543 299.952264L518.353922 299.952264
L526.301302 299.952264L534.248681 299.952264L542.196060 299.952264
L550.143440 299.952264L558.090819 299.952264L566.038199 299.952264
L573.985578 299.952264L581.932958 299.952264L589.880337 299.952264
L597.827716 299.952264L605.775096 299.952264L613.722475 299.952264
L621.669855 299.952264L629.617234 299.952264L637.564614 299.952264
L645.511993 299.952264L653.459372 299.952264L661.406752 299.952264
L669.354131 299.952264L677.301511 299.952264L685.248890 299.952264
L693.196270 299.952264L701.143649 299.952264L709.091029 299.952264
L717.038408 299.952264L724.985787 299.952264L732.933167 299.952264
L740.880546 299.952264L748.827926 299.952264L756.775305 299.952264
L764.722685 299.952264L772.670064 299.952264L780.617443 299.952264
L788.564823 299.952264L791.317366 604.000000"/>
</g>
<g id="line2d11">
<path style="fill: none; stroke: #00bfbf; stroke-width: 1.000000; stroke-linejoin: round; stroke-linecap: square;  opacity: 1.000000" clip-path="url(#p5951099db1c2f6c1bd7efaf7467b50c5)" d="M232.248263 -1096.543499M466.591216 -1.000000L470.669646 299.952264
L478.617025 299.952264L486.564404 299.952264L494.511784 299.952264
L502.459163 299.952264L510.406543 299.952264L518.353922 299.952264
L526.301302 299.952264L534.248681 299.952264L542.196060 299.952264
L550.143440 299.952264L558.090819 299.952264L566.038199 299.952264
L573.985578 299.952264L581.932958 299.952264L589.880337 299.952264
L597.827716 299.952264L605.775096 299.952264L613.722475 299.952264
L621.669855 299.952264L629.617234 299.952264L637.564614 299.952264
L645.511993 299.952264L653.459372 299.952264L661.406752 299.952264
L669.354131 299.952264L677.301511 299.952264L685.248890 299.952264
L693.196270 299.952264L701.143649 299.952264L709.091029 299.952264
L717.038408 299.952264L724.985787 299.952264L732.933167 299.952264
L740.880546 299.952264L748.827926 299.952264L756.775305 299.952264
L764.722685 299.952264L772.670064 299.952264L780.617443 299.952264
L788.564823 299.952264L792.890248 604.000000"/>
</g>
<g id="line2d12">
<path style="fill: none; stroke: #bf00bf; stroke-width: 1.000000; stroke-linejoin: round; stroke-linecap: square;  opacity: 1.000000" clip-path="url(#p5951099db1c2f6c1bd7efaf7467b50c5)" d="M232.248263 -631.843776M464.558245 -1.000000L470.669646 299.952264
L478.617025 299.952264L486.564404 299.952264L494.511784 299.952264
L502.459163 299.952264L510.406543 299.952264L518.353922 299.952264
L526.301302 299.952264L534.248681 299.952264L542.196060 299.952264
L550.143440 299.952264L558.090819 299.952264L566.038199 299.952264
L573.985578 299.952264L581.932958 299.952264L589.880337 299.952264
L597.827716 299.952264L605.775096 299.952264L613.722475 299.952264
L621.669855 299.952264L629.617234 299.952264L637.564614 299.952264
L645.511993 299.952264L653.459372 299.952264L661.406752 299.952264
L669.354131 299.952264L677.301511 299.952264L685.248890 299.952264
L693.196270 299.952264L701.143649 299.952264L709.091029 299.952264
L717.038408 299.952264L724.985787 299.952264L732.933167 299.952264
L740.880546 299.952264L748.827926 299.952264L756.775305 299.952264
L764.722685 299.952264L772.670064 299.952264L780.617443 299.952264
L788.564823 299.952264L795.044622 604.000000"/>
</g>
<g id="line2d13">
<path style="fill: none; stroke: #bfbf00; stroke-width: 1.000000; stroke-linejoin: round; stroke-linecap: square;  opacity: 1.000000" clip-path="url(#p5951099db1c2f6c1bd7efaf7467b50c5)" d="M232.248263 -308.063825M432.879937 -1.000000L438.880128 8.047023
L446.827507 20.269656L454.774887 32.492289L462.722266 44.475263
L470.669646 299.952264L478.617025 299.952264L486.564404 299.952264
L494.511784 299.952264L502.459163 299.952264L510.406543 299.952264
L518.353922 299.952264L526.301302 299.952264L534.248681 299.952264
L542.196060 299.952264L550.143440 299.952264L558.090819 299.952264
L566.038199 299.952264L573.985578 299.952264L581.932958 299.952264
L589.880337 299.952264L597.827716 299.952264L605.775096 299.952264
L613.722475 299.952264L621.669855 299.952264L629.617234 299.952264
L637.564614 299.952264L645.511993 299.952264L653.459372 299.952264
L661.406752 299.952264L669.354131 299.952264L677.301511 299.952264
L685.248890 299.952264L693.196270 299.952264L701.143649 299.952264
L709.091029 299.952264L717.038408 299.952264L724.985787 299.952264
L732.933167 299.952264L740.880546 299.952264L748.827926 299.952264
L756.775305 299.952264L764.722685 299.952264L772.670064 299.952264
L780.617443 299.952264L788.564823 299.952264L796.512202 543.206632
L804.459582 555.189605L812.406961 567.412239L820.354341 579.634872
L828.301720 591.857505L836.249099 603.840479L836.352823 604.000000"/>
</g>
<g id="line2d14">
<path style="fill: none; stroke: #000000; stroke-width: 1.000000; stroke-linejoin: round; stroke-linecap: square;  opacity: 1.000000" clip-path="url(#p5951099db1c2f6c1bd7efaf7467b50c5)" d="M232.248263 -138.864235M357.097407 -1.000000L359.406334 1.576217
L367.353713 10.443618L375.301092 19.071359L383.248472 27.938759
L391.195851 36.566501L399.143231 45.433901L407.090610 54.301302
L415.037990 62.929043L422.985369 71.796443L430.932748 80.424185
L438.880128 89.291585L446.827507 98.158986L454.774887 106.786727
L462.722266 115.654127L470.669646 299.952264L478.617025 299.952264
L486.564404 299.952264L494.511784 299.952264L502.459163 299.952264
L510.406543 299.952264L518.353922 299.952264L526.301302 299.952264
L534.248681 299.952264L542.196060 299.952264L550.143440 299.952264
L558.090819 299.952264L566.038199 299.952264L573.985578 299.952264
L581.932958 299.952264L589.880337 299.952264L597.827716 299.952264
L605.775096 299.952264L613.722475 299.952264L621.669855 299.952264
L629.617234 299.952264L637.564614 299.952264L645.511993 299.952264
L653.459372 299.952264L661.406752 299.952264L669.354131 299.952264
L677.301511 299.952264L685.248890 299.952264L693.196270 299.952264
L701.143649 299.952264L709.091029 299.952264L717.038408 299.952264
L724.985787 299.952264L732.933167 299.952264L740.880546 299.952264
L748.827926 299.952264L756.775305 299.952264L764.722685 299.952264
L772.670064 299.952264L780.617443 299.952264L788.564823 299.952264
L796.512202 475.383000L804.459582 484.250401L812.406961 493.117801
L820.354341 501.745542L828.301720 510.612943L836.249099 519.480344
L844.196479 528.108085L852.143858 536.975485L860.091238 545.603226
L868.038617 554.470627L875.985997 563.098368L883.933376 571.965769
L891.880755 580.833169L899.828135 589.460910L907.775514 598.328311
L912.858747 604.000000"/>
</g>
<g id="line2d15">
<path style="fill: none; stroke: #0000ff; stroke-width: 1.000000; stroke-linejoin: round; stroke-linecap: square;  opacity: 1.000000" clip-path="url(#p5951099db1c2f6c1bd7efaf7467b50c5)" d="M232.248263 -19.513817M255.281096 -1.000000L256.090401 -0.341059
L264.037780 6.129747L271.985160 12.360894L279.932539 18.831699
L287.879919 25.302505L295.827298 31.533652L303.774678 38.004457
L311.722057 44.475263L319.669436 50.706410L327.616816 57.177215
L335.564195 63.648021L343.511575 69.879168L351.458954 76.349973
L359.406334 82.581120L367.353713 89.051926L375.301092 95.522731
L383.248472 101.993537L391.195851 108.224684L399.143231 114.695490
L407.090610 121.166295L415.037990 127.397442L422.985369 133.868248
L430.932748 140.339053L438.880128 146.570200L446.827507 153.041006
L454.774887 159.511811L462.722266 165.742958L470.669646 299.952264
L478.617025 299.952264L486.564404 299.952264L494.511784 299.952264
L502.459163 299.952264L510.406543 299.952264L518.353922 299.952264
L526.301302 299.952264L534.248681 299.952264L542.196060 299.952264
L550.143440 299.952264L558.090819 299.952264L566.038199 299.952264
L573.985578 299.952264L581.932958 299.952264L589.880337 299.952264
L597.827716 299.952264L605.775096 299.952264L613.722475 299.952264
L621.669855 299.952264L629.617234 299.952264L637.564614 299.952264
L645.511993 299.952264L653.459372 299.952264L661.406752 299.952264
L669.354131 299.952264L677.301511 299.952264L685.248890 299.952264
L693.196270 299.952264L701.143649 299.952264L709.091029 299.952264
L717.038408 299.952264L724.985787 299.952264L732.933167 299.952264
L740.880546 299.952264L748.827926 299.952264L756.775305 299.952264
L764.722685 299.952264L772.670064 299.952264L780.617443 299.952264
L788.564823 299.952264L796.512202 427.930424L804.459582 434.161570
L812.406961 440.632376L820.354341 447.103182L828.301720 453.334328
L836.249099 459.805134L844.196479 466.275940L852.143858 472.507086
L860.091238 478.977892L868.038617 485.209039L875.985997 491.679844
L883.933376 498.150650L891.880755 504.621456L899.828135 510.852602
L907.775514 517.323408L915.722894 523.554555L923.670273 530.025360
L931.617653 536.496166L939.565032 542.966972L947.512411 549.198118
L955.459791 555.668924L963.407170 562.139730L971.354550 568.370877
L979.301929 574.841682L987.249309 581.072829L995.196688 587.543635
L1003.144067 594.014440L1011.091447 600.485246L1015.574263 604.000000"/>
</g>
<g id="line2d16">
<path style="fill: none; stroke: #008000; stroke-width: 1.000000; stroke-linejoin: round; stroke-linecap: square;  opacity: 1.000000" clip-path="url(#p5951099db1c2f6c1bd7efaf7467b50c5)" d="M232.248263 178.205251L240.195642 180.601845L248.143022 182.998440
L256.090401 185.395035L264.037780 188.031289L271.985160 190.427884
L279.932539 192.824479L287.879919 195.221073L295.827298 197.617668
L303.774678 200.014263L311.722057 202.650517L319.669436 205.047112
L327.616816 207.443707L335.564195 209.840301L343.511575 212.236896
L351.458954 214.873150L359.406334 217.269745L367.353713 219.666340
L375.301092 222.062935L383.248472 224.459529L391.195851 226.856124
L399.143231 229.492378L407.090610 231.888973L415.037990 234.285568
L422.985369 236.682163L430.932748 239.078757L438.880128 241.475352
L446.827507 244.111606L454.774887 246.508201L462.722266 248.904796
L470.669646 299.952264L478.617025 299.952264L486.564404 299.952264
L494.511784 299.952264L502.459163 299.952264L510.406543 299.952264
L518.353922 299.952264L526.301302 299.952264L534.248681 299.952264
L542.196060 299.952264L550.143440 299.952264L558.090819 299.952264
L566.038199 299.952264L573.985578 299.952264L581.932958 299.952264
L589.880337 299.952264L597.827716 299.952264L605.775096 299.952264
L613.722475 299.952264L621.669855 299.952264L629.617234 299.952264
L637.564614 299.952264L645.511993 299.952264L653.459372 299.952264
L661.406752 299.952264L669.354131 299.952264L677.301511 299.952264
L685.248890 299.952264L693.196270 299.952264L701.143649 299.952264
L709.091029 299.952264L717.038408 299.952264L724.985787 299.952264
L732.933167 299.952264L740.880546 299.952264L748.827926 299.952264
L756.775305 299.952264L764.722685 299.952264L772.670064 299.952264
L780.617443 299.952264L788.564823 299.952264L796.512202 348.842797
L804.459582 351.239392L812.406961 353.635987L820.354341 356.032581
L828.301720 358.668836L836.249099 361.065430L844.196479 363.462025
L852.143858 365.858620L860.091238 368.255215L868.038617 370.651809
L875.985997 373.288064L883.933376 375.684658L891.880755 378.081253
L899.828135 380.477848L907.775514 382.874443L915.722894 385.271037
L923.670273 387.907292L931.617653 390.303886L939.565032 392.700481
L947.512411 395.097076L955.459791 397.493671L963.407170 399.890265
L971.354550 402.526520L979.301929 404.923114L987.249309 407.319709
L995.196688 409.716304L1003.144067 412.112899L1011.091447 414.749153
L1019.038826 417.145748"/>
</g>
<g id="line2d17">
<path style="fill: none; stroke: #ff0000; stroke-width: 1.000000; stroke-linejoin: round; stroke-linecap: square;  opacity: 1.000000" clip-path="url(#p5951099db1c2f6c1bd7efaf7467b50c5)" d="M232.248263 178.205251L240.195642 180.601845L248.143022 182.998440
L256.090401 185.395035L264.037780 187.791630L271.985160 190.427884
L279.932539 192.824479L287.879919 195.221073L295.827298 197.617668
L303.774678 200.014263L311.722057 202.410858L319.669436 205.047112
L327.616816 207.443707L335.564195 209.840301L343.511575 212.236896
L351.458954 214.633491L359.406334 217.030086L367.353713 219.426680
L375.301092 222.062935L383.248472 224.459529L391.195851 226.856124
L399.143231 229.252719L407.090610 231.649314L415.037990 234.045908
L422.985369 236.682163L430.932748 239.078757L438.880128 241.475352
L446.827507 243.871947L454.774887 246.268542L462.722266 248.665136
L470.669646 299.952264L478.617025 299.952264L486.564404 299.952264
L494.511784 299.952264L502.459163 299.952264L510.406543 299.952264
L518.353922 299.952264L526.301302 299.952264L534.248681 299.952264
L542.196060 299.952264L550.143440 299.952264L558.090819 299.952264
L566.038199 299.952264L573.985578 299.952264L581.932958 299.952264
L589.880337 299.952264L597.827716 299.952264L605.775096 299.952264
L613.722475 299.952264L621.669855 299.952264L629.617234 299.952264
L637.564614 299.952264L645.511993 299.952264L653.459372 299.952264
L661.406752 299.952264L669.354131 299.952264L677.301511 299.952264
L685.248890 299.952264L693.196270 299.952264L701.143649 299.952264
L709.091029 299.952264L717.038408 299.952264L724.985787 299.952264
L732.933167 299.952264L740.880546 299.952264L748.827926 299.952264
L756.775305 299.952264L764.722685 299.952264L772.670064 299.952264
L780.617443 299.952264L788.564823 299.952264L796.512202 348.603138
L804.459582 350.999732L812.406961 353.396327L820.354341 355.792922
L828.301720 358.429176L836.249099 360.825771L844.196479 363.222366
L852.143858 365.618960L860.091238 368.015555L868.038617 370.412150
L875.985997 373.048404L883.933376 375.444999L891.880755 377.841594
L899.828135 380.238188L907.775514 382.634783L915.722894 385.031378
L923.670273 387.667632L931.617653 390.064227L939.565032 392.460822
L947.512411 394.857416L955.459791 397.254011L963.407170 399.650606
L971.354550 402.286860L979.301929 404.683455L987.249309 407.080050
L995.196688 409.476644L1003.144067 411.873239L1011.091447 414.269834
L1019.038826 416.906088"/>
</g>
<g id="matplotlib.axis1">
<g id="xtick1">
<g id="line2d18">
<path style="fill: none; stroke: #000000; stroke-width: 0.500000; stroke-linejoin: round; stroke-linecap: butt; stroke-dasharray: 1.000000,3.000000; stroke-dashoffset: 0.000000; opacity: 1.000000" clip-path="url(#p5951099db1c2f6c1bd7efaf7467b50c5)" d="M311.722057 542.700000L311.722057 60.300000"/>
</g>
<g id="line2d19">
<defs><path id="m30e32995789d870ad79a2e54c91cf9c6" d="M0.000000 0.000000L0.000000 -4.000000"/></defs>
<g ><use style="fill: none; stroke: #000000; stroke-width: 0.500000; stroke-linejoin: round; stroke-linecap: butt;  opacity: 1.000000" xlink:href="#m30e32995789d870ad79a2e54c91cf9c6" x="311.722057" y="542.700000"/>
</g></g>
<g id="line2d20">
<defs><path id="m9281cae24120827b11d5ea8a7ad3e96b" d="M0.000000 0.000000L0.000000 4.000000"/></defs>
<g ><use style="fill: none; stroke: #000000; stroke-width: 0.500000; stroke-linejoin: round; stroke-linecap: butt;  opacity: 1.000000" xlink:href="#m9281cae24120827b11d5ea8a7ad3e96b" x="311.722057" y="60.300000"/>
</g></g>
<g id="text1">
<defs>
<path id="c_6a8d56c819c37117ab4cf023bec22a5a" d="M10.593750 -35.500000l62.593750 0.000000l0.000000 8.296875l-62.593750 0.000000z"/>
<path id="c_7a2040fe3b94fcd41d0a72c84e93b115" d="M31.781250 -66.406250q-7.609375 0.000000 -11.453125 7.500000q-3.828125 7.484375 -3.828125 22.531250q0.000000 14.984375 3.828125 22.484375q3.843750 7.500000 11.453125 7.500000q7.671875 0.000000 11.500000 -7.500000q3.843750 -7.500000 3.843750 -22.484375q0.000000 -15.046875 -3.843750 -22.531250q-3.828125 -7.500000 -11.500000 -7.500000M31.781250 -74.218750q12.265625 0.000000 18.734375 9.703125q6.468750 9.687500 6.468750 28.140625q0.000000 18.406250 -6.468750 28.109375q-6.468750 9.687500 -18.734375 9.687500q-12.250000 0.000000 -18.718750 -9.687500q-6.468750 -9.703125 -6.468750 -28.109375q0.000000 -18.453125 6.468750 -28.140625q6.468750 -9.703125 18.718750 -9.703125"/>
<path id="c_ed3e21196fb739f392806f09ca0594ef" d="M10.687500 -12.406250l10.312500 0.000000l0.000000 12.406250l-10.312500 0.000000z"/>
<path id="c_a0416418d96557a09b8c1332d34883ba" d="M37.796875 -64.312500l-24.906250 38.921875l24.906250 0.000000zM35.203125 -72.906250l12.406250 0.000000l0.000000 47.515625l10.406250 0.000000l0.000000 8.203125l-10.406250 0.000000l0.000000 17.187500l-9.812500 0.000000l0.000000 -17.187500l-32.906250 0.000000l0.000000 -9.515625z"/>
</defs>
<g style="fill: #000000; opacity: 1.000000" transform="translate(298.112682,555.606250)scale(0.120000)">
<use xlink:href="#c_6a8d56c819c37117ab4cf023bec22a5a"/>
<use xlink:href="#c_7a2040fe3b94fcd41d0a72c84e93b115" x="83.789062"/>
<use xlink:href="#c_ed3e21196fb739f392806f09ca0594ef" x="147.412109"/>
<use xlink:href="#c_a0416418d96557a09b8c1332d34883ba" x="179.199219"/>
</g>
</g>
</g>
<g id="xtick2">
<g id="line2d21">
<path style="fill: none; stroke: #000000; stroke-width: 0.500000; stroke-linejoin: round; stroke-linecap: butt; stroke-dasharray: 1.000000,3.000000; stroke-dashoffset: 0.000000; opacity: 1.000000" clip-path="url(#p5951099db1c2f6c1bd7efaf7467b50c5)" d="M470.669646 542.700000L470.669646 60.300000"/>
</g>
<g id="line2d22">
<g ><use style="fill: none; stroke: #000000; stroke-width: 0.500000; stroke-linejoin: round; stroke-linecap: butt;  opacity: 1.000000" xlink:href="#m30e32995789d870ad79a2e54c91cf9c6" x="470.669646" y="542.700000"/>
</g></g>
<g id="line2d23">
<g ><use style="fill: none; stroke: #000000; stroke-width: 0.500000; stroke-linejoin: round; stroke-linecap: butt;  opacity: 1.000000" xlink:href="#m9281cae24120827b11d5ea8a7ad3e96b" x="470.669646" y="60.300000"/>
</g></g>
<g id="text2">
<defs>
<path id="c_ed3f3ed3ebfbd18bcb9c012009a68ad1" d="M19.187500 -8.296875l34.421875 0.000000l0.000000 8.296875l-46.281250 0.000000l0.000000 -8.296875q5.609375 -5.812500 15.296875 -15.593750q9.703125 -9.796875 12.187500 -12.640625q4.734375 -5.312500 6.609375 -9.000000q1.890625 -3.687500 1.890625 -7.250000q0.000000 -5.812500 -4.078125 -9.468750q-4.078125 -3.671875 -10.625000 -3.671875q-4.640625 0.000000 -9.796875 1.609375q-5.140625 1.609375 -11.000000 4.890625l0.000000 -9.968750q5.953125 -2.390625 11.125000 -3.609375q5.187500 -1.218750 9.484375 -1.218750q11.328125 0.000000 18.062500 5.671875q6.734375 5.656250 6.734375 15.125000q0.000000 4.500000 -1.687500 8.531250q-1.671875 4.015625 -6.125000 9.484375q-1.218750 1.421875 -7.765625 8.187500q-6.531250 6.765625 -18.453125 18.921875"/>
</defs>
<g style="fill: #000000; opacity: 1.000000" transform="translate(457.325896,555.606250)scale(0.120000)">
<use xlink:href="#c_6a8d56c819c37117ab4cf023bec22a5a"/>
<use xlink:href="#c_7a2040fe3b94fcd41d0a72c84e93b115" x="83.789062"/>
<use xlink:href="#c_ed3e21196fb739f392806f09ca0594ef" x="147.412109"/>
<use xlink:href="#c_ed3f3ed3ebfbd18bcb9c012009a68ad1" x="179.199219"/>
</g>
</g>
</g>
<g id="xtick3">
<g id="line2d24">
<path style="fill: none; stroke: #000000; stroke-width: 0.500000; stroke-linejoin: round; stroke-linecap: butt; stroke-dasharray: 1.000000,3.000000; stroke-dashoffset: 0.000000; opacity: 1.000000" clip-path="url(#p5951099db1c2f6c1bd7efaf7467b50c5)" d="M629.617234 542.700000L629.617234 60.300000"/>
</g>
<g id="line2d25">
<g ><use style="fill: none; stroke: #000000; stroke-width: 0.500000; stroke-linejoin: round; stroke-linecap: butt;  opacity: 1.000000" xlink:href="#m30e32995789d870ad79a2e54c91cf9c6" x="629.617234" y="542.700000"/>
</g></g>
<g id="line2d26">
<g ><use style="fill: none; stroke: #000000; stroke-width: 0.500000; stroke-linejoin: round; stroke-linecap: butt;  opacity: 1.000000" xlink:href="#m9281cae24120827b11d5ea8a7ad3e96b" x="629.617234" y="60.300000"/>
</g></g>
<g id="text3">
<g style="fill: #000000; opacity: 1.000000" transform="translate(620.867234,555.606250)scale(0.120000)">
<use xlink:href="#c_7a2040fe3b94fcd41d0a72c84e93b115"/>
<use xlink:href="#c_ed3e21196fb739f392806f09ca0594ef" x="63.623047"/>
<use xlink:href="#c_7a2040fe3b94fcd41d0a72c84e93b115" x="95.410156"/>
</g>
</g>
</g>
<g id="xtick4">
<g id="line2d27">
<path style="fill: none; stroke: #000000; stroke-width: 0.500000; stroke-linejoin: round; stroke-linecap: butt; stroke-dasharray: 1.000000,3.000000; stroke-dashoffset: 0.000000; opacity: 1.000000" clip-path="url(#p5951099db1c2f6c1bd7efaf7467b50c5)" d="M788.564823 542.700000L788.564823 60.300000"/>
</g>
<g id="line2d28">
<g ><use style="fill: none; stroke: #000000; stroke-width: 0.500000; stroke-linejoin: round; stroke-linecap: butt;  opacity: 1.000000" xlink:href="#m30e32995789d870ad79a2e54c91cf9c6" x="788.564823" y="542.700000"/>
</g></g>
<g id="line2d29">
<g ><use style="fill: none; stroke: #000000; stroke-width: 0.500000; stroke-linejoin: round; stroke-linecap: butt;  opacity: 1.000000" xlink:href="#m9281cae24120827b11d5ea8a7ad3e96b" x="788.564823" y="60.300000"/>
</g></g>
<g id="text4">
<g style="fill: #000000; opacity: 1.000000" transform="translate(780.017948,555.606250)scale(0.120000)">
<use xlink:href="#c_7a2040fe3b94fcd41d0a72c84e93b115"/>
<use xlink:href="#c_ed3e21196fb739f392806f09ca0594ef" x="63.623047"/>
<use xlink:href="#c_ed3f3ed3ebfbd18bcb9c012009a68ad1" x="95.410156"/>
</g>
</g>
</g>
<g id="xtick5">
<g id="line2d30">
<path style="fill: none; stroke: #000000; stroke-width: 0.500000; stroke-linejoin: round; stroke-linecap: butt; stroke-dasharray: 1.000000,3.000000; stroke-dashoffset: 0.000000; opacity: 1.000000" clip-path="url(#p5951099db1c2f6c1bd7efaf7467b50c5)" d="M947.512411 542.700000L947.512411 60.300000"/>
</g>
<g id="line2d31">
<g ><use style="fill: none; stroke: #000000; stroke-width: 0.500000; stroke-linejoin: round; stroke-linecap: butt;  opacity: 1.000000" xlink:href="#m30e32995789d870ad79a2e54c91cf9c6" x="947.512411" y="542.700000"/>
</g></g>
<g id="line2d32">
<g ><use style="fill: none; stroke: #000000; stroke-width: 0.500000; stroke-linejoin: round; stroke-linecap: butt;  opacity: 1.000000" xlink:href="#m9281cae24120827b11d5ea8a7ad3e96b" x="947.512411" y="60.300000"/>
</g></g>
<g id="text5">
<g style="fill: #000000; opacity: 1.000000" transform="translate(938.699911,555.606250)scale(0.120000)">
<use xlink:href="#c_7a2040fe3b94fcd41d0a72c84e93b115"/>
<use xlink:href="#c_ed3e21196fb739f392806f09ca0594ef" x="63.623047"/>
<use xlink:href="#c_a0416418d96557a09b8c1332d34883ba" x="95.410156"/>
</g>
</g>
</g>
<g id="xtick6">
<g id="line2d33">
<path style="fill: none; stroke: #000000; stroke-width: 0.500000; stroke-linejoin: round; stroke-linecap: butt; stroke-dasharray: 1.000000,3.000000; stroke-dashoffset: 0.000000; opacity: 1.000000" clip-path="url(#p5951099db1c2f6c1bd7efaf7467b50c5)" d="M1106.460000 542.700000L1106.460000 60.300000"/>
</g>
<g id="line2d34">
<g ><use style="fill: none; stroke: #000000; stroke-width: 0.500000; stroke-linejoin: round; stroke-linecap: butt;  opacity: 1.000000" xlink:href="#m30e32995789d870ad79a2e54c91cf9c6" x="1106.460000" y="542.700000"/>
</g></g>
<g id="line2d35">
<g ><use style="fill: none; stroke: #000000; stroke-width: 0.500000; stroke-linejoin: round; stroke-linecap: butt;  opacity: 1.000000" xlink:href="#m9281cae24120827b11d5ea8a7ad3e96b" x="1106.460000" y="60.300000"/>
</g></g>
<g id="text6">
<defs>
<path id="c_cc8d6d580d1b10c8632f7a42cd53db8a" d="M33.015625 -40.375000q-6.640625 0.000000 -10.531250 4.546875q-3.875000 4.531250 -3.875000 12.437500q0.000000 7.859375 3.875000 12.437500q3.890625 4.562500 10.531250 4.562500q6.640625 0.000000 10.515625 -4.562500q3.875000 -4.578125 3.875000 -12.437500q0.000000 -7.906250 -3.875000 -12.437500q-3.875000 -4.546875 -10.515625 -4.546875M52.593750 -71.296875l0.000000 8.984375q-3.718750 -1.750000 -7.500000 -2.671875q-3.781250 -0.937500 -7.500000 -0.937500q-9.765625 0.000000 -14.921875 6.593750q-5.140625 6.593750 -5.875000 19.921875q2.875000 -4.250000 7.218750 -6.515625q4.359375 -2.265625 9.578125 -2.265625q10.984375 0.000000 17.359375 6.671875q6.375000 6.656250 6.375000 18.125000q0.000000 11.234375 -6.640625 18.031250q-6.640625 6.781250 -17.671875 6.781250q-12.656250 0.000000 -19.343750 -9.687500q-6.687500 -9.703125 -6.687500 -28.109375q0.000000 -17.281250 8.203125 -27.562500q8.203125 -10.281250 22.015625 -10.281250q3.718750 0.000000 7.500000 0.734375q3.781250 0.734375 7.890625 2.187500"/>
</defs>
<g style="fill: #000000; opacity: 1.000000" transform="translate(1097.694375,555.606250)scale(0.120000)">
<use xlink:href="#c_7a2040fe3b94fcd41d0a72c84e93b115"/>
<use xlink:href="#c_ed3e21196fb739f392806f09ca0594ef" x="63.623047"/>
<use xlink:href="#c_cc8d6d580d1b10c8632f7a42cd53db8a" x="95.410156"/>
</g>
</g>
</g>
<g id="xtick7">
<g id="line2d36">
<path style="fill: none; stroke: #000000; stroke-width: 0.500000; stroke-linejoin: round; stroke-linecap: butt; stroke-dasharray: 1.000000,3.000000; stroke-dashoffset: 0.000000; opacity: 1.000000" clip-path="url(#p5951099db1c2f6c1bd7efaf7467b50c5)" d="M192.511366 542.700000L192.511366 60.300000"/>
</g>
<g id="line2d37">
<defs><path id="m3b2d125790092c17af877e29e2858cbc" d="M0.000000 0.000000L0.000000 -2.000000"/></defs>
<g ><use style="fill: none; stroke: #000000; stroke-width: 0.500000; stroke-linejoin: round; stroke-linecap: butt;  opacity: 1.000000" xlink:href="#m3b2d125790092c17af877e29e2858cbc" x="192.511366" y="542.700000"/>
</g></g>
<g id="line2d38">
<defs><path id="ma703e823af2458ee1159643fa9e31d3d" d="M0.000000 0.000000L0.000000 2.000000"/></defs>
<g ><use style="fill: none; stroke: #000000; stroke-width: 0.500000; stroke-linejoin: round; stroke-linecap: butt;  opacity: 1.000000" xlink:href="#ma703e823af2458ee1159643fa9e31d3d" x="192.511366" y="60.300000"/>
</g></g>
</g>
<g id="xtick8">
<g id="line2d39">
<path style="fill: none; stroke: #000000; stroke-width: 0.500000; stroke-linejoin: round; stroke-linecap: butt; stroke-dasharray: 1.000000,3.000000; stroke-dashoffset: 0.000000; opacity: 1.000000" clip-path="url(#p5951099db1c2f6c1bd7efaf7467b50c5)" d="M232.248263 542.700000L232.248263 60.300000"/>
</g>
<g id="line2d40">
<g ><use style="fill: none; stroke: #000000; stroke-width: 0.500000; stroke-linejoin: round; stroke-linecap: butt;  opacity: 1.000000" xlink:href="#m3b2d125790092c17af877e29e2858cbc" x="232.248263" y="542.700000"/>
</g></g>
<g id="line2d41">
<g ><use style="fill: none; stroke: #000000; stroke-width: 0.500000; stroke-linejoin: round; stroke-linecap: butt;  opacity: 1.000000" xlink:href="#ma703e823af2458ee1159643fa9e31d3d" x="232.248263" y="60.300000"/>
</g></g>
</g>
<g id="xtick9">
<g id="line2d42">
<path style="fill: none; stroke: #000000; stroke-width: 0.500000; stroke-linejoin: round; stroke-linecap: butt; stroke-dasharray: 1.000000,3.000000; stroke-dashoffset: 0.000000; opacity: 1.000000" clip-path="url(#p5951099db1c2f6c1bd7efaf7467b50c5)" d="M271.985160 542.700000L271.985160 60.300000"/>
</g>
<g id="line2d43">
<g ><use style="fill: none; stroke: #000000; stroke-width: 0.500000; stroke-linejoin: round; stroke-linecap: butt;  opacity: 1.000000" xlink:href="#m3b2d125790092c17af877e29e2858cbc" x="271.985160" y="542.700000"/>
</g></g>
<g id="line2d44">
<g ><use style="fill: none; stroke: #000000; stroke-width: 0.500000; stroke-linejoin: round; stroke-linecap: butt;  opacity: 1.000000" xlink:href="#ma703e823af2458ee1159643fa9e31d3d" x="271.985160" y="60.300000"/>
</g></g>
</g>
<g id="xtick10">
<g id="line2d45">
<path style="fill: none; stroke: #000000; stroke-width: 0.500000; stroke-linejoin: round; stroke-linecap: butt; stroke-dasharray: 1.000000,3.000000; stroke-dashoffset: 0.000000; opacity: 1.000000" clip-path="url(#p5951099db1c2f6c1bd7efaf7467b50c5)" d="M351.458954 542.700000L351.458954 60.300000"/>
</g>
<g id="line2d46">
<g ><use style="fill: none; stroke: #000000; stroke-width: 0.500000; stroke-linejoin: round; stroke-linecap: butt;  opacity: 1.000000" xlink:href="#m3b2d125790092c17af877e29e2858cbc" x="351.458954" y="542.700000"/>
</g></g>
<g id="line2d47">
<g ><use style="fill: none; stroke: #000000; stroke-width: 0.500000; stroke-linejoin: round; stroke-linecap: butt;  opacity: 1.000000" xlink:href="#ma703e823af2458ee1159643fa9e31d3d" x="351.458954" y="60.300000"/>
</g></g>
</g>
<g id="xtick11">
<g id="line2d48">
<path style="fill: none; stroke: #000000; stroke-width: 0.500000; stroke-linejoin: round; stroke-linecap: butt; stroke-dasharray: 1.000000,3.000000; stroke-dashoffset: 0.000000; opacity: 1.000000" clip-path="url(#p5951099db1c2f6c1bd7efaf7467b50c5)" d="M391.195851 542.700000L391.195851 60.300000"/>
</g>
<g id="line2d49">
<g ><use style="fill: none; stroke: #000000; stroke-width: 0.500000; stroke-linejoin: round; stroke-linecap: butt;  opacity: 1.000000" xlink:href="#m3b2d125790092c17af877e29e2858cbc" x="391.195851" y="542.700000"/>
</g></g>
<g id="line2d50">
<g ><use style="fill: none; stroke: #000000; stroke-width: 0.500000; stroke-linejoin: round; stroke-linecap: butt;  opacity: 1.000000" xlink:href="#ma703e823af2458ee1159643fa9e31d3d" x="391.195851" y="60.300000"/>
</g></g>
</g>
<g id="xtick12">
<g id="line2d51">
<path style="fill: none; stroke: #000000; stroke-width: 0.500000; stroke-linejoin: round; stroke-linecap: butt; stroke-dasharray: 1.000000,3.000000; stroke-dashoffset: 0.000000; opacity: 1.000000" clip-path="url(#p5951099db1c2f6c1bd7efaf7467b50c5)" d="M430.932748 542.700000L430.932748 60.300000"/>
</g>
<g id="line2d52">
<g ><use style="fill: none; stroke: #000000; stroke-width: 0.500000; stroke-linejoin: round; stroke-linecap: butt;  opacity: 1.000000" xlink:href="#m3b2d125790092c17af877e29e2858cbc" x="430.932748" y="542.700000"/>
</g></g>
<g id="line2d53">
<g ><use style="fill: none; stroke: #000000; stroke-width: 0.500000; stroke-linejoin: round; stroke-linecap: butt;  opacity: 1.000000" xlink:href="#ma703e823af2458ee1159643fa9e31d3d" x="430.932748" y="60.300000"/>
</g></g>
</g>
<g id="xtick13">
<g id="line2d54">
<path style="fill: none; stroke: #000000; stroke-width: 0.500000; stroke-linejoin: round; stroke-linecap: butt; stroke-dasharray: 1.000000,3.000000; stroke-dashoffset: 0.000000; opacity: 1.000000" clip-path="url(#p5951099db1c2f6c1bd7efaf7467b50c5)" d="M510.406543 542.700000L510.406543 60.300000"/>
</g>
<g id="line2d55">
<g ><use style="fill: none; stroke: #000000; stroke-width: 0.500000; stroke-linejoin: round; stroke-linecap: butt;  opacity: 1.000000" xlink:href="#m3b2d125790092c17af877e29e2858cbc" x="510.406543" y="542.700000"/>
</g></g>
<g id="line2d56">
<g ><use style="fill: none; stroke: #000000; stroke-width: 0.500000; stroke-linejoin: round; stroke-linecap: butt;  opacity: 1.000000" xlink:href="#ma703e823af2458ee1159643fa9e31d3d" x="510.406543" y="60.300000"/>
</g></g>
</g>
<g id="xtick14">
<g id="line2d57">
<path style="fill: none; stroke: #000000; stroke-width: 0.500000; stroke-linejoin: round; stroke-linecap: butt; stroke-dasharray: 1.000000,3.000000; stroke-dashoffset: 0.000000; opacity: 1.000000" clip-path="url(#p5951099db1c2f6c1bd7efaf7467b50c5)" d="M550.143440 542.700000L550.143440 60.300000"/>
</g>
<g id="line2d58">
<g ><use style="fill: none; stroke: #000000; stroke-width: 0.500000; stroke-linejoin: round; stroke-linecap: butt;  opacity: 1.000000" xlink:href="#m3b2d125790092c17af877e29e2858cbc" x="550.143440" y="542.700000"/>
</g></g>
<g id="line2d59">
<g ><use style="fill: none; stroke: #000000; stroke-width: 0.500000; stroke-linejoin: round; stroke-linecap: butt;  opacity: 1.000000" xlink:href="#ma703e823af2458ee1159643fa9e31d3d" x="550.143440" y="60.300000"/>
</g></g>
</g>
<g id="xtick15">
<g id="line2d60">
<path style="fill: none; stroke: #000000; stroke-width: 0.500000; stroke-linejoin: round; stroke-linecap: butt; stroke-dasharray: 1.000000,3.000000; stroke-dashoffset: 0.000000; opacity: 1.000000" clip-path="url(#p5951099db1c2f6c1bd7efaf7467b50c5)" d="M589.880337 542.700000L589.880337 60.300000"/>
</g>
<g id="line2d61">
<g ><use style="fill: none; stroke: #000000; stroke-width: 0.500000; stroke-linejoin: round; stroke-linecap: butt;  opacity: 1.000000" xlink:href="#m3b2d125790092c17af877e29e2858cbc" x="589.880337" y="542.700000"/>
</g></g>
<g id="line2d62">
<g ><use style="fill: none; stroke: #000000; stroke-width: 0.500000; stroke-linejoin: round; stroke-linecap: butt;  opacity: 1.000000" xlink:href="#ma703e823af2458ee1159643fa9e31d3d" x="589.880337" y="60.300000"/>
</g></g>
</g>
<g id="xtick16">
<g id="line2d63">
<path style="fill: none; stroke: #000000; stroke-width: 0.500000; stroke-linejoin: round; stroke-linecap: butt; stroke-dasharray: 1.000000,3.000000; stroke-dashoffset: 0.000000; opacity: 1.000000" clip-path="url(#p5951099db1c2f6c1bd7efaf7467b50c5)" d="M669.354131 542.700000L669.354131 60.300000"/>
</g>
<g id="line2d64">
<g ><use style="fill: none; stroke: #000000; stroke-width: 0.500000; stroke-linejoin: round; stroke-linecap: butt;  opacity: 1.000000" xlink:href="#m3b2d125790092c17af877e29e2858cbc" x="669.354131" y="542.700000"/>
</g></g>
<g id="line2d65">
<g ><use style="fill: none; stroke: #000000; stroke-width: 0.500000; stroke-linejoin: round; stroke-linecap: butt;  opacity: 1.000000" xlink:href="#ma703e823af2458ee1159643fa9e31d3d" x="669.354131" y="60.300000"/>
</g></g>
</g>
<g id="xtick17">
<g id="line2d66">
<path style="fill: none; stroke: #000000; stroke-width: 0.500000; stroke-linejoin: round; stroke-linecap: butt; stroke-dasharray: 1.000000,3.000000; stroke-dashoffset: 0.000000; opacity: 1.000000" clip-path="url(#p5951099db1c2f6c1bd7efaf7467b50c5)" d="M709.091029 542.700000L709.091029 60.300000"/>
</g>
<g id="line2d67">
<g ><use style="fill: none; stroke: #000000; stroke-width: 0.500000; stroke-linejoin: round; stroke-linecap: butt;  opacity: 1.000000" xlink:href="#m3b2d125790092c17af877e29e2858cbc" x="709.091029" y="542.700000"/>
</g></g>
<g id="line2d68">
<g ><use style="fill: none; stroke: #000000; stroke-width: 0.500000; stroke-linejoin: round; stroke-linecap: butt;  opacity: 1.000000" xlink:href="#ma703e823af2458ee1159643fa9e31d3d" x="709.091029" y="60.300000"/>
</g></g>
</g>
<g id="xtick18">
<g id="line2d69">
<path style="fill: none; stroke: #000000; stroke-width: 0.500000; stroke-linejoin: round; stroke-linecap: butt; stroke-dasharray: 1.000000,3.000000; stroke-dashoffset: 0.000000; opacity: 1.000000" clip-path="url(#p5951099db1c2f6c1bd7efaf7467b50c5)" d="M748.827926 542.700000L748.827926 60.300000"/>
</g>
<g id="line2d70">
<g ><use style="fill: none; stroke: #000000; stroke-width: 0.500000; stroke-linejoin: round; stroke-linecap: butt;  opacity: 1.000000" xlink:href="#m3b2d125790092c17af877e29e2858cbc" x="748.827926" y="542.700000"/>
</g></g>
<g id="line2d71">
<g ><use style="fill: none; stroke: #000000; stroke-width: 0.500000; stroke-linejoin: round; stroke-linecap: butt;  opacity: 1.000000" xlink:href="#ma703e823af2458ee1159643fa9e31d3d" x="748.827926" y="60.300000"/>
</g></g>
</g>
<g id="xtick19">
<g id="line2d72">
<path style="fill: none; stroke: #000000; stroke-width: 0.500000; stroke-linejoin: round; stroke-linecap: butt; stroke-dasharray: 1.000000,3.000000; stroke-dashoffset: 0.000000; opacity: 1.000000" clip-path="url(#p5951099db1c2f6c1bd7efaf7467b50c5)" d="M828.301720 542.700000L828.301720 60.300000"/>
</g>
<g id="line2d73">
<g ><use style="fill: none; stroke: #000000; stroke-width: 0.500000; stroke-linejoin: round; stroke-linecap: butt;  opacity: 1.000000" xlink:href="#m3b2d125790092c17af877e29e2858cbc" x="828.301720" y="542.700000"/>
</g></g>
<g id="line2d74">
<g ><use style="fill: none; stroke: #000000; stroke-width: 0.500000; stroke-linejoin: round; stroke-linecap: butt;  opacity: 1.000000" xlink:href="#ma703e823af2458ee1159643fa9e31d3d" x="828.301720" y="60.300000"/>
</g></g>
</g>
<g id="xtick20">
<g id="line2d75">
<path style="fill: none; stroke: #000000; stroke-width: 0.500000; stroke-linejoin: round; stroke-linecap: butt; stroke-dasharray: 1.000000,3.000000; stroke-dashoffset: 0.000000; opacity: 1.000000" clip-path="url(#p5951099db1c2f6c1bd7efaf7467b50c5)" d="M868.038617 542.700000L868.038617 60.300000"/>
</g>
<g id="line2d76">
<g ><use style="fill: none; stroke: #000000; stroke-width: 0.500000; stroke-linejoin: round; stroke-linecap: butt;  opacity: 1.000000" xlink:href="#m3b2d125790092c17af877e29e2858cbc" x="868.038617" y="542.700000"/>
</g></g>
<g id="line2d77">
<g ><use style="fill: none; stroke: #000000; stroke-width: 0.500000; stroke-linejoin: round; stroke-linecap: butt;  opacity: 1.000000" xlink:href="#ma703e823af2458ee1159643fa9e31d3d" x="868.038617" y="60.300000"/>
</g></g>
</g>
<g id="xtick21">
<g id="line2d78">
<path style="fill: none; stroke: #000000; stroke-width: 0.500000; stroke-linejoin: round; stroke-linecap: butt; stroke-dasharray: 1.000000,3.000000; stroke-dashoffset: 0.000000; opacity: 1.000000" clip-path="url(#p5951099db1c2f6c1bd7efaf7467b50c5)" d="M907.775514 542.700000L907.775514 60.300000"/>
</g>
<g id="line2d79">
<g ><use style="fill: none; stroke: #000000; stroke-width: 0.500000; stroke-linejoin: round; stroke-linecap: butt;  opacity: 1.000000" xlink:href="#m3b2d125790092c17af877e29e2858cbc" x="907.775514" y="542.700000"/>
</g></g>
<g id="line2d80">
<g ><use style="fill: none; stroke: #000000; stroke-width: 0.500000; stroke-linejoin: round; stroke-linecap: butt;  opacity: 1.000000" xlink:href="#ma703e823af2458ee1159643fa9e31d3d" x="907.775514" y="60.300000"/>
</g></g>
</g>
<g id="xtick22">
<g id="line2d81">
<path style="fill: none; stroke: #000000; stroke-width: 0.500000; stroke-linejoin: round; stroke-linecap: butt; stroke-dasharray: 1.000000,3.000000; stroke-dashoffset: 0.000000; opacity: 1.000000" clip-path="url(#p5951099db1c2f6c1bd7efaf7467b50c5)" d="M987.249309 542.700000L987.249309 60.300000"/>
</g>
<g id="line2d82">
<g ><use style="fill: none; stroke: #000000; stroke-width: 0.500000; stroke-linejoin: round; stroke-linecap: butt;  opacity: 1.000000" xlink:href="#m3b2d125790092c17af877e29e2858cbc" x="987.249309" y="542.700000"/>
</g></g>
<g id="line2d83">
<g ><use style="fill: none; stroke: #000000; stroke-width: 0.500000; stroke-linejoin: round; stroke-linecap: butt;  opacity: 1.000000" xlink:href="#ma703e823af2458ee1159643fa9e31d3d" x="987.249309" y="60.300000"/>
</g></g>
</g>
<g id="xtick23">
<g id="line2d84">
<path style="fill: none; stroke: #000000; stroke-width: 0.500000; stroke-linejoin: round; stroke-linecap: butt; stroke-dasharray: 1.000000,3.000000; stroke-dashoffset: 0.000000; opacity: 1.000000" clip-path="url(#p5951099db1c2f6c1bd7efaf7467b50c5)" d="M1026.986206 542.700000L1026.986206 60.300000"/>
</g>
<g id="line2d85">
<g ><use style="fill: none; stroke: #000000; stroke-width: 0.500000; stroke-linejoin: round; stroke-linecap: butt;  opacity: 1.000000" xlink:href="#m3b2d125790092c17af877e29e2858cbc" x="1026.986206" y="542.700000"/>
</g></g>
<g id="line2d86">
<g ><use style="fill: none; stroke: #000000; stroke-width: 0.500000; stroke-linejoin: round; stroke-linecap: butt;  opacity: 1.000000" xlink:href="#ma703e823af2458ee1159643fa9e31d3d" x="1026.986206" y="60.300000"/>
</g></g>
</g>
<g id="xtick24">
<g id="line2d87">
<path style="fill: none; stroke: #000000; stroke-width: 0.500000; stroke-linejoin: round; stroke-linecap: butt; stroke-dasharray: 1.000000,3.000000; stroke-dashoffset: 0.000000; opacity: 1.000000" clip-path="url(#p5951099db1c2f6c1bd7efaf7467b50c5)" d="M1066.723103 542.700000L1066.723103 60.300000"/>
</g>
<g id="line2d88">
<g ><use style="fill: none; stroke: #000000; stroke-width: 0.500000; stroke-linejoin: round; stroke-linecap: butt;  opacity: 1.000000" xlink:href="#m3b2d125790092c17af877e29e2858cbc" x="1066.723103" y="542.700000"/>
</g></g>
<g id="line2d89">
<g ><use style="fill: none; stroke: #000000; stroke-width: 0.500000; stroke-linejoin: round; stroke-linecap: butt;  opacity: 1.000000" xlink:href="#ma703e823af2458ee1159643fa9e31d3d" x="1066.723103" y="60.300000"/>
</g></g>
</g>
<g id="text7">
<defs>
<path id="c_3b86f9879deccc43ffac57ae939fe3b7" d="M59.515625 -10.406250l0.000000 -19.578125l-16.109375 0.000000l0.000000 -8.109375l25.875000 0.000000l0.000000 31.312500q-5.703125 4.046875 -12.593750 6.125000q-6.875000 2.078125 -14.687500 2.078125q-17.093750 0.000000 -26.750000 -9.984375q-9.640625 -10.000000 -9.640625 -27.812500q0.000000 -17.875000 9.640625 -27.859375q9.656250 -9.984375 26.750000 -9.984375q7.125000 0.000000 13.546875 1.765625q6.421875 1.750000 11.843750 5.171875l0.000000 10.500000q-5.468750 -4.640625 -11.625000 -6.984375q-6.156250 -2.343750 -12.937500 -2.343750q-13.390625 0.000000 -20.109375 7.468750q-6.703125 7.468750 -6.703125 22.265625q0.000000 14.750000 6.703125 22.218750q6.718750 7.468750 20.109375 7.468750q5.218750 0.000000 9.312500 -0.906250q4.109375 -0.906250 7.375000 -2.812500"/>
<path id="c_01d93a582460e35a7945ca50d148ffeb" d="M34.281250 -27.484375q-10.890625 0.000000 -15.093750 2.484375q-4.203125 2.484375 -4.203125 8.500000q0.000000 4.781250 3.156250 7.593750q3.156250 2.796875 8.562500 2.796875q7.484375 0.000000 12.000000 -5.296875q4.515625 -5.296875 4.515625 -14.078125l0.000000 -2.000000zM52.203125 -31.203125l0.000000 31.203125l-8.984375 0.000000l0.000000 -8.296875q-3.078125 4.968750 -7.671875 7.343750q-4.593750 2.375000 -11.234375 2.375000q-8.390625 0.000000 -13.359375 -4.718750q-4.953125 -4.718750 -4.953125 -12.625000q0.000000 -9.218750 6.171875 -13.906250q6.187500 -4.687500 18.437500 -4.687500l12.609375 0.000000l0.000000 -0.890625q0.000000 -6.203125 -4.078125 -9.593750q-4.078125 -3.390625 -11.453125 -3.390625q-4.687500 0.000000 -9.140625 1.125000q-4.437500 1.125000 -8.531250 3.375000l0.000000 -8.312500q4.921875 -1.906250 9.562500 -2.843750q4.640625 -0.953125 9.031250 -0.953125q11.875000 0.000000 17.734375 6.156250q5.859375 6.140625 5.859375 18.640625"/>
<path id="c_5099edb83619131346ae654950954dea" d="M9.421875 -75.984375l8.984375 0.000000l0.000000 75.984375l-8.984375 0.000000z"/>
<path id="c_c48ceabac27bf136feba2f4bf2716ab6" d="M2.984375 -54.687500l9.515625 0.000000l17.093750 45.890625l17.093750 -45.890625l9.515625 0.000000l-20.515625 54.687500l-12.203125 0.000000z"/>
<path id="c_fe791a90f5471e2ab20a5ed41a7fa451" d="M54.890625 -33.015625l0.000000 33.015625l-8.984375 0.000000l0.000000 -32.718750q0.000000 -7.765625 -3.031250 -11.609375q-3.031250 -3.859375 -9.078125 -3.859375q-7.281250 0.000000 -11.484375 4.640625q-4.203125 4.625000 -4.203125 12.640625l0.000000 30.906250l-9.031250 0.000000l0.000000 -54.687500l9.031250 0.000000l0.000000 8.500000q3.234375 -4.937500 7.593750 -7.375000q4.375000 -2.437500 10.093750 -2.437500q9.421875 0.000000 14.250000 5.828125q4.843750 5.828125 4.843750 17.156250"/>
<path id="c_f05dd90d41f04bb96ef1ca503cc2044b" d="M30.609375 -48.390625q-7.218750 0.000000 -11.421875 5.640625q-4.203125 5.640625 -4.203125 15.453125q0.000000 9.812500 4.171875 15.453125q4.187500 5.640625 11.453125 5.640625q7.187500 0.000000 11.375000 -5.656250q4.203125 -5.671875 4.203125 -15.437500q0.000000 -9.718750 -4.203125 -15.406250q-4.187500 -5.687500 -11.375000 -5.687500M30.609375 -56.000000q11.718750 0.000000 18.406250 7.625000q6.703125 7.609375 6.703125 21.078125q0.000000 13.421875 -6.703125 21.078125q-6.687500 7.640625 -18.406250 7.640625q-11.765625 0.000000 -18.437500 -7.640625q-6.656250 -7.656250 -6.656250 -21.078125q0.000000 -13.468750 6.656250 -21.078125q6.671875 -7.625000 18.437500 -7.625000"/>
<path id="c_4653c6dfde66c7610eae0911760d3490" d="M52.000000 -44.187500q3.375000 -6.062500 8.062500 -8.937500q4.687500 -2.875000 11.031250 -2.875000q8.546875 0.000000 13.187500 5.984375q4.640625 5.968750 4.640625 17.000000l0.000000 33.015625l-9.031250 0.000000l0.000000 -32.718750q0.000000 -7.859375 -2.796875 -11.656250q-2.781250 -3.812500 -8.484375 -3.812500q-6.984375 0.000000 -11.046875 4.640625q-4.046875 4.625000 -4.046875 12.640625l0.000000 30.906250l-9.031250 0.000000l0.000000 -32.718750q0.000000 -7.906250 -2.781250 -11.687500q-2.781250 -3.781250 -8.593750 -3.781250q-6.890625 0.000000 -10.953125 4.656250q-4.046875 4.656250 -4.046875 12.625000l0.000000 30.906250l-9.031250 0.000000l0.000000 -54.687500l9.031250 0.000000l0.000000 8.500000q3.078125 -5.031250 7.375000 -7.421875q4.296875 -2.390625 10.203125 -2.390625q5.968750 0.000000 10.140625 3.031250q4.171875 3.015625 6.171875 8.781250"/>
<path id="c_0bce5afba2dc6b9024b26277c38ad8e8" d="M56.203125 -29.593750l0.000000 4.390625l-41.312500 0.000000q0.593750 9.281250 5.593750 14.140625q5.000000 4.859375 13.937500 4.859375q5.171875 0.000000 10.031250 -1.265625q4.859375 -1.265625 9.656250 -3.812500l0.000000 8.500000q-4.843750 2.046875 -9.921875 3.125000q-5.078125 1.078125 -10.296875 1.078125q-13.093750 0.000000 -20.734375 -7.609375q-7.640625 -7.625000 -7.640625 -20.625000q0.000000 -13.421875 7.250000 -21.296875q7.250000 -7.890625 19.562500 -7.890625q11.031250 0.000000 17.453125 7.109375q6.421875 7.093750 6.421875 19.296875M47.218750 -32.234375q-0.093750 -7.359375 -4.125000 -11.750000q-4.031250 -4.406250 -10.671875 -4.406250q-7.515625 0.000000 -12.031250 4.250000q-4.515625 4.250000 -5.203125 11.968750z"/>
<path id="c_0f8c41144cfbf448378cb6fd1cc8e549" d="M18.312500 -70.218750l0.000000 15.531250l18.500000 0.000000l0.000000 6.984375l-18.500000 0.000000l0.000000 29.687500q0.000000 6.687500 1.828125 8.593750q1.828125 1.906250 7.453125 1.906250l9.218750 0.000000l0.000000 7.515625l-9.218750 0.000000q-10.406250 0.000000 -14.359375 -3.875000q-3.953125 -3.890625 -3.953125 -14.140625l0.000000 -29.687500l-6.593750 0.000000l0.000000 -6.984375l6.593750 0.000000l0.000000 -15.531250z"/>
<path id="c_6ec8d5749226675394676a5d2a3b468b" d="M41.109375 -46.296875q-1.515625 -0.875000 -3.296875 -1.281250q-1.781250 -0.421875 -3.921875 -0.421875q-7.625000 0.000000 -11.703125 4.953125q-4.078125 4.953125 -4.078125 14.234375l0.000000 28.812500l-9.031250 0.000000l0.000000 -54.687500l9.031250 0.000000l0.000000 8.500000q2.843750 -4.984375 7.375000 -7.390625q4.546875 -2.421875 11.046875 -2.421875q0.921875 0.000000 2.046875 0.125000q1.125000 0.109375 2.484375 0.359375z"/>
<path id="c_d41d8cd98f00b204e9800998ecf8427e" d=""/>
<path id="c_d650c37394b681142a10dfc54356d478" d="M48.781250 -52.593750l0.000000 8.406250q-3.812500 -2.109375 -7.640625 -3.156250q-3.828125 -1.046875 -7.734375 -1.046875q-8.750000 0.000000 -13.593750 5.546875q-4.828125 5.531250 -4.828125 15.546875q0.000000 10.015625 4.828125 15.562500q4.843750 5.531250 13.593750 5.531250q3.906250 0.000000 7.734375 -1.046875q3.828125 -1.046875 7.640625 -3.156250l0.000000 8.312500q-3.765625 1.750000 -7.796875 2.625000q-4.015625 0.890625 -8.562500 0.890625q-12.359375 0.000000 -19.640625 -7.765625q-7.265625 -7.765625 -7.265625 -20.953125q0.000000 -13.375000 7.343750 -21.031250q7.359375 -7.671875 20.156250 -7.671875q4.140625 0.000000 8.093750 0.859375q3.953125 0.843750 7.671875 2.546875"/>
<path id="c_3b515ad41f960e225ec85275856806ca" d="M8.500000 -21.578125l0.000000 -33.109375l8.984375 0.000000l0.000000 32.765625q0.000000 7.765625 3.015625 11.656250q3.031250 3.875000 9.093750 3.875000q7.265625 0.000000 11.484375 -4.640625q4.234375 -4.640625 4.234375 -12.656250l0.000000 -31.000000l8.984375 0.000000l0.000000 54.687500l-8.984375 0.000000l0.000000 -8.406250q-3.265625 4.984375 -7.593750 7.406250q-4.312500 2.421875 -10.031250 2.421875q-9.421875 0.000000 -14.312500 -5.859375q-4.875000 -5.859375 -4.875000 -17.140625M31.109375 -56.000000z"/>
<path id="c_7efa9804c2b4c09a4b614b91fdebee3d" d="M31.000000 -75.875000q-6.531250 11.218750 -9.718750 22.218750q-3.171875 10.984375 -3.171875 22.265625q0.000000 11.265625 3.203125 22.328125q3.203125 11.062500 9.687500 22.250000l-7.812500 0.000000q-7.312500 -11.484375 -10.953125 -22.562500q-3.640625 -11.078125 -3.640625 -22.015625q0.000000 -10.890625 3.609375 -21.921875q3.625000 -11.046875 10.984375 -22.562500z"/>
<path id="c_6023715d605f81e6eb43b7f9d77e7c51" d="M34.187500 -63.187500l-13.390625 36.281250l26.812500 0.000000zM28.609375 -72.906250l11.187500 0.000000l27.781250 72.906250l-10.250000 0.000000l-6.640625 -18.703125l-32.859375 0.000000l-6.640625 18.703125l-10.406250 0.000000z"/>
<path id="c_e96974be642f6eac0427d72f9cec6c19" d="M8.015625 -75.875000l7.812500 0.000000q7.312500 11.515625 10.953125 22.562500q3.640625 11.031250 3.640625 21.921875q0.000000 10.937500 -3.640625 22.015625q-3.640625 11.078125 -10.953125 22.562500l-7.812500 0.000000q6.484375 -11.187500 9.687500 -22.250000q3.203125 -11.062500 3.203125 -22.328125q0.000000 -11.281250 -3.203125 -22.265625q-3.203125 -11.000000 -9.687500 -22.218750"/>
</defs>
<g style="fill: #000000; opacity: 1.000000" transform="translate(549.645625,569.903125)scale(0.120000)">
<use xlink:href="#c_3b86f9879deccc43ffac57ae939fe3b7"/>
<use xlink:href="#c_01d93a582460e35a7945ca50d148ffeb" x="77.490234"/>
<use xlink:href="#c_5099edb83619131346ae654950954dea" x="138.769531"/>
<use xlink:href="#c_c48ceabac27bf136feba2f4bf2716ab6" x="166.552734"/>
<use xlink:href="#c_01d93a582460e35a7945ca50d148ffeb" x="225.732422"/>
<use xlink:href="#c_fe791a90f5471e2ab20a5ed41a7fa451" x="287.011719"/>
<use xlink:href="#c_f05dd90d41f04bb96ef1ca503cc2044b" x="350.390625"/>
<use xlink:href="#c_4653c6dfde66c7610eae0911760d3490" x="411.572266"/>
<use xlink:href="#c_0bce5afba2dc6b9024b26277c38ad8e8" x="508.984375"/>
<use xlink:href="#c_0f8c41144cfbf448378cb6fd1cc8e549" x="570.507812"/>
<use xlink:href="#c_0bce5afba2dc6b9024b26277c38ad8e8" x="609.716797"/>
<use xlink:href="#c_6ec8d5749226675394676a5d2a3b468b" x="671.240234"/>
<use xlink:href="#c_d41d8cd98f00b204e9800998ecf8427e" x="712.353516"/>
<use xlink:href="#c_d650c37394b681142a10dfc54356d478" x="744.140625"/>
<use xlink:href="#c_3b515ad41f960e225ec85275856806ca" x="799.121094"/>
<use xlink:href="#c_6ec8d5749226675394676a5d2a3b468b" x="862.500000"/>
<use xlink:href="#c_6ec8d5749226675394676a5d2a3b468b" x="901.863281"/>
<use xlink:href="#c_0bce5afba2dc6b9024b26277c38ad8e8" x="940.726563"/>
<use xlink:href="#c_fe791a90f5471e2ab20a5ed41a7fa451" x="1002.250000"/>
<use xlink:href="#c_0f8c41144cfbf448378cb6fd1cc8e549" x="1065.628906"/>
<use xlink:href="#c_7efa9804c2b4c09a4b614b91fdebee3d" x="1104.837891"/>
<use xlink:href="#c_4653c6dfde66c7610eae0911760d3490" x="1143.851563"/>
<use xlink:href="#c_6023715d605f81e6eb43b7f9d77e7c51" x="1241.263672"/>
<use xlink:href="#c_e96974be642f6eac0427d72f9cec6c19" x="1309.671875"/>
</g>
</g>
</g>
<g id="matplotlib.axis2">
<g id="ytick1">
<g id="line2d90">
<path style="fill: none; stroke: #000000; stroke-width: 0.500000; stroke-linejoin: round; stroke-linecap: butt; stroke-dasharray: 1.000000,3.000000; stroke-dashoffset: 0.000000; opacity: 1.000000" clip-path="url(#p5951099db1c2f6c1bd7efaf7467b50c5)" d="M153.675000 539.611739L1106.460000 539.611739"/>
</g>
<g id="line2d91">
<defs><path id="m3400efa6b1638b3fea9e19e898273957" d="M0.000000 0.000000L4.000000 0.000000"/></defs>
<g ><use style="fill: none; stroke: #000000; stroke-width: 0.500000; stroke-linejoin: round; stroke-linecap: butt;  opacity: 1.000000" xlink:href="#m3400efa6b1638b3fea9e19e898273957" x="153.675000" y="539.611739"/>
</g></g>
<g id="line2d92">
<defs><path id="m20b58b2501143cb5e0a5e8f1ef6f1643" d="M0.000000 0.000000L-4.000000 0.000000"/></defs>
<g ><use style="fill: none; stroke: #000000; stroke-width: 0.500000; stroke-linejoin: round; stroke-linecap: butt;  opacity: 1.000000" xlink:href="#m20b58b2501143cb5e0a5e8f1ef6f1643" x="1106.460000" y="539.611739"/>
</g></g>
<g id="text8">
<defs>
<path id="c_42baa63129a918535c52adb20d687ea7" d="M12.406250 -8.296875l16.109375 0.000000l0.000000 -55.625000l-17.531250 3.515625l0.000000 -8.984375l17.437500 -3.515625l9.859375 0.000000l0.000000 64.609375l16.109375 0.000000l0.000000 8.296875l-41.984375 0.000000z"/>
</defs>
<g style="fill: #000000; opacity: 1.000000" transform="translate(109.253125,543.978927)scale(0.120000)">
<use xlink:href="#c_7a2040fe3b94fcd41d0a72c84e93b115"/>
<use xlink:href="#c_ed3e21196fb739f392806f09ca0594ef" x="63.623047"/>
<use xlink:href="#c_7a2040fe3b94fcd41d0a72c84e93b115" x="95.410156"/>
<use xlink:href="#c_7a2040fe3b94fcd41d0a72c84e93b115" x="159.033203"/>
<use xlink:href="#c_42baa63129a918535c52adb20d687ea7" x="222.656250"/>
<use xlink:href="#c_7a2040fe3b94fcd41d0a72c84e93b115" x="286.279297"/>
</g>
</g>
</g>
<g id="ytick2">
<g id="line2d93">
<path style="fill: none; stroke: #000000; stroke-width: 0.500000; stroke-linejoin: round; stroke-linecap: butt; stroke-dasharray: 1.000000,3.000000; stroke-dashoffset: 0.000000; opacity: 1.000000" clip-path="url(#p5951099db1c2f6c1bd7efaf7467b50c5)" d="M153.675000 419.782002L1106.460000 419.782002"/>
</g>
<g id="line2d94">
<g ><use style="fill: none; stroke: #000000; stroke-width: 0.500000; stroke-linejoin: round; stroke-linecap: butt;  opacity: 1.000000" xlink:href="#m3400efa6b1638b3fea9e19e898273957" x="153.675000" y="419.782002"/>
</g></g>
<g id="line2d95">
<g ><use style="fill: none; stroke: #000000; stroke-width: 0.500000; stroke-linejoin: round; stroke-linecap: butt;  opacity: 1.000000" xlink:href="#m20b58b2501143cb5e0a5e8f1ef6f1643" x="1106.460000" y="419.782002"/>
</g></g>
<g id="text9">
<defs>
<path id="c_1260a2df50f305f3db244e29828f968e" d="M10.796875 -72.906250l38.718750 0.000000l0.000000 8.312500l-29.687500 0.000000l0.000000 17.859375q2.140625 -0.734375 4.281250 -1.093750q2.156250 -0.359375 4.312500 -0.359375q12.203125 0.000000 19.328125 6.687500q7.140625 6.687500 7.140625 18.109375q0.000000 11.765625 -7.328125 18.296875q-7.328125 6.515625 -20.656250 6.515625q-4.593750 0.000000 -9.359375 -0.781250q-4.750000 -0.781250 -9.828125 -2.343750l0.000000 -9.921875q4.390625 2.390625 9.078125 3.562500q4.687500 1.171875 9.906250 1.171875q8.453125 0.000000 13.375000 -4.437500q4.937500 -4.437500 4.937500 -12.062500q0.000000 -7.609375 -4.937500 -12.046875q-4.921875 -4.453125 -13.375000 -4.453125q-3.953125 0.000000 -7.890625 0.875000q-3.921875 0.875000 -8.015625 2.734375z"/>
</defs>
<g style="fill: #000000; opacity: 1.000000" transform="translate(109.503125,424.149189)scale(0.120000)">
<use xlink:href="#c_7a2040fe3b94fcd41d0a72c84e93b115"/>
<use xlink:href="#c_ed3e21196fb739f392806f09ca0594ef" x="63.623047"/>
<use xlink:href="#c_7a2040fe3b94fcd41d0a72c84e93b115" x="95.410156"/>
<use xlink:href="#c_7a2040fe3b94fcd41d0a72c84e93b115" x="159.033203"/>
<use xlink:href="#c_42baa63129a918535c52adb20d687ea7" x="222.656250"/>
<use xlink:href="#c_1260a2df50f305f3db244e29828f968e" x="286.279297"/>
</g>
</g>
</g>
<g id="ytick3">
<g id="line2d96">
<path style="fill: none; stroke: #000000; stroke-width: 0.500000; stroke-linejoin: round; stroke-linecap: butt; stroke-dasharray: 1.000000,3.000000; stroke-dashoffset: 0.000000; opacity: 1.000000" clip-path="url(#p5951099db1c2f6c1bd7efaf7467b50c5)" d="M153.675000 299.952264L1106.460000 299.952264"/>
</g>
<g id="line2d97">
<g ><use style="fill: none; stroke: #000000; stroke-width: 0.500000; stroke-linejoin: round; stroke-linecap: butt;  opacity: 1.000000" xlink:href="#m3400efa6b1638b3fea9e19e898273957" x="153.675000" y="299.952264"/>
</g></g>
<g id="line2d98">
<g ><use style="fill: none; stroke: #000000; stroke-width: 0.500000; stroke-linejoin: round; stroke-linecap: butt;  opacity: 1.000000" xlink:href="#m20b58b2501143cb5e0a5e8f1ef6f1643" x="1106.460000" y="299.952264"/>
</g></g>
<g id="text10">
<g style="fill: #000000; opacity: 1.000000" transform="translate(109.253125,304.319452)scale(0.120000)">
<use xlink:href="#c_7a2040fe3b94fcd41d0a72c84e93b115"/>
<use xlink:href="#c_ed3e21196fb739f392806f09ca0594ef" x="63.623047"/>
<use xlink:href="#c_7a2040fe3b94fcd41d0a72c84e93b115" x="95.410156"/>
<use xlink:href="#c_7a2040fe3b94fcd41d0a72c84e93b115" x="159.033203"/>
<use xlink:href="#c_ed3f3ed3ebfbd18bcb9c012009a68ad1" x="222.656250"/>
<use xlink:href="#c_7a2040fe3b94fcd41d0a72c84e93b115" x="286.279297"/>
</g>
</g>
</g>
<g id="ytick4">
<g id="line2d99">
<path style="fill: none; stroke: #000000; stroke-width: 0.500000; stroke-linejoin: round; stroke-linecap: butt; stroke-dasharray: 1.000000,3.000000; stroke-dashoffset: 0.000000; opacity: 1.000000" clip-path="url(#p5951099db1c2f6c1bd7efaf7467b50c5)" d="M153.675000 180.122526L1106.460000 180.122526"/>
</g>
<g id="line2d100">
<g ><use style="fill: none; stroke: #000000; stroke-width: 0.500000; stroke-linejoin: round; stroke-linecap: butt;  opacity: 1.000000" xlink:href="#m3400efa6b1638b3fea9e19e898273957" x="153.675000" y="180.122526"/>
</g></g>
<g id="line2d101">
<g ><use style="fill: none; stroke: #000000; stroke-width: 0.500000; stroke-linejoin: round; stroke-linecap: butt;  opacity: 1.000000" xlink:href="#m20b58b2501143cb5e0a5e8f1ef6f1643" x="1106.460000" y="180.122526"/>
</g></g>
<g id="text11">
<g style="fill: #000000; opacity: 1.000000" transform="translate(109.503125,184.489714)scale(0.120000)">
<use xlink:href="#c_7a2040fe3b94fcd41d0a72c84e93b115"/>
<use xlink:href="#c_ed3e21196fb739f392806f09ca0594ef" x="63.623047"/>
<use xlink:href="#c_7a2040fe3b94fcd41d0a72c84e93b115" x="95.410156"/>
<use xlink:href="#c_7a2040fe3b94fcd41d0a72c84e93b115" x="159.033203"/>
<use xlink:href="#c_ed3f3ed3ebfbd18bcb9c012009a68ad1" x="222.656250"/>
<use xlink:href="#c_1260a2df50f305f3db244e29828f968e" x="286.279297"/>
</g>
</g>
</g>
<g id="ytick5">
<g id="line2d102">
<path style="fill: none; stroke: #000000; stroke-width: 0.500000; stroke-linejoin: round; stroke-linecap: butt; stroke-dasharray: 1.000000,3.000000; stroke-dashoffset: 0.000000; opacity: 1.000000" clip-path="url(#p5951099db1c2f6c1bd7efaf7467b50c5)" d="M153.675000 515.645792L1106.460000 515.645792"/>
</g>
<g id="line2d103">
<defs><path id="mb39cfcf7402899e54c4d755745537394" d="M0.000000 0.000000L2.000000 0.000000"/></defs>
<g ><use style="fill: none; stroke: #000000; stroke-width: 0.500000; stroke-linejoin: round; stroke-linecap: butt;  opacity: 1.000000" xlink:href="#mb39cfcf7402899e54c4d755745537394" x="153.675000" y="515.645792"/>
</g></g>
<g id="line2d104">
<defs><path id="m6046ccd8b6d57b9fb587e3fdd930e9c5" d="M0.000000 0.000000L-2.000000 0.000000"/></defs>
<g ><use style="fill: none; stroke: #000000; stroke-width: 0.500000; stroke-linejoin: round; stroke-linecap: butt;  opacity: 1.000000" xlink:href="#m6046ccd8b6d57b9fb587e3fdd930e9c5" x="1106.460000" y="515.645792"/>
</g></g>
</g>
<g id="ytick6">
<g id="line2d105">
<path style="fill: none; stroke: #000000; stroke-width: 0.500000; stroke-linejoin: round; stroke-linecap: butt; stroke-dasharray: 1.000000,3.000000; stroke-dashoffset: 0.000000; opacity: 1.000000" clip-path="url(#p5951099db1c2f6c1bd7efaf7467b50c5)" d="M153.675000 491.679844L1106.460000 491.679844"/>
</g>
<g id="line2d106">
<g ><use style="fill: none; stroke: #000000; stroke-width: 0.500000; stroke-linejoin: round; stroke-linecap: butt;  opacity: 1.000000" xlink:href="#mb39cfcf7402899e54c4d755745537394" x="153.675000" y="491.679844"/>
</g></g>
<g id="line2d107">
<g ><use style="fill: none; stroke: #000000; stroke-width: 0.500000; stroke-linejoin: round; stroke-linecap: butt;  opacity: 1.000000" xlink:href="#m6046ccd8b6d57b9fb587e3fdd930e9c5" x="1106.460000" y="491.679844"/>
</g></g>
</g>
<g id="ytick7">
<g id="line2d108">
<path style="fill: none; stroke: #000000; stroke-width: 0.500000; stroke-linejoin: round; stroke-linecap: butt; stroke-dasharray: 1.000000,3.000000; stroke-dashoffset: 0.000000; opacity: 1.000000" clip-path="url(#p5951099db1c2f6c1bd7efaf7467b50c5)" d="M153.675000 467.713897L1106.460000 467.713897"/>
</g>
<g id="line2d109">
<g ><use style="fill: none; stroke: #000000; stroke-width: 0.500000; stroke-linejoin: round; stroke-linecap: butt;  opacity: 1.000000" xlink:href="#mb39cfcf7402899e54c4d755745537394" x="153.675000" y="467.713897"/>
</g></g>
<g id="line2d110">
<g ><use style="fill: none; stroke: #000000; stroke-width: 0.500000; stroke-linejoin: round; stroke-linecap: butt;  opacity: 1.000000" xlink:href="#m6046ccd8b6d57b9fb587e3fdd930e9c5" x="1106.460000" y="467.713897"/>
</g></g>
</g>
<g id="ytick8">
<g id="line2d111">
<path style="fill: none; stroke: #000000; stroke-width: 0.500000; stroke-linejoin: round; stroke-linecap: butt; stroke-dasharray: 1.000000,3.000000; stroke-dashoffset: 0.000000; opacity: 1.000000" clip-path="url(#p5951099db1c2f6c1bd7efaf7467b50c5)" d="M153.675000 443.747949L1106.460000 443.747949"/>
</g>
<g id="line2d112">
<g ><use style="fill: none; stroke: #000000; stroke-width: 0.500000; stroke-linejoin: round; stroke-linecap: butt;  opacity: 1.000000" xlink:href="#mb39cfcf7402899e54c4d755745537394" x="153.675000" y="443.747949"/>
</g></g>
<g id="line2d113">
<g ><use style="fill: none; stroke: #000000; stroke-width: 0.500000; stroke-linejoin: round; stroke-linecap: butt;  opacity: 1.000000" xlink:href="#m6046ccd8b6d57b9fb587e3fdd930e9c5" x="1106.460000" y="443.747949"/>
</g></g>
</g>
<g id="ytick9">
<g id="line2d114">
<path style="fill: none; stroke: #000000; stroke-width: 0.500000; stroke-linejoin: round; stroke-linecap: butt; stroke-dasharray: 1.000000,3.000000; stroke-dashoffset: 0.000000; opacity: 1.000000" clip-path="url(#p5951099db1c2f6c1bd7efaf7467b50c5)" d="M153.675000 395.816054L1106.460000 395.816054"/>
</g>
<g id="line2d115">
<g ><use style="fill: none; stroke: #000000; stroke-width: 0.500000; stroke-linejoin: round; stroke-linecap: butt;  opacity: 1.000000" xlink:href="#mb39cfcf7402899e54c4d755745537394" x="153.675000" y="395.816054"/>
</g></g>
<g id="line2d116">
<g ><use style="fill: none; stroke: #000000; stroke-width: 0.500000; stroke-linejoin: round; stroke-linecap: butt;  opacity: 1.000000" xlink:href="#m6046ccd8b6d57b9fb587e3fdd930e9c5" x="1106.460000" y="395.816054"/>
</g></g>
</g>
<g id="ytick10">
<g id="line2d117">
<path style="fill: none; stroke: #000000; stroke-width: 0.500000; stroke-linejoin: round; stroke-linecap: butt; stroke-dasharray: 1.000000,3.000000; stroke-dashoffset: 0.000000; opacity: 1.000000" clip-path="url(#p5951099db1c2f6c1bd7efaf7467b50c5)" d="M153.675000 371.850107L1106.460000 371.850107"/>
</g>
<g id="line2d118">
<g ><use style="fill: none; stroke: #000000; stroke-width: 0.500000; stroke-linejoin: round; stroke-linecap: butt;  opacity: 1.000000" xlink:href="#mb39cfcf7402899e54c4d755745537394" x="153.675000" y="371.850107"/>
</g></g>
<g id="line2d119">
<g ><use style="fill: none; stroke: #000000; stroke-width: 0.500000; stroke-linejoin: round; stroke-linecap: butt;  opacity: 1.000000" xlink:href="#m6046ccd8b6d57b9fb587e3fdd930e9c5" x="1106.460000" y="371.850107"/>
</g></g>
</g>
<g id="ytick11">
<g id="line2d120">
<path style="fill: none; stroke: #000000; stroke-width: 0.500000; stroke-linejoin: round; stroke-linecap: butt; stroke-dasharray: 1.000000,3.000000; stroke-dashoffset: 0.000000; opacity: 1.000000" clip-path="url(#p5951099db1c2f6c1bd7efaf7467b50c5)" d="M153.675000 347.884159L1106.460000 347.884159"/>
</g>
<g id="line2d121">
<g ><use style="fill: none; stroke: #000000; stroke-width: 0.500000; stroke-linejoin: round; stroke-linecap: butt;  opacity: 1.000000" xlink:href="#mb39cfcf7402899e54c4d755745537394" x="153.675000" y="347.884159"/>
</g></g>
<g id="line2d122">
<g ><use style="fill: none; stroke: #000000; stroke-width: 0.500000; stroke-linejoin: round; stroke-linecap: butt;  opacity: 1.000000" xlink:href="#m6046ccd8b6d57b9fb587e3fdd930e9c5" x="1106.460000" y="347.884159"/>
</g></g>
</g>
<g id="ytick12">
<g id="line2d123">
<path style="fill: none; stroke: #000000; stroke-width: 0.500000; stroke-linejoin: round; stroke-linecap: butt; stroke-dasharray: 1.000000,3.000000; stroke-dashoffset: 0.000000; opacity: 1.000000" clip-path="url(#p5951099db1c2f6c1bd7efaf7467b50c5)" d="M153.675000 323.918212L1106.460000 323.918212"/>
</g>
<g id="line2d124">
<g ><use style="fill: none; stroke: #000000; stroke-width: 0.500000; stroke-linejoin: round; stroke-linecap: butt;  opacity: 1.000000" xlink:href="#mb39cfcf7402899e54c4d755745537394" x="153.675000" y="323.918212"/>
</g></g>
<g id="line2d125">
<g ><use style="fill: none; stroke: #000000; stroke-width: 0.500000; stroke-linejoin: round; stroke-linecap: butt;  opacity: 1.000000" xlink:href="#m6046ccd8b6d57b9fb587e3fdd930e9c5" x="1106.460000" y="323.918212"/>
</g></g>
</g>
<g id="ytick13">
<g id="line2d126">
<path style="fill: none; stroke: #000000; stroke-width: 0.500000; stroke-linejoin: round; stroke-linecap: butt; stroke-dasharray: 1.000000,3.000000; stroke-dashoffset: 0.000000; opacity: 1.000000" clip-path="url(#p5951099db1c2f6c1bd7efaf7467b50c5)" d="M153.675000 275.986316L1106.460000 275.986316"/>
</g>
<g id="line2d127">
<g ><use style="fill: none; stroke: #000000; stroke-width: 0.500000; stroke-linejoin: round; stroke-linecap: butt;  opacity: 1.000000" xlink:href="#mb39cfcf7402899e54c4d755745537394" x="153.675000" y="275.986316"/>
</g></g>
<g id="line2d128">
<g ><use style="fill: none; stroke: #000000; stroke-width: 0.500000; stroke-linejoin: round; stroke-linecap: butt;  opacity: 1.000000" xlink:href="#m6046ccd8b6d57b9fb587e3fdd930e9c5" x="1106.460000" y="275.986316"/>
</g></g>
</g>
<g id="ytick14">
<g id="line2d129">
<path style="fill: none; stroke: #000000; stroke-width: 0.500000; stroke-linejoin: round; stroke-linecap: butt; stroke-dasharray: 1.000000,3.000000; stroke-dashoffset: 0.000000; opacity: 1.000000" clip-path="url(#p5951099db1c2f6c1bd7efaf7467b50c5)" d="M153.675000 252.020369L1106.460000 252.020369"/>
</g>
<g id="line2d130">
<g ><use style="fill: none; stroke: #000000; stroke-width: 0.500000; stroke-linejoin: round; stroke-linecap: butt;  opacity: 1.000000" xlink:href="#mb39cfcf7402899e54c4d755745537394" x="153.675000" y="252.020369"/>
</g></g>
<g id="line2d131">
<g ><use style="fill: none; stroke: #000000; stroke-width: 0.500000; stroke-linejoin: round; stroke-linecap: butt;  opacity: 1.000000" xlink:href="#m6046ccd8b6d57b9fb587e3fdd930e9c5" x="1106.460000" y="252.020369"/>
</g></g>
</g>
<g id="ytick15">
<g id="line2d132">
<path style="fill: none; stroke: #000000; stroke-width: 0.500000; stroke-linejoin: round; stroke-linecap: butt; stroke-dasharray: 1.000000,3.000000; stroke-dashoffset: 0.000000; opacity: 1.000000" clip-path="url(#p5951099db1c2f6c1bd7efaf7467b50c5)" d="M153.675000 228.054421L1106.460000 228.054421"/>
</g>
<g id="line2d133">
<g ><use style="fill: none; stroke: #000000; stroke-width: 0.500000; stroke-linejoin: round; stroke-linecap: butt;  opacity: 1.000000" xlink:href="#mb39cfcf7402899e54c4d755745537394" x="153.675000" y="228.054421"/>
</g></g>
<g id="line2d134">
<g ><use style="fill: none; stroke: #000000; stroke-width: 0.500000; stroke-linejoin: round; stroke-linecap: butt;  opacity: 1.000000" xlink:href="#m6046ccd8b6d57b9fb587e3fdd930e9c5" x="1106.460000" y="228.054421"/>
</g></g>
</g>
<g id="ytick16">
<g id="line2d135">
<path style="fill: none; stroke: #000000; stroke-width: 0.500000; stroke-linejoin: round; stroke-linecap: butt; stroke-dasharray: 1.000000,3.000000; stroke-dashoffset: 0.000000; opacity: 1.000000" clip-path="url(#p5951099db1c2f6c1bd7efaf7467b50c5)" d="M153.675000 204.088474L1106.460000 204.088474"/>
</g>
<g id="line2d136">
<g ><use style="fill: none; stroke: #000000; stroke-width: 0.500000; stroke-linejoin: round; stroke-linecap: butt;  opacity: 1.000000" xlink:href="#mb39cfcf7402899e54c4d755745537394" x="153.675000" y="204.088474"/>
</g></g>
<g id="line2d137">
<g ><use style="fill: none; stroke: #000000; stroke-width: 0.500000; stroke-linejoin: round; stroke-linecap: butt;  opacity: 1.000000" xlink:href="#m6046ccd8b6d57b9fb587e3fdd930e9c5" x="1106.460000" y="204.088474"/>
</g></g>
</g>
<g id="ytick17">
<g id="line2d138">
<path style="fill: none; stroke: #000000; stroke-width: 0.500000; stroke-linejoin: round; stroke-linecap: butt; stroke-dasharray: 1.000000,3.000000; stroke-dashoffset: 0.000000; opacity: 1.000000" clip-path="url(#p5951099db1c2f6c1bd7efaf7467b50c5)" d="M153.675000 156.156579L1106.460000 156.156579"/>
</g>
<g id="line2d139">
<g ><use style="fill: none; stroke: #000000; stroke-width: 0.500000; stroke-linejoin: round; stroke-linecap: butt;  opacity: 1.000000" xlink:href="#mb39cfcf7402899e54c4d755745537394" x="153.675000" y="156.156579"/>
</g></g>
<g id="line2d140">
<g ><use style="fill: none; stroke: #000000; stroke-width: 0.500000; stroke-linejoin: round; stroke-linecap: butt;  opacity: 1.000000" xlink:href="#m6046ccd8b6d57b9fb587e3fdd930e9c5" x="1106.460000" y="156.156579"/>
</g></g>
</g>
<g id="ytick18">
<g id="line2d141">
<path style="fill: none; stroke: #000000; stroke-width: 0.500000; stroke-linejoin: round; stroke-linecap: butt; stroke-dasharray: 1.000000,3.000000; stroke-dashoffset: 0.000000; opacity: 1.000000" clip-path="url(#p5951099db1c2f6c1bd7efaf7467b50c5)" d="M153.675000 132.190631L1106.460000 132.190631"/>
</g>
<g id="line2d142">
<g ><use style="fill: none; stroke: #000000; stroke-width: 0.500000; stroke-linejoin: round; stroke-linecap: butt;  opacity: 1.000000" xlink:href="#mb39cfcf7402899e54c4d755745537394" x="153.675000" y="132.190631"/>
</g></g>
<g id="line2d143">
<g ><use style="fill: none; stroke: #000000; stroke-width: 0.500000; stroke-linejoin: round; stroke-linecap: butt;  opacity: 1.000000" xlink:href="#m6046ccd8b6d57b9fb587e3fdd930e9c5" x="1106.460000" y="132.190631"/>
</g></g>
</g>
<g id="ytick19">
<g id="line2d144">
<path style="fill: none; stroke: #000000; stroke-width: 0.500000; stroke-linejoin: round; stroke-linecap: butt; stroke-dasharray: 1.000000,3.000000; stroke-dashoffset: 0.000000; opacity: 1.000000" clip-path="url(#p5951099db1c2f6c1bd7efaf7467b50c5)" d="M153.675000 108.224684L1106.460000 108.224684"/>
</g>
<g id="line2d145">
<g ><use style="fill: none; stroke: #000000; stroke-width: 0.500000; stroke-linejoin: round; stroke-linecap: butt;  opacity: 1.000000" xlink:href="#mb39cfcf7402899e54c4d755745537394" x="153.675000" y="108.224684"/>
</g></g>
<g id="line2d146">
<g ><use style="fill: none; stroke: #000000; stroke-width: 0.500000; stroke-linejoin: round; stroke-linecap: butt;  opacity: 1.000000" xlink:href="#m6046ccd8b6d57b9fb587e3fdd930e9c5" x="1106.460000" y="108.224684"/>
</g></g>
</g>
<g id="ytick20">
<g id="line2d147">
<path style="fill: none; stroke: #000000; stroke-width: 0.500000; stroke-linejoin: round; stroke-linecap: butt; stroke-dasharray: 1.000000,3.000000; stroke-dashoffset: 0.000000; opacity: 1.000000" clip-path="url(#p5951099db1c2f6c1bd7efaf7467b50c5)" d="M153.675000 84.258736L1106.460000 84.258736"/>
</g>
<g id="line2d148">
<g ><use style="fill: none; stroke: #000000; stroke-width: 0.500000; stroke-linejoin: round; stroke-linecap: butt;  opacity: 1.000000" xlink:href="#mb39cfcf7402899e54c4d755745537394" x="153.675000" y="84.258736"/>
</g></g>
<g id="line2d149">
<g ><use style="fill: none; stroke: #000000; stroke-width: 0.500000; stroke-linejoin: round; stroke-linecap: butt;  opacity: 1.000000" xlink:href="#m6046ccd8b6d57b9fb587e3fdd930e9c5" x="1106.460000" y="84.258736"/>
</g></g>
</g>
<g id="text12">
<defs>
<path id="c_37be95c62dc54aa24625fda644d3578c" d="M4.890625 -0.000000q-0.984375 0.000000 -0.984375 -1.312500q0.046875 -0.250000 0.187500 -0.859375q0.156250 -0.609375 0.421875 -0.968750q0.265625 -0.375000 0.656250 -0.375000q6.109375 0.000000 8.546875 -0.687500q1.265625 -0.437500 1.859375 -2.687500l13.718750 -54.921875q0.203125 -0.984375 0.203125 -1.375000q0.000000 -1.078125 -1.171875 -1.218750q-1.906250 -0.390625 -7.234375 -0.390625q-0.968750 0.000000 -0.968750 -1.312500q0.046875 -0.250000 0.187500 -0.859375q0.140625 -0.609375 0.406250 -0.968750q0.281250 -0.375000 0.671875 -0.375000l30.312500 0.000000q3.625000 0.000000 7.531250 0.828125q3.906250 0.828125 7.171875 2.609375q3.265625 1.781250 5.359375 4.750000q2.109375 2.953125 2.109375 6.906250q0.000000 5.031250 -3.328125 8.984375q-3.312500 3.953125 -8.390625 6.609375q-5.078125 2.656250 -9.859375 3.734375q3.906250 1.421875 6.390625 4.531250q2.500000 3.093750 2.500000 7.140625q0.000000 0.531250 -0.031250 0.812500q-0.015625 0.265625 -0.078125 0.609375l-0.781250 8.875000q-0.093750 1.953125 -0.187500 3.328125q-0.093750 1.359375 -0.093750 2.203125q0.000000 2.734375 0.796875 4.375000q0.812500 1.625000 3.203125 1.625000q3.125000 0.000000 5.484375 -2.906250q2.375000 -2.906250 3.109375 -6.328125q0.437500 -0.875000 0.968750 -0.875000l0.937500 0.000000q0.968750 0.000000 0.968750 1.312500q-0.734375 2.890625 -2.328125 5.484375q-1.578125 2.578125 -4.000000 4.234375q-2.406250 1.671875 -5.234375 1.671875q-5.859375 0.000000 -9.984375 -2.609375q-4.125000 -2.625000 -4.125000 -8.187500q0.000000 -2.093750 0.390625 -3.718750l2.187500 -8.875000q0.390625 -1.218750 0.390625 -2.843750q0.000000 -4.140625 -2.812500 -6.500000q-2.796875 -2.375000 -7.046875 -2.375000l-12.312500 0.000000l-6.578125 26.406250q-0.250000 0.828125 -0.250000 1.421875q0.000000 1.031250 1.218750 1.171875q1.906250 0.390625 7.171875 0.390625q1.031250 0.000000 1.031250 1.312500q-0.343750 1.421875 -0.546875 1.812500q-0.187500 0.390625 -1.156250 0.390625zM31.203125 -35.500000l11.078125 0.000000q10.890625 0.000000 16.406250 -5.515625q2.546875 -2.546875 4.031250 -6.468750q1.484375 -3.937500 1.484375 -7.843750q0.000000 -3.703125 -2.171875 -5.796875q-2.171875 -2.109375 -5.375000 -2.890625q-3.187500 -0.781250 -7.046875 -0.781250l-6.687500 0.000000q-2.734375 0.000000 -3.625000 0.468750q-0.875000 0.453125 -1.593750 2.953125z"/>
<path id="c_b1ccbd40de9466de4ee940ca0731021f" d="M8.406250 14.312500q2.093750 3.609375 7.312500 3.609375q4.734375 0.000000 8.203125 -3.328125q3.468750 -3.312500 5.593750 -8.031250q2.125000 -4.703125 3.296875 -9.640625q-4.437500 4.203125 -9.625000 4.203125q-3.953125 0.000000 -6.734375 -1.359375q-2.781250 -1.375000 -4.328125 -4.078125q-1.531250 -2.718750 -1.531250 -6.578125q0.000000 -3.265625 0.875000 -6.703125q0.890625 -3.453125 2.468750 -7.671875q1.593750 -4.234375 2.765625 -7.359375q1.312500 -3.656250 1.312500 -6.000000q0.000000 -2.984375 -2.187500 -2.984375q-3.968750 0.000000 -6.531250 4.078125q-2.562500 4.078125 -3.781250 9.109375q-0.187500 0.640625 -0.828125 0.640625l-1.171875 0.000000q-0.828125 0.000000 -0.828125 -0.937500l0.000000 -0.281250q1.609375 -5.968750 4.921875 -10.578125q3.328125 -4.609375 8.406250 -4.609375q3.562500 0.000000 6.031250 2.343750q2.468750 2.343750 2.468750 5.953125q0.000000 1.859375 -0.828125 3.906250q-0.437500 1.218750 -2.000000 5.328125q-1.562500 4.093750 -2.406250 6.781250q-0.828125 2.687500 -1.359375 5.281250q-0.531250 2.578125 -0.531250 5.171875q0.000000 3.312500 1.406250 5.609375q1.421875 2.296875 4.500000 2.296875q6.203125 0.000000 11.125000 -7.562500l7.578125 -30.812500q0.328125 -1.328125 1.546875 -2.265625q1.234375 -0.953125 2.640625 -0.953125q1.218750 0.000000 2.125000 0.781250q0.906250 0.781250 0.906250 2.046875q0.000000 0.578125 -0.093750 0.781250l-9.921875 39.796875q-1.312500 5.125000 -4.828125 9.812500q-3.515625 4.687500 -8.468750 7.546875q-4.953125 2.859375 -10.328125 2.859375q-2.593750 0.000000 -5.140625 -1.015625q-2.531250 -1.000000 -4.093750 -3.000000q-1.562500 -2.000000 -1.562500 -4.687500q0.000000 -2.734375 1.609375 -4.734375q1.625000 -2.000000 4.296875 -2.000000q1.625000 0.000000 2.718750 1.000000q1.093750 1.000000 1.093750 2.609375q0.000000 2.296875 -1.718750 4.000000q-1.703125 1.718750 -3.984375 1.718750q-0.109375 -0.046875 -0.203125 -0.078125q-0.093750 -0.015625 -0.187500 -0.015625"/>
<path id="c_06a7a4502300c60b4feec85758ecf628" d="M31.000000 24.812500q-5.562500 -4.406250 -9.593750 -10.093750q-4.015625 -5.687500 -6.593750 -12.140625q-2.562500 -6.437500 -3.828125 -13.468750q-1.265625 -7.031250 -1.265625 -14.109375q0.000000 -7.171875 1.265625 -14.203125q1.265625 -7.031250 3.875000 -13.531250q2.625000 -6.500000 6.671875 -12.156250q4.062500 -5.671875 9.468750 -9.921875q0.000000 -0.187500 0.500000 -0.187500l0.921875 0.000000q0.296875 0.000000 0.531250 0.265625q0.250000 0.265625 0.250000 0.609375q0.000000 0.437500 -0.187500 0.640625q-4.890625 4.781250 -8.140625 10.250000q-3.250000 5.468750 -5.234375 11.656250q-1.968750 6.171875 -2.843750 12.796875q-0.875000 6.609375 -0.875000 13.781250q0.000000 31.781250 16.984375 48.296875q0.296875 0.281250 0.296875 0.828125q0.000000 0.234375 -0.265625 0.546875q-0.265625 0.328125 -0.515625 0.328125l-0.921875 0.000000q-0.500000 0.000000 -0.500000 -0.187500"/>
<path id="c_39f42522cc1208673ce5de0454ea662d" d="M7.718750 -0.000000l-3.328125 -16.609375l2.937500 0.000000q0.531250 2.890625 0.968750 5.109375q0.437500 2.218750 1.140625 3.125000q0.718750 0.906250 2.281250 1.203125q1.562500 0.281250 5.171875 0.281250l6.109375 0.000000q-1.468750 -5.656250 -7.312500 -14.765625q-5.828125 -9.109375 -7.953125 -13.234375q-2.125000 -4.125000 -2.125000 -10.625000q0.000000 -7.562500 4.484375 -13.250000q4.500000 -5.687500 11.609375 -8.718750q7.109375 -3.031250 14.375000 -3.031250q7.234375 0.000000 14.328125 3.031250q7.109375 3.031250 11.593750 8.765625q4.500000 5.734375 4.500000 13.203125q0.000000 5.078125 -1.859375 9.578125q-1.843750 4.484375 -4.734375 8.984375q-2.875000 4.484375 -6.218750 10.015625q-3.343750 5.515625 -4.562500 10.046875l6.046875 0.000000q3.671875 0.000000 5.281250 -0.281250q1.609375 -0.296875 2.281250 -1.203125q0.687500 -0.906250 1.109375 -3.125000q0.421875 -2.218750 0.953125 -5.109375l2.875000 0.000000l-3.265625 16.609375l-17.718750 0.000000q-0.984375 0.000000 -0.984375 -1.312500q0.000000 -5.078125 1.234375 -9.953125q1.250000 -4.890625 3.687500 -11.828125q2.453125 -6.937500 3.812500 -12.234375q1.375000 -5.296875 1.375000 -10.187500q0.000000 -6.000000 -2.343750 -11.125000q-2.343750 -5.125000 -6.843750 -8.203125q-4.484375 -3.078125 -10.546875 -3.078125q-9.125000 0.000000 -14.453125 6.515625q-5.312500 6.515625 -5.312500 15.890625q0.046875 5.140625 1.218750 9.687500q1.171875 4.531250 3.781250 12.109375q2.609375 7.562500 3.859375 12.453125q1.250000 4.875000 1.250000 9.953125q0.000000 1.312500 -1.031250 1.312500z"/>
<path id="c_b865a8a4692360a5eaaff4ecf56eccf7" d="M6.500000 25.000000q-0.890625 0.000000 -0.890625 -0.875000q0.000000 -0.437500 0.203125 -0.640625q17.093750 -16.703125 17.093750 -48.484375q0.000000 -31.781250 -16.906250 -48.296875q-0.390625 -0.234375 -0.390625 -0.828125q0.000000 -0.343750 0.265625 -0.609375q0.281250 -0.265625 0.625000 -0.265625l0.921875 0.000000q0.296875 0.000000 0.484375 0.187500q7.187500 5.671875 11.968750 13.781250q4.781250 8.093750 7.000000 17.281250q2.234375 9.171875 2.234375 18.750000q0.000000 7.078125 -1.203125 13.937500q-1.203125 6.859375 -3.812500 13.515625q-2.609375 6.671875 -6.609375 12.312500q-4.000000 5.640625 -9.578125 10.046875q-0.187500 0.187500 -0.484375 0.187500z"/>
</defs>
<g id="mathtext1">
<g style="fill: #000000" transform="translate(104.253125,317.500000)rotate(-90.0)">
<use xlink:href="#c_37be95c62dc54aa24625fda644d3578c" transform="translate(0.000000,-5.000000)scale(0.120000)"/>
<use xlink:href="#c_b1ccbd40de9466de4ee940ca0731021f" transform="translate(9.105469,-1.938875)scale(0.084000)"/>
<use xlink:href="#c_06a7a4502300c60b4feec85758ecf628" transform="translate(13.223437,-5.000000)scale(0.120000)"/>
<use xlink:href="#c_39f42522cc1208673ce5de0454ea662d" transform="translate(17.881641,-5.000000)scale(0.120000)"/>
<use xlink:href="#c_b865a8a4692360a5eaaff4ecf56eccf7" transform="translate(26.547656,-5.000000)scale(0.120000)"/>
</g>
</g>
</g>
<g id="text13">
<defs>
<path id="c_5190dbc1cdbe53cbdd605e1721869cb7" d="M46.000000 -62.703125l0.000000 27.203125l27.187500 0.000000l0.000000 8.296875l-27.187500 0.000000l0.000000 27.203125l-8.203125 0.000000l0.000000 -27.203125l-27.203125 0.000000l0.000000 -8.296875l27.203125 0.000000l0.000000 -27.203125z"/>
<path id="c_cd96f817f3cab988d24a2b49a5577fe6" d="M10.984375 -1.515625l0.000000 -8.984375q3.718750 1.765625 7.515625 2.687500q3.812500 0.921875 7.484375 0.921875q9.765625 0.000000 14.906250 -6.562500q5.156250 -6.562500 5.890625 -19.953125q-2.828125 4.203125 -7.187500 6.453125q-4.343750 2.250000 -9.609375 2.250000q-10.937500 0.000000 -17.312500 -6.609375q-6.375000 -6.625000 -6.375000 -18.109375q0.000000 -11.218750 6.640625 -18.000000q6.640625 -6.796875 17.671875 -6.796875q12.656250 0.000000 19.312500 9.703125q6.671875 9.687500 6.671875 28.140625q0.000000 17.234375 -8.187500 27.515625q-8.171875 10.281250 -21.984375 10.281250q-3.718750 0.000000 -7.531250 -0.734375q-3.796875 -0.734375 -7.906250 -2.203125M30.609375 -32.421875q6.640625 0.000000 10.515625 -4.531250q3.890625 -4.546875 3.890625 -12.468750q0.000000 -7.859375 -3.890625 -12.421875q-3.875000 -4.562500 -10.515625 -4.562500q-6.640625 0.000000 -10.515625 4.562500q-3.875000 4.562500 -3.875000 12.421875q0.000000 7.921875 3.875000 12.468750q3.875000 4.531250 10.515625 4.531250"/>
<path id="c_bef35738d52871942e50b9de9b122bab" d="M31.781250 -34.625000q-7.031250 0.000000 -11.062500 3.765625q-4.015625 3.765625 -4.015625 10.343750q0.000000 6.593750 4.015625 10.359375q4.031250 3.765625 11.062500 3.765625q7.031250 0.000000 11.078125 -3.781250q4.062500 -3.796875 4.062500 -10.343750q0.000000 -6.578125 -4.031250 -10.343750q-4.015625 -3.765625 -11.109375 -3.765625M21.921875 -38.812500q-6.343750 -1.562500 -9.890625 -5.906250q-3.531250 -4.359375 -3.531250 -10.609375q0.000000 -8.734375 6.218750 -13.812500q6.234375 -5.078125 17.062500 -5.078125q10.890625 0.000000 17.093750 5.078125q6.203125 5.078125 6.203125 13.812500q0.000000 6.250000 -3.546875 10.609375q-3.531250 4.343750 -9.828125 5.906250q7.125000 1.656250 11.093750 6.500000q3.984375 4.828125 3.984375 11.796875q0.000000 10.609375 -6.468750 16.281250q-6.468750 5.656250 -18.531250 5.656250q-12.046875 0.000000 -18.531250 -5.656250q-6.468750 -5.671875 -6.468750 -16.281250q0.000000 -6.968750 4.000000 -11.796875q4.015625 -4.843750 11.140625 -6.500000M18.312500 -54.390625q0.000000 5.656250 3.531250 8.828125q3.546875 3.171875 9.937500 3.171875q6.359375 0.000000 9.937500 -3.171875q3.593750 -3.171875 3.593750 -8.828125q0.000000 -5.671875 -3.593750 -8.843750q-3.578125 -3.171875 -9.937500 -3.171875q-6.390625 0.000000 -9.937500 3.171875q-3.531250 3.171875 -3.531250 8.843750"/>
</defs>
<g style="fill: #000000; opacity: 1.000000" transform="translate(153.675000,57.300000)scale(0.120000)">
<use xlink:href="#c_5190dbc1cdbe53cbdd605e1721869cb7"/>
<use xlink:href="#c_42baa63129a918535c52adb20d687ea7" x="83.789062"/>
<use xlink:href="#c_ed3e21196fb739f392806f09ca0594ef" x="147.412109"/>
<use xlink:href="#c_cd96f817f3cab988d24a2b49a5577fe6" x="179.199219"/>
<use xlink:href="#c_cd96f817f3cab988d24a2b49a5577fe6" x="242.822266"/>
<use xlink:href="#c_bef35738d52871942e50b9de9b122bab" x="306.445312"/>
</g>
</g>
</g>
<g id="patch3">
<path style="fill: none; stroke: #000000; stroke-width: 1.000000; stroke-linejoin: round; stroke-linecap: square;  opacity: 1.000000"  d="M153.675000 60.300000L1106.460000 60.300000"/>
</g>
<g id="patch4">
<path style="fill: none; stroke: #000000; stroke-width: 1.000000; stroke-linejoin: round; stroke-linecap: square;  opacity: 1.000000"  d="M1106.460000 542.700000L1106.460000 60.300000"/>
</g>
<g id="patch5">
<path style="fill: none; stroke: #000000; stroke-width: 1.000000; stroke-linejoin: round; stroke-linecap: square;  opacity: 1.000000"  d="M153.675000 542.700000L1106.460000 542.700000"/>
</g>
<g id="patch6">
<path style="fill: none; stroke: #000000; stroke-width: 1.000000; stroke-linejoin: round; stroke-linecap: square;  opacity: 1.000000"  d="M153.675000 542.700000L153.675000 60.300000"/>
</g>
</g>
</g>
</svg>
